<svg width="52" height="52" viewBox="0 0 52 52" fill="none" xmlns="http://www.w3.org/2000/svg">
<g id="shield-check-svgrepo-com 1">
<path id="Vector" d="M32.6291 22.7488C33.2267 22.0793 33.1686 21.0521 32.4991 20.4544C31.8296 19.8566 30.8024 19.9148 30.2046 20.5843L23.6788 27.8933L21.7958 25.7843C21.1979 25.1148 20.1707 25.0567 19.5012 25.6543C18.8318 26.2521 18.7736 27.2793 19.3714 27.9488L22.4666 31.4154C22.7749 31.7608 23.2158 31.9582 23.6788 31.9582C24.1416 31.9582 24.5825 31.7608 24.8908 31.4154L32.6291 22.7488Z" fill="#151515"/>
<path id="Vector_2" fill-rule="evenodd" clip-rule="evenodd" d="M26 2.7085C23.9688 2.7085 22.0292 3.37275 18.9007 4.44426L17.3246 4.9838C14.115 6.08243 11.638 6.93029 9.8649 7.65064C8.97169 8.01349 8.2038 8.36495 7.58546 8.72405C6.9904 9.06961 6.39344 9.50065 5.98786 10.0785C5.58697 10.6497 5.37968 11.3518 5.24942 12.0278C5.11401 12.7305 5.03234 13.5735 4.97965 14.5414C4.875 16.4633 4.875 19.0961 4.875 22.511V25.9815C4.875 39.2004 14.8591 45.5381 20.7964 48.1318L20.8551 48.1574C21.5913 48.4791 22.2833 48.7814 23.0785 48.985C23.9181 49.2 24.8099 49.2918 26 49.2918C27.1902 49.2918 28.082 49.2 28.9215 48.985C29.7167 48.7814 30.4087 48.4791 31.1448 48.1574L31.2037 48.1318C37.141 45.5381 47.125 39.2004 47.125 25.9815V22.5114C47.125 19.0963 47.125 16.4634 47.0204 14.5414C46.9677 13.5735 46.886 12.7305 46.7506 12.0278C46.6204 11.3518 46.413 10.6497 46.0122 10.0785C45.6066 9.50065 45.0097 9.06961 44.4145 8.72405C43.7961 8.36495 43.0283 8.01349 42.1352 7.65064C40.362 6.93029 37.885 6.08243 34.6753 4.98378L33.0993 4.44426C29.9708 3.37275 28.0312 2.7085 26 2.7085ZM19.6747 7.61448C23.1727 6.41705 24.575 5.9585 26 5.9585C27.425 5.9585 28.8273 6.41705 32.3254 7.61448L33.5664 8.0393C36.8437 9.16113 39.2338 9.97994 40.9119 10.6617C41.7495 11.0019 42.3564 11.2871 42.7824 11.5345C42.9927 11.6566 43.1377 11.7574 43.2343 11.8361C43.3164 11.9027 43.3476 11.9405 43.3522 11.946C43.3563 11.9528 43.3834 11.9978 43.4213 12.1043C43.4646 12.2259 43.5125 12.4002 43.5593 12.6428C43.654 13.1338 43.7257 13.8084 43.7751 14.7182C43.8744 16.5407 43.875 19.0849 43.875 22.5697V25.9815C43.875 37.1942 35.4902 42.7127 29.9026 45.1535C29.0977 45.5051 28.6329 45.704 28.1155 45.8364C27.6213 45.963 27.0183 46.0418 26 46.0418C24.9817 46.0418 24.3787 45.963 23.8845 45.8364C23.3671 45.704 22.9023 45.5051 22.0974 45.1535C16.5098 42.7127 8.125 37.1942 8.125 25.9815V22.5697C8.125 19.0849 8.12561 16.5407 8.22484 14.7182C8.27437 13.8084 8.34609 13.1338 8.44071 12.6428C8.48746 12.4002 8.53545 12.2259 8.57877 12.1043C8.61668 11.9979 8.64361 11.9529 8.6478 11.9461C8.65228 11.9406 8.68357 11.9028 8.76562 11.8361C8.8624 11.7574 9.00731 11.6566 9.21763 11.5345C9.64362 11.2871 10.2505 11.0019 11.0881 10.6617C12.7662 9.97994 15.1563 9.16113 18.4336 8.0393L19.6747 7.61448Z" fill="#151515"/>
</g>
</svg>
