<svg width="52" height="52" viewBox="0 0 52 52" fill="none" xmlns="http://www.w3.org/2000/svg">
<g id="wallet-money-svgrepo-com 1">
<path id="Vector" fill-rule="evenodd" clip-rule="evenodd" d="M45.3342 25.4589C45.2903 25.4585 45.2326 25.4585 45.1388 25.4585H39.5001C36.416 25.4585 34.125 27.7523 34.125 30.3335C34.125 32.9146 36.416 35.2085 39.5001 35.2085H45.1388C45.2326 35.2085 45.2903 35.2085 45.3342 35.2081C45.3758 35.2076 45.3873 35.2068 45.3873 35.2068C45.8337 35.1797 46.0258 34.8783 46.0406 34.6969C46.0406 34.6969 46.041 34.6835 46.0412 34.6638C46.0417 34.6252 46.0417 34.5741 46.0417 34.4863V26.1806C46.0417 26.1321 46.0417 26.0948 46.0417 26.0645C46.0414 26.0402 46.0414 26.0203 46.0412 26.0032C46.041 25.9837 46.0406 25.97 46.0406 25.97C46.0258 25.7887 45.8337 25.4873 45.3871 25.4602C45.3871 25.4602 45.3765 25.4594 45.3342 25.4589ZM45.1748 22.2085C45.3186 22.2085 45.4573 22.2083 45.5847 22.2161C47.4725 22.3311 49.1422 23.7551 49.2826 25.7441C49.2919 25.8745 49.2917 26.0151 49.2917 26.1453C49.2917 26.1572 49.2917 26.1689 49.2917 26.1806V34.4863C49.2917 34.498 49.2917 34.5097 49.2917 34.5217C49.2917 34.6519 49.2919 34.7925 49.2826 34.9229C49.1422 36.9119 47.4725 38.3359 45.5847 38.4509C45.4573 38.4587 45.3186 38.4585 45.1748 38.4585C45.1629 38.4585 45.1509 38.4585 45.1388 38.4585H39.5001C34.8521 38.4585 30.875 34.932 30.875 30.3335C30.875 25.735 34.8521 22.2085 39.5001 22.2085H45.1388C45.1509 22.2085 45.1629 22.2085 45.1748 22.2085Z" fill="#151515"/>
<path id="Vector_2" d="M41.1668 30.3332C41.1668 31.5298 40.1968 32.4998 39.0002 32.4998C37.8035 32.4998 36.8335 31.5298 36.8335 30.3332C36.8335 29.1365 37.8035 28.1665 39.0002 28.1665C40.1968 28.1665 41.1668 29.1365 41.1668 30.3332Z" fill="#151515"/>
<path id="Vector_3" fill-rule="evenodd" clip-rule="evenodd" d="M45.1749 22.2083C45.3188 22.2083 45.4575 22.2081 45.5849 22.2159C46.0732 22.2456 46.5471 22.363 46.9837 22.5552C46.7518 19.0745 46.1135 16.3922 44.1109 14.3894C42.4894 12.7679 40.4332 12.0483 37.893 11.7068L37.8013 11.6947C37.7786 11.6778 37.7554 11.6615 37.7316 11.6457L29.638 6.27913C26.8144 4.40696 23.0193 4.40696 20.1957 6.27913L12.1022 11.6457C12.0783 11.6615 12.055 11.6778 12.0322 11.6947L11.9406 11.7068C9.40038 12.0483 7.34432 12.7679 5.72285 14.3894C4.1014 16.0108 3.38181 18.0669 3.0403 20.6071C2.70843 23.0754 2.70845 26.2292 2.7085 30.2111V30.4555C2.70845 34.4374 2.70843 37.5912 3.0403 40.0595C3.38181 42.5997 4.1014 44.6559 5.72285 46.2774C7.34432 47.8987 9.40038 48.6183 11.9406 48.96C14.4089 49.2917 17.5628 49.2917 21.5446 49.2917H28.289C32.2709 49.2917 35.4247 49.2917 37.893 48.96C40.4332 48.6183 42.4894 47.8987 44.1109 46.2774C46.1135 44.2745 46.7518 41.5922 46.9837 38.1115C46.5471 38.3036 46.0732 38.4211 45.5849 38.4508C45.4575 38.4585 45.3188 38.4583 45.1749 38.4583H45.139H43.6973C43.4507 41.3649 42.8928 42.8991 41.8127 43.9792C40.8958 44.8961 39.6398 45.4458 37.4601 45.7388C35.2334 46.0382 32.2982 46.0417 28.1668 46.0417H21.6668C17.5354 46.0417 14.6003 46.0382 12.3737 45.7388C10.1938 45.4458 8.9379 44.8961 8.02095 43.9792C7.10399 43.0623 6.55437 41.8063 6.26131 39.6266C5.96194 37.3999 5.9585 34.4647 5.9585 30.3333C5.9585 26.2019 5.96194 23.2668 6.26131 21.0402C6.55437 18.8603 7.10399 17.6044 8.02095 16.6875C8.9379 15.7705 10.1938 15.2209 12.3737 14.9278C14.6003 14.6284 17.5354 14.625 21.6668 14.625H28.1668C32.2982 14.625 35.2334 14.6284 37.4601 14.9278C39.6398 15.2209 40.8958 15.7705 41.8127 16.6875C42.8928 17.7676 43.4507 19.3018 43.6973 22.2083H45.139H45.1749ZM21.5446 11.375H28.289C29.4081 11.375 30.4618 11.375 31.4532 11.3823L27.842 8.98779C26.107 7.8374 23.7267 7.8374 21.9918 8.98779L18.3804 11.3823C19.3718 11.375 20.4255 11.375 21.5446 11.375Z" fill="#151515"/>
<path id="Vector_4" d="M13 20.0415C12.1025 20.0415 11.375 20.769 11.375 21.6665C11.375 22.5639 12.1025 23.2915 13 23.2915H21.6667C22.5641 23.2915 23.2917 22.5639 23.2917 21.6665C23.2917 20.769 22.5641 20.0415 21.6667 20.0415H13Z" fill="#151515"/>
<path id="Vector_5" fill-rule="evenodd" clip-rule="evenodd" d="M41.1668 30.3332C41.1668 31.5298 40.1968 32.4998 39.0002 32.4998C37.8035 32.4998 36.8335 31.5298 36.8335 30.3332C36.8335 29.1365 37.8035 28.1665 39.0002 28.1665C40.1968 28.1665 41.1668 29.1365 41.1668 30.3332Z" fill="#151515"/>
</g>
</svg>
