<svg width="52" height="52" viewBox="0 0 52 52" fill="none" xmlns="http://www.w3.org/2000/svg">
<g id="suspension-svgrepo-com 1">
<path id="Vector" fill-rule="evenodd" clip-rule="evenodd" d="M11.758 2.70854C11.8102 2.70859 11.8631 2.70861 11.9168 2.70861C11.9704 2.70861 12.0234 2.70859 12.0755 2.70854C12.9264 2.70813 13.5829 2.70781 14.1625 2.8231C16.5261 3.29324 18.3738 5.14091 18.844 7.50453C18.9592 8.08411 18.9589 8.74061 18.9585 9.5915C18.9585 9.6437 18.9584 9.69661 18.9584 9.75028V10.2919H33.0417V9.75028C33.0417 9.69661 33.0417 9.6437 33.0417 9.5915C33.0412 8.74061 33.041 8.08411 33.1563 7.50453C33.6265 5.14091 35.4742 3.29324 37.8376 2.8231C38.4174 2.70781 39.0737 2.70813 39.9247 2.70854C39.977 2.70859 40.0298 2.70861 40.0833 2.70861C40.1371 2.70861 40.1899 2.70859 40.2421 2.70854C41.093 2.70813 41.7495 2.70781 42.3291 2.8231C44.6927 3.29324 46.5404 5.14091 47.0106 7.50453C47.1259 8.08411 47.1256 8.74059 47.1252 9.59148C47.1252 9.64365 47.125 9.69659 47.125 9.75028V14.0836C47.125 14.1373 47.1252 14.1902 47.1252 14.2424C47.1256 15.0933 47.1259 15.7498 47.0106 16.3293C46.5404 18.693 44.6927 20.5406 42.3291 21.0108C41.7495 21.1261 41.093 21.1258 40.2421 21.1253C40.1899 21.1253 40.1371 21.1253 40.0833 21.1253C40.0298 21.1253 39.977 21.1253 39.9247 21.1253C39.0737 21.1258 38.4174 21.1261 37.8376 21.0108C35.4742 20.5406 33.6265 18.693 33.1563 16.3294C33.041 15.7498 33.0412 15.0933 33.0417 14.2424C33.0417 14.1902 33.0417 14.1373 33.0417 14.0836V13.5419H27.625V38.4585H33.0417V37.9168C33.0417 37.8633 33.0417 37.8105 33.0417 37.7582C33.0412 36.9072 33.041 36.2509 33.1563 35.6711C33.6265 33.3077 35.4742 31.46 37.8376 30.9898C38.4174 30.8745 39.0737 30.8747 39.9247 30.8752C39.977 30.8752 40.0298 30.8752 40.0833 30.8752C40.1371 30.8752 40.1899 30.8752 40.2421 30.8752C41.093 30.8747 41.7495 30.8745 42.3291 30.9898C44.6927 31.46 46.5404 33.3077 47.0106 35.6711C47.1259 36.2509 47.1256 36.9072 47.1252 37.7582C47.1252 37.8102 47.125 37.8633 47.125 37.9168V42.2502C47.125 42.3039 47.1252 42.3568 47.1252 42.409C47.1256 43.2601 47.1259 43.9163 47.0106 44.4959C46.5404 46.8595 44.6927 48.7073 42.3291 49.1774C41.7495 49.2927 41.0932 49.2925 40.2421 49.292C40.1902 49.292 40.1371 49.2918 40.0833 49.2918C40.0298 49.2918 39.9767 49.292 39.9247 49.292C39.0737 49.2925 38.4174 49.2927 37.8376 49.1774C35.4742 48.7073 33.6265 46.8595 33.1563 44.4959C33.041 43.9163 33.0412 43.2598 33.0417 42.409C33.0417 42.3568 33.0417 42.3039 33.0417 42.2502V41.7085H18.9584V42.2502C18.9584 42.3039 18.9585 42.3568 18.9585 42.409C18.9589 43.2598 18.9592 43.9163 18.844 44.4959C18.3738 46.8595 16.5261 48.7073 14.1625 49.1774C13.5829 49.2927 12.9265 49.2925 12.0756 49.292C12.0234 49.292 11.9704 49.2918 11.9168 49.2918C11.8631 49.2918 11.8102 49.292 11.758 49.292C10.9071 49.2925 10.2506 49.2927 9.67103 49.1774C7.30741 48.7073 5.45974 46.8595 4.9896 44.4959C4.87431 43.9163 4.87464 43.2601 4.87505 42.409C4.87509 42.3568 4.87511 42.3039 4.87511 42.2502V37.9168C4.87511 37.8633 4.87509 37.8105 4.87505 37.7582C4.87464 36.9072 4.87431 36.2509 4.9896 35.6711C5.45974 33.3077 7.30741 31.46 9.67103 30.9898C10.2506 30.8745 10.9071 30.8747 11.758 30.8752C11.8102 30.8752 11.8631 30.8752 11.9168 30.8752C11.9704 30.8752 12.0234 30.8752 12.0755 30.8752C12.9264 30.8747 13.5829 30.8745 14.1625 30.9898C16.5261 31.46 18.3738 33.3077 18.844 35.6711C18.9592 36.2509 18.9589 36.9072 18.9585 37.7582C18.9585 37.8105 18.9584 37.8633 18.9584 37.9168V38.4585H24.375V13.5419H18.9584V14.0836C18.9584 14.1373 18.9585 14.1902 18.9585 14.2424C18.9589 15.0933 18.9592 15.7498 18.844 16.3293C18.3738 18.693 16.5261 20.5406 14.1625 21.0108C13.5829 21.1261 12.9264 21.1258 12.0755 21.1253C12.0234 21.1253 11.9704 21.1253 11.9168 21.1253C11.8631 21.1253 11.8102 21.1253 11.758 21.1253C10.9071 21.1258 10.2506 21.1261 9.67103 21.0108C7.30741 20.5406 5.45974 18.693 4.9896 16.3294C4.87431 15.7498 4.87464 15.0933 4.87505 14.2424C4.87509 14.1902 4.87511 14.1373 4.87511 14.0836V9.75028C4.87511 9.69661 4.87509 9.6437 4.87505 9.5915C4.87464 8.74061 4.87431 8.08411 4.9896 7.50453C5.45974 5.14091 7.30741 3.29324 9.67103 2.8231C10.2506 2.70781 10.9071 2.70813 11.758 2.70854ZM15.7084 9.75028C15.7084 8.66562 15.7006 8.36062 15.6564 8.13856C15.4427 7.06419 14.6028 6.22435 13.5285 6.01065C13.3064 5.96647 13.0014 5.95861 11.9168 5.95861C10.8321 5.95861 10.5271 5.96647 10.3051 6.01065C9.2307 6.22435 8.39085 7.06419 8.17716 8.13856C8.13298 8.36062 8.12511 8.66562 8.12511 9.75028V14.0836C8.12511 15.1682 8.13298 15.4732 8.17716 15.6953C8.39085 16.7697 9.2307 17.6095 10.3051 17.8232C10.5271 17.8674 10.8321 17.8753 11.9168 17.8753C13.0014 17.8753 13.3064 17.8674 13.5285 17.8232C14.6028 17.6095 15.4427 16.7697 15.6564 15.6953C15.7006 15.4732 15.7084 15.1682 15.7084 14.0836V9.75028ZM15.7084 37.9168C15.7084 36.8322 15.7006 36.5274 15.6564 36.3053C15.4427 35.2308 14.6028 34.391 13.5285 34.1774C13.3064 34.1332 13.0014 34.1252 11.9168 34.1252C10.8321 34.1252 10.5271 34.1332 10.3051 34.1774C9.2307 34.391 8.39085 35.2308 8.17716 36.3053C8.13298 36.5274 8.12511 36.8322 8.12511 37.9168V42.2502C8.12511 43.335 8.13298 43.6399 8.17716 43.862C8.39085 44.9364 9.2307 45.7762 10.3051 45.9898C10.5271 46.034 10.8321 46.0418 11.9168 46.0418C13.0014 46.0418 13.3064 46.034 13.5285 45.9898C14.6028 45.7762 15.4427 44.9364 15.6564 43.862C15.7006 43.6399 15.7084 43.335 15.7084 42.2502V37.9168ZM36.2917 42.2502C36.2917 43.335 36.2997 43.6399 36.3439 43.862C36.5575 44.9364 37.3973 45.7762 38.4718 45.9898C38.6939 46.034 38.9987 46.0418 40.0833 46.0418C41.1682 46.0418 41.473 46.034 41.6951 45.9898C42.7696 45.7762 43.6094 44.9364 43.823 43.862C43.8672 43.6399 43.875 43.335 43.875 42.2502V37.9168C43.875 36.8322 43.8672 36.5274 43.823 36.3053C43.6094 35.2308 42.7696 34.391 41.6951 34.1774C41.473 34.1332 41.1682 34.1252 40.0833 34.1252C38.9987 34.1252 38.6939 34.1332 38.4718 34.1774C37.3973 34.391 36.5575 35.2308 36.3439 36.3053C36.2997 36.5274 36.2917 36.8322 36.2917 37.9168V42.2502ZM36.2917 14.0836C36.2917 15.1682 36.2997 15.4732 36.3439 15.6953C36.5575 16.7697 37.3973 17.6095 38.4718 17.8232C38.6939 17.8674 38.9987 17.8753 40.0833 17.8753C41.1682 17.8753 41.473 17.8674 41.6951 17.8232C42.7696 17.6095 43.6094 16.7697 43.823 15.6953C43.8672 15.4732 43.875 15.1682 43.875 14.0836V9.75028C43.875 8.66562 43.8672 8.36062 43.823 8.13856C43.6094 7.06419 42.7696 6.22435 41.6951 6.01065C41.473 5.96647 41.1682 5.95861 40.0833 5.95861C38.9987 5.95861 38.6939 5.96647 38.4718 6.01065C37.3973 6.22435 36.5575 7.06419 36.3439 8.13856C36.2997 8.36062 36.2917 8.66562 36.2917 9.75028V14.0836Z" fill="#151515"/>
</g>
</svg>
