<svg width="52" height="52" viewBox="0 0 52 52" fill="none" xmlns="http://www.w3.org/2000/svg">
<g id="shield-user-svgrepo-com 1">
<path id="Vector" fill-rule="evenodd" clip-rule="evenodd" d="M20.0415 19.4998C20.0415 16.2091 22.7091 13.5415 25.9998 13.5415C29.2906 13.5415 31.9582 16.2091 31.9582 19.4998C31.9582 22.7906 29.2906 25.4582 25.9998 25.4582C22.7091 25.4582 20.0415 22.7906 20.0415 19.4998ZM25.9998 16.7915C24.504 16.7915 23.2915 18.0041 23.2915 19.4998C23.2915 20.9956 24.504 22.2082 25.9998 22.2082C27.4957 22.2082 28.7082 20.9956 28.7082 19.4998C28.7082 18.0041 27.4957 16.7915 25.9998 16.7915Z" fill="#151515"/>
<path id="Vector_2" fill-rule="evenodd" clip-rule="evenodd" d="M25.9998 26.5415C23.4089 26.5415 20.9831 27.063 19.1448 27.9823C17.4037 28.8529 15.7081 30.3561 15.7081 32.4998L15.7078 32.6353C15.7045 33.7409 15.6989 35.6029 17.4636 36.8804C18.2825 37.473 19.3631 37.8511 20.7016 38.092C22.0525 38.3351 23.7837 38.4582 25.9998 38.4582C28.2158 38.4582 29.947 38.3351 31.2979 38.092C32.6365 37.8511 33.717 37.473 34.536 36.8804C36.3005 35.6029 36.2951 33.7409 36.2916 32.6353L36.2914 32.4998C36.2914 30.3561 34.5958 28.8529 32.8547 27.9823C31.0165 27.063 28.5907 26.5415 25.9998 26.5415ZM18.9581 32.4998C18.9581 32.2502 19.2026 31.587 20.5982 30.8891C21.8968 30.24 23.8041 29.7915 25.9998 29.7915C28.1955 29.7915 30.1028 30.24 31.4013 30.8891C32.7968 31.587 33.0414 32.2502 33.0414 32.4998C33.0414 33.8096 32.958 34.0104 32.6302 34.2477C32.3659 34.439 31.8214 34.6955 30.7225 34.8934C29.6359 35.0888 28.117 35.2082 25.9998 35.2082C23.8825 35.2082 22.3637 35.0888 21.2771 34.8934C20.1782 34.6955 19.6337 34.439 19.3693 34.2477C19.0415 34.0104 18.9581 33.8096 18.9581 32.4998Z" fill="#151515"/>
<path id="Vector_3" fill-rule="evenodd" clip-rule="evenodd" d="M18.9007 4.44426C22.0292 3.37275 23.9688 2.7085 26 2.7085C28.0312 2.7085 29.9708 3.37275 33.0993 4.44426L34.6753 4.98378C37.885 6.08243 40.362 6.93029 42.1352 7.65064C43.0283 8.01349 43.7961 8.36495 44.4145 8.72405C45.0097 9.06961 45.6066 9.50065 46.0122 10.0785C46.413 10.6497 46.6204 11.3518 46.7506 12.0278C46.886 12.7305 46.9677 13.5735 47.0204 14.5414C47.125 16.4634 47.125 19.0963 47.125 22.5114V25.9815C47.125 39.2004 37.141 45.5381 31.2037 48.1318L31.145 48.1574C30.4087 48.4791 29.7167 48.7814 28.9215 48.985C28.082 49.2 27.1902 49.2918 26 49.2918C24.8099 49.2918 23.9181 49.2 23.0785 48.985C22.2833 48.7814 21.5913 48.4791 20.8551 48.1574L20.7964 48.1318C14.8591 45.5381 4.875 39.2004 4.875 25.9815V22.5116C4.875 19.0967 4.875 16.4633 4.97965 14.5414C5.03234 13.5735 5.11401 12.7305 5.24942 12.0278C5.37968 11.3518 5.58697 10.6497 5.98786 10.0785C6.39344 9.50065 6.9904 9.06961 7.58546 8.72405C8.2038 8.36495 8.97169 8.01349 9.8649 7.65064C11.638 6.93029 14.115 6.08243 17.3246 4.9838L18.9007 4.44426ZM26 5.9585C24.575 5.9585 23.1727 6.41705 19.6747 7.61448L18.4336 8.0393C15.1563 9.16113 12.7662 9.97994 11.0881 10.6617C10.2505 11.0019 9.64362 11.2871 9.21763 11.5345C9.00731 11.6566 8.8624 11.7574 8.76562 11.8361C8.68357 11.9028 8.65228 11.9406 8.6478 11.9461C8.64361 11.9529 8.61668 11.9979 8.57877 12.1043C8.53545 12.2259 8.48746 12.4002 8.44071 12.6428C8.34609 13.1338 8.27437 13.8084 8.22484 14.7182C8.12561 16.5407 8.125 19.0849 8.125 22.5697V25.9815C8.125 37.1942 16.5098 42.7127 22.0974 45.1535C22.9023 45.5051 23.3671 45.704 23.8845 45.8364C24.3787 45.963 24.9817 46.0418 26 46.0418C27.0183 46.0418 27.6213 45.963 28.1155 45.8364C28.6329 45.704 29.0977 45.5051 29.9026 45.1535C35.4902 42.7127 43.875 37.1942 43.875 25.9815V22.5697C43.875 19.0849 43.8744 16.5407 43.7751 14.7182C43.7257 13.8084 43.654 13.1338 43.5593 12.6428C43.5125 12.4002 43.4646 12.2259 43.4213 12.1043C43.3834 11.9978 43.3563 11.9528 43.3522 11.946C43.3476 11.9405 43.3164 11.9027 43.2343 11.8361C43.1377 11.7574 42.9927 11.6566 42.7824 11.5345C42.3564 11.2871 41.7495 11.0019 40.9119 10.6617C39.2338 9.97994 36.8437 9.16113 33.5664 8.0393L32.3254 7.61448C28.8273 6.41705 27.425 5.9585 26 5.9585Z" fill="#151515"/>
</g>
</svg>
