<svg width="52" height="52" viewBox="0 0 52 52" fill="none" xmlns="http://www.w3.org/2000/svg">
<g id="gift-svgrepo-com 1">
<path id="Vector" fill-rule="evenodd" clip-rule="evenodd" d="M25.8758 2.7085C20.8743 2.70847 16.9547 2.70845 13.8965 3.11962C10.7663 3.54047 8.29622 4.41871 6.35747 6.35747C4.41871 8.29622 3.54047 10.7663 3.11962 13.8965C2.70845 16.9547 2.70847 20.8743 2.7085 25.8758V26.1245C2.70847 31.1261 2.70845 35.0456 3.11962 38.1038C3.54047 41.234 4.41871 43.7042 6.35747 45.6429C8.29622 47.5817 10.7663 48.4598 13.8965 48.8808C16.9547 49.2918 20.8743 49.2918 25.8758 49.2918H26.1245C31.1261 49.2918 35.0456 49.2918 38.1038 48.8808C41.234 48.4598 43.7042 47.5817 45.6429 45.6429C47.5817 43.7042 48.4598 41.234 48.8808 38.1038C49.2918 35.0456 49.2918 31.1261 49.2918 26.1245V25.8758C49.2918 20.8743 49.2918 16.9547 48.8808 13.8965C48.4598 10.7663 47.5817 8.29622 45.6429 6.35747C43.7042 4.41871 41.234 3.54047 38.1038 3.11962C35.0456 2.70845 31.1261 2.70847 26.1245 2.7085H25.8758ZM24.3752 5.9591C20.0555 5.96365 16.8409 6.003 14.3296 6.34063C11.5597 6.71304 9.8898 7.4213 8.65556 8.65556C7.4213 9.8898 6.71304 11.5597 6.34063 14.3296C6.003 16.8409 5.96365 20.0555 5.9591 24.3752H14.98C14.2195 23.4253 13.6514 22.3049 13.3415 21.0656C12.1753 16.4008 16.4008 12.1753 21.0656 13.3415C22.3049 13.6514 23.4253 14.2195 24.3752 14.98V5.9591ZM5.9591 27.6252C5.96365 31.9448 6.003 35.1593 6.34063 37.6707C6.71304 40.4406 7.4213 42.1104 8.65556 43.3448C9.8898 44.5791 11.5597 45.2874 14.3296 45.6596C16.8409 45.9974 20.0555 46.0366 24.3752 46.0412V30.6013C22.686 33.9754 19.1969 36.2918 15.1668 36.2918C14.2694 36.2918 13.5418 35.5643 13.5418 34.6668C13.5418 33.7694 14.2694 33.0418 15.1668 33.0418C18.4965 33.0418 21.2865 30.7309 22.02 27.6252H21.7429H21.7229H5.9591ZM27.6252 46.0412C31.9448 46.0366 35.1593 45.9974 37.6707 45.6596C40.4406 45.2874 42.1104 44.5791 43.3448 43.3448C44.5791 42.1104 45.2874 40.4406 45.6596 37.6707C45.9974 35.1593 46.0366 31.9448 46.0412 27.6252H30.2774H30.2574H29.9803C30.714 30.7309 33.5038 33.0418 36.8335 33.0418C37.7309 33.0418 38.4585 33.7694 38.4585 34.6668C38.4585 35.5643 37.7309 36.2918 36.8335 36.2918C32.8035 36.2918 29.3143 33.9754 27.6252 30.6013V46.0412ZM46.0412 24.3752H37.0205C37.7808 23.4253 38.3491 22.3049 38.6589 21.0656C39.825 16.4008 35.5996 12.1753 30.9347 13.3415C29.6954 13.6514 28.575 14.2195 27.6252 14.98V5.9591C31.9448 5.96365 35.1593 6.003 37.6707 6.34063C40.4406 6.71304 42.1104 7.4213 43.3448 8.65556C44.5791 9.8898 45.2874 11.5597 45.6596 14.3296C45.9974 16.8409 46.0366 20.0555 46.0412 24.3752ZM27.6252 24.3752V21.7299C27.631 19.2529 29.3188 17.0955 31.723 16.4945C34.0075 15.9233 36.0771 17.9928 35.5058 20.2774C34.9049 22.6806 32.7491 24.368 30.2733 24.3752H27.6252ZM24.3752 21.7264C24.3678 19.2509 22.6804 17.0952 20.2774 16.4945C17.9928 15.9233 15.9233 17.9928 16.4945 20.2774C17.0953 22.6806 19.2513 24.368 21.7271 24.3752H24.3752V21.7264Z" fill="#151515"/>
</g>
</svg>
