<svg width="52" height="52" viewBox="0 0 52 52" fill="none" xmlns="http://www.w3.org/2000/svg">
<g id="pallete-2-svgrepo-com 1">
<path id="Vector" fill-rule="evenodd" clip-rule="evenodd" d="M26.0002 5.9585C14.9354 5.9585 5.9585 14.9528 5.9585 26.0567C5.9585 36.3752 13.7122 44.8744 23.6875 46.0228C24.6893 46.138 25.7618 45.7177 26.6194 44.858C27.4026 44.0728 27.4026 42.7979 26.6194 42.0127C25.9436 41.335 25.2659 40.4321 24.8949 39.4058C24.5151 38.3545 24.4213 37.0356 25.192 35.81C25.8916 34.6972 26.9407 34.1013 28.0414 33.8116C29.1013 33.5328 30.2759 33.517 31.4038 33.5854C32.4525 33.6491 33.5815 33.7954 34.6766 33.9373C34.7689 33.9494 34.861 33.9614 34.9528 33.9731C36.1594 34.1288 37.3379 34.2742 38.476 34.3286C40.8037 34.4402 42.5966 34.1468 43.8219 33.145C44.9947 32.1864 46.0418 30.2399 46.0418 26.0567C46.0418 14.9528 37.0649 5.9585 26.0002 5.9585ZM2.7085 26.0567C2.7085 13.1658 13.1325 2.7085 26.0002 2.7085C38.8678 2.7085 49.2918 13.1658 49.2918 26.0567C49.2918 30.7046 48.1288 33.822 45.8789 35.6613C43.6819 37.4573 40.8407 37.6958 38.3205 37.5749C37.0348 37.5134 35.7359 37.3513 34.5366 37.1964C34.4523 37.1856 34.3689 37.1747 34.2857 37.1639C33.1601 37.0183 32.1394 36.8861 31.2071 36.8296C30.197 36.7683 29.4296 36.8071 28.8686 36.9546C28.3482 37.0915 28.0975 37.2943 27.9432 37.5398C27.8592 37.6735 27.8 37.8815 27.9517 38.3014C28.1124 38.7464 28.4632 39.2591 28.9204 39.7175C30.969 41.7713 30.969 45.0993 28.9204 47.1531C27.5116 48.5656 25.4979 49.5026 23.3157 49.2515C11.7124 47.9156 2.7085 38.0386 2.7085 26.0567ZM20.7677 13.5413C19.8702 13.5413 19.1427 14.2689 19.1427 15.1663C19.1427 16.0638 19.8702 16.7913 20.7677 16.7913C21.6651 16.7913 22.3927 16.0638 22.3927 15.1663C22.3927 14.2689 21.6651 13.5413 20.7677 13.5413ZM15.8927 15.1663C15.8927 12.4739 18.0753 10.2913 20.7677 10.2913C23.46 10.2913 25.6427 12.4739 25.6427 15.1663C25.6427 17.8587 23.46 20.0413 20.7677 20.0413C18.0753 20.0413 15.8927 17.8587 15.8927 15.1663ZM31.4168 13.5418C30.5194 13.5418 29.7918 14.2694 29.7918 15.1668C29.7918 16.0643 30.5194 16.7918 31.4168 16.7918C32.3143 16.7918 33.0418 16.0643 33.0418 15.1668C33.0418 14.2694 32.3143 13.5418 31.4168 13.5418ZM26.5418 15.1668C26.5418 12.4744 28.7245 10.2918 31.4168 10.2918C34.1091 10.2918 36.2918 12.4744 36.2918 15.1668C36.2918 17.8592 34.1091 20.0418 31.4168 20.0418C28.7245 20.0418 26.5418 17.8592 26.5418 15.1668ZM14.0835 23.2918C13.186 23.2918 12.4585 24.0194 12.4585 24.9168C12.4585 25.8143 13.186 26.5418 14.0835 26.5418C14.981 26.5418 15.7085 25.8143 15.7085 24.9168C15.7085 24.0194 14.981 23.2918 14.0835 23.2918ZM9.2085 24.9168C9.2085 22.2245 11.3911 20.0418 14.0835 20.0418C16.7759 20.0418 18.9585 22.2245 18.9585 24.9168C18.9585 27.6091 16.7759 29.7918 14.0835 29.7918C11.3911 29.7918 9.2085 27.6091 9.2085 24.9168ZM37.9168 23.2918C37.0194 23.2918 36.2918 24.0194 36.2918 24.9168C36.2918 25.8143 37.0194 26.5418 37.9168 26.5418C38.8143 26.5418 39.5418 25.8143 39.5418 24.9168C39.5418 24.0194 38.8143 23.2918 37.9168 23.2918ZM33.0418 24.9168C33.0418 22.2245 35.2245 20.0418 37.9168 20.0418C40.6091 20.0418 42.7918 22.2245 42.7918 24.9168C42.7918 27.6091 40.6091 29.7918 37.9168 29.7918C35.2245 29.7918 33.0418 27.6091 33.0418 24.9168Z" fill="#151515"/>
</g>
</svg>
