<svg width="52" height="52" viewBox="0 0 52 52" fill="none" xmlns="http://www.w3.org/2000/svg">
<g id="cpu-svgrepo-com 1">
<path id="Vector" fill-rule="evenodd" clip-rule="evenodd" d="M19.5002 2.7085C20.3976 2.7085 21.1252 3.43604 21.1252 4.3335V7.06939C22.1348 7.04998 23.2169 7.04423 24.3752 7.04252V4.3335C24.3752 3.43604 25.1027 2.7085 26.0002 2.7085C26.8976 2.7085 27.6252 3.43604 27.6252 4.3335V7.04252C28.7835 7.04423 29.8655 7.04998 30.8752 7.06939V4.3335C30.8752 3.43604 31.6027 2.7085 32.5002 2.7085C33.3976 2.7085 34.1252 3.43604 34.1252 4.3335V7.20886C34.6883 7.2518 35.2217 7.30577 35.7263 7.37361C38.2665 7.71514 40.3227 8.43474 41.9442 10.0562C43.5655 11.6777 44.2851 13.7337 44.6268 16.274C44.6946 16.7786 44.7485 17.312 44.7914 17.8752H47.6668C48.5643 17.8752 49.2918 18.6027 49.2918 19.5002C49.2918 20.3976 48.5643 21.1252 47.6668 21.1252H44.931C44.9503 22.1348 44.9561 23.2169 44.9578 24.3752H47.6668C48.5643 24.3752 49.2918 25.1027 49.2918 26.0002C49.2918 26.8976 48.5643 27.6252 47.6668 27.6252H44.9578C44.9561 28.7835 44.9503 29.8655 44.931 30.8752H47.6668C48.5643 30.8752 49.2918 31.6027 49.2918 32.5002C49.2918 33.3976 48.5643 34.1252 47.6668 34.1252H44.7914C44.7485 34.6883 44.6946 35.2217 44.6268 35.7263C44.2851 38.2665 43.5655 40.3227 41.9442 41.9442C40.3227 43.5655 38.2665 44.2851 35.7263 44.6268C35.2217 44.6946 34.6883 44.7485 34.1252 44.7914V47.6668C34.1252 48.5643 33.3976 49.2918 32.5002 49.2918C31.6027 49.2918 30.8752 48.5643 30.8752 47.6668V44.931C29.8655 44.9503 28.7835 44.9561 27.6252 44.9578V47.6668C27.6252 48.5643 26.8976 49.2918 26.0002 49.2918C25.1027 49.2918 24.3752 48.5643 24.3752 47.6668V44.9578C23.2169 44.9561 22.1348 44.9503 21.1252 44.931V47.6668C21.1252 48.5643 20.3976 49.2918 19.5002 49.2918C18.6027 49.2918 17.8752 48.5643 17.8752 47.6668V44.7914C17.312 44.7485 16.7786 44.6946 16.274 44.6268C13.7337 44.2851 11.6777 43.5655 10.0562 41.9442C8.43474 40.3227 7.71514 38.2665 7.37361 35.7263C7.30577 35.2217 7.2518 34.6883 7.20886 34.1252H4.3335C3.43604 34.1252 2.7085 33.3976 2.7085 32.5002C2.7085 31.6027 3.43604 30.8752 4.3335 30.8752H7.06939C7.04998 29.8655 7.04423 28.7835 7.04252 27.6252H4.3335C3.43604 27.6252 2.7085 26.8976 2.7085 26.0002C2.7085 25.1027 3.43604 24.3752 4.3335 24.3752H7.04252C7.04423 23.2169 7.04998 22.1348 7.06939 21.1252H4.3335C3.43604 21.1252 2.7085 20.3976 2.7085 19.5002C2.7085 18.6027 3.43604 17.8752 4.3335 17.8752H7.20886C7.2518 17.312 7.30577 16.7786 7.37361 16.274C7.71514 13.7337 8.43474 11.6777 10.0562 10.0562C11.6777 8.43474 13.7337 7.71514 16.274 7.37361C16.7786 7.30577 17.312 7.2518 17.8752 7.20886V4.3335C17.8752 3.43604 18.6027 2.7085 19.5002 2.7085ZM16.707 10.5946C14.5271 10.8877 13.2712 11.4373 12.3543 12.3543C11.4373 13.2712 10.8877 14.5271 10.5946 16.707C10.2953 18.9336 10.2918 21.8688 10.2918 26.0002C10.2918 30.1316 10.2953 33.0667 10.5946 35.2934C10.8877 37.4731 11.4373 38.7291 12.3543 39.646C13.2712 40.563 14.5271 41.1127 16.707 41.4056C18.9336 41.705 21.8688 41.7085 26.0002 41.7085C30.1316 41.7085 33.0667 41.705 35.2934 41.4056C37.4731 41.1127 38.7291 40.563 39.646 39.646C40.563 38.7291 41.1127 37.4731 41.4056 35.2934C41.705 33.0667 41.7085 30.1316 41.7085 26.0002C41.7085 21.8688 41.705 18.9336 41.4056 16.707C41.1127 14.5271 40.563 13.2712 39.646 12.3543C38.7291 11.4373 37.4731 10.8877 35.2934 10.5946C33.0667 10.2953 30.1316 10.2918 26.0002 10.2918C21.8688 10.2918 18.9336 10.2953 16.707 10.5946ZM21.5599 13.5418H30.4405C31.8809 13.5417 33.1222 13.5417 34.1161 13.6753C35.1814 13.8185 36.2023 14.1415 37.0307 14.9697C37.8588 15.7979 38.1818 16.819 38.325 17.8842C38.4587 18.8781 38.4585 20.1193 38.4585 21.5599V30.4405C38.4585 31.8809 38.4587 33.1222 38.325 34.1161C38.1818 35.1814 37.8588 36.2023 37.0307 37.0307C36.2023 37.8588 35.1814 38.1818 34.1161 38.325C33.1222 38.4587 31.8809 38.4585 30.4405 38.4585H21.5599C20.1193 38.4585 18.8781 38.4587 17.8842 38.325C16.819 38.1818 15.7979 37.8588 14.9697 37.0307C14.1415 36.2023 13.8185 35.1814 13.6753 34.1161C13.5417 33.1222 13.5417 31.8809 13.5418 30.4405V21.5599C13.5417 20.1193 13.5417 18.8781 13.6753 17.8842C13.8185 16.819 14.1415 15.7979 14.9697 14.9697C15.7979 14.1415 16.819 13.8185 17.8842 13.6753C18.8781 13.5417 20.1193 13.5417 21.5599 13.5418ZM18.3172 16.8963C17.6124 16.9911 17.3915 17.1441 17.2678 17.2678C17.1441 17.3915 16.9911 17.6124 16.8963 18.3172C16.7953 19.0688 16.7918 20.0888 16.7918 21.6668V30.3335C16.7918 31.9115 16.7953 32.9315 16.8963 33.6832C16.9911 34.388 17.1441 34.6088 17.2678 34.7325C17.3915 34.8562 17.6124 35.0092 18.3172 35.1041C19.0688 35.205 20.0888 35.2085 21.6668 35.2085H30.3335C31.9115 35.2085 32.9315 35.205 33.6832 35.1041C34.388 35.0092 34.6088 34.8562 34.7325 34.7325C34.8562 34.6088 35.0092 34.388 35.1041 33.6832C35.205 32.9315 35.2085 31.9115 35.2085 30.3335V21.6668C35.2085 20.0888 35.205 19.0688 35.1041 18.3172C35.0092 17.6124 34.8562 17.3915 34.7325 17.2678C34.6088 17.1441 34.388 16.9911 33.6832 16.8963C32.9315 16.7953 31.9115 16.7918 30.3335 16.7918H21.6668C20.0888 16.7918 19.0688 16.7953 18.3172 16.8963Z" fill="#151515"/>
</g>
</svg>
