<svg width="100" height="100" viewBox="0 0 100 100" fill="none" xmlns="http://www.w3.org/2000/svg">
<mask id="mask0_270_2654" style="mask-type:luminance" maskUnits="userSpaceOnUse" x="0" y="23" width="100" height="54">
<path d="M100 23H0V77H100V23Z" fill="white"/>
</mask>
<g mask="url(#mask0_270_2654)">
<path d="M43.442 23.0463C43.3958 23.0926 39.8433 23.1544 35.5373 23.1699L27.7095 23.2008L27.8172 26.2291C27.9402 29.69 28.0632 32.8574 28.1401 34.2016C28.1708 34.7115 28.2016 35.2523 28.2016 35.3914C28.217 35.7467 28.4938 35.7622 35.0759 36.133C47.0559 36.7973 53.069 36.8128 63.588 36.2102C65.741 36.0866 68.2785 35.9321 69.2012 35.8858C71.3388 35.7622 71.7233 35.7313 71.8002 35.6539C71.8618 35.5767 72.2154 27.0943 72.2616 24.8076L72.277 23.3089L71.0466 23.2317C68.9859 23.139 43.5188 22.9536 43.442 23.0463Z" fill="white"/>
<path d="M16.9146 23.4176C13.5774 23.4948 6.68775 23.8038 5.22678 23.9274C3.043 24.1437 2.15103 24.4527 1.27445 25.3334C0.197939 26.415 0.0287731 27.1412 0.105667 30.5712C0.136424 32.1472 0.213318 33.3987 0.30559 33.4914C0.397862 33.5686 1.08991 33.6768 1.84346 33.7386C2.61239 33.785 3.95034 33.8931 4.84231 33.9703C6.70313 34.1403 7.13373 34.1712 12.301 34.5883C14.4232 34.7428 16.8377 34.9283 17.6835 34.9746C18.5294 35.021 20.0518 35.1291 21.0668 35.2064C22.0818 35.2991 23.4967 35.3918 24.2195 35.4536C24.9423 35.4999 25.7881 35.5618 26.111 35.5927L26.6801 35.639V34.9283C26.6801 34.5266 26.5724 32.039 26.4494 29.4124C26.3263 26.7703 26.2187 24.3291 26.2187 23.9583V23.2939L22.3432 23.3403C20.2056 23.3712 17.7604 23.4021 16.9146 23.4176Z" fill="white"/>
<path d="M73.5992 28.6555C73.4916 31.622 73.384 34.3568 73.3531 34.7276C73.3224 35.1139 73.3224 35.4537 73.3531 35.5156C73.384 35.5619 74.0452 35.5619 74.8449 35.5001C75.6292 35.4383 76.9979 35.3456 77.8899 35.2992C78.7818 35.2375 79.8584 35.1601 80.2736 35.1293C80.7041 35.0984 81.5962 35.0365 82.2728 34.9903C84.1029 34.8667 93.2074 34.1404 96.7285 33.8469L99.8047 33.5842L99.8964 32.6572C100.082 30.7877 99.9432 27.4503 99.6506 26.6469C99.2974 25.658 98.4359 24.8082 97.39 24.422C95.9139 23.8658 90.7618 23.5567 79.7199 23.3713L73.7992 23.2632L73.5992 28.6555Z" fill="white"/>
<path d="M0.458726 35.702C0.87395 38.4059 1.53524 40.2599 2.53485 41.5887C4.38029 44.0298 7.70209 45.6676 13.9766 47.1818C18.1443 48.1861 27.7252 50.0711 27.8174 49.9011C27.8482 49.8548 27.7559 48.3406 27.6022 46.5637C27.4483 44.7715 27.2023 41.9286 27.0639 40.229C26.9255 38.5295 26.8024 37.1388 26.787 37.1235C26.7717 37.108 24.5418 36.9535 21.8351 36.768C19.1285 36.5827 16.5756 36.3972 16.145 36.3664C15.7298 36.3355 14.8532 36.2582 14.2226 36.2119C13.5922 36.1655 12.6848 36.1037 12.2234 36.0573C11.7621 36.0109 10.9316 35.9492 10.3779 35.9028C5.76438 35.5629 1.28917 35.1921 0.87395 35.1148L0.351074 35.0376L0.458726 35.702Z" fill="white"/>
<path d="M96.2691 35.3606C94.5774 35.5151 92.5783 35.685 91.8095 35.7469C91.0557 35.7933 90.1484 35.8705 89.81 35.9014C89.4717 35.9322 88.6105 35.9941 87.8877 36.0559C87.1649 36.1022 86.2421 36.1795 85.8116 36.2104C84.8581 36.3031 84.2122 36.3494 78.1991 36.7666C75.5386 36.952 73.3241 37.122 73.3087 37.1529C73.2472 37.1992 72.2014 48.8335 72.2014 49.5134V49.9924L74.9388 49.4979C76.4459 49.2198 79.3987 48.6327 81.5055 48.1846C90.3637 46.3306 93.8544 45.0636 96.2847 42.8696C98.0682 41.2473 98.8223 39.764 99.4067 36.7048C99.6682 35.3142 99.6682 35.0207 99.437 35.067C99.3911 35.0825 97.9609 35.2215 96.2691 35.3606Z" fill="white"/>
<path d="M28.418 38.6364C28.541 40.5832 29.2792 49.2201 29.3715 49.8228L29.4483 50.2862L31.5705 50.6416C34.9539 51.1978 40.521 52.0012 43.5967 52.3721C47.2876 52.8201 52.4394 52.8511 55.8228 52.4648C60.9285 51.8622 70.325 50.4253 70.5402 50.209C70.5863 50.1626 70.6786 49.73 70.7248 49.2665C70.8171 48.3549 70.8171 48.324 71.2784 42.7C71.4475 40.6605 71.6321 38.5901 71.6783 38.0802L71.7705 37.1841L70.1096 37.2922C69.1869 37.354 68.1258 37.4158 67.7413 37.4468C67.3568 37.4777 66.1572 37.5394 65.05 37.6013C63.9582 37.663 62.7894 37.7249 62.4664 37.7557C58.2834 38.142 42.8585 38.142 37.5221 37.7557C37.1069 37.7249 35.9535 37.663 34.9847 37.6013C34.0158 37.5549 32.8009 37.4777 32.2934 37.4468C31.7859 37.4158 30.6786 37.3386 29.8482 37.2922L28.3257 37.1841L28.418 38.6364Z" fill="white"/>
<path d="M1.24422 62.7539C0.0754393 63.4182 0.0754395 63.4646 0.0754395 69.6602C0.0754395 75.856 0.0754393 75.9023 1.24422 76.5667L1.84399 76.9221H10.4253H18.9913V72.6732V68.4242L12.809 68.4551L6.61138 68.5014V69.6602V70.8191L11.5018 70.8654L16.3769 70.8964V72.6732V74.45H9.5333H2.68981V69.6602C2.68981 67.0182 2.73595 64.8706 2.81285 64.8706C2.87437 64.8706 6.51912 64.8551 10.9174 64.8242L18.9143 64.7934L18.9605 63.5882L19.0066 62.3984H10.4253H1.84399L1.24422 62.7539Z" fill="white"/>
<path d="M23.2979 68.78C23.2979 75.98 23.2825 75.9027 24.4821 76.5671C25.0972 76.9225 25.0972 76.9225 33.3863 76.9225L41.6755 76.9379V75.7328V74.5276L33.8015 74.4812L25.9123 74.4504V72.6736V70.8968L33.5709 70.8659L41.2141 70.8195V69.6607V68.5019L33.5555 68.4556L25.8969 68.4246L25.943 66.6324L25.9891 64.8555L33.8323 64.8246L41.6755 64.7937L41.7216 63.5886L41.7677 62.3989H32.5251H23.2979V68.78Z" fill="white"/>
<path d="M45.6274 68.9186C45.6736 75.1762 45.6889 75.4698 45.9811 75.8715C46.1503 76.1032 46.5348 76.4276 46.8423 76.5976C47.396 76.9221 47.5959 76.9221 55.7312 76.9221H64.0511V75.686V74.45H56.1311H48.211V72.6732V70.8964L55.8696 70.8654L63.5129 70.8191L63.559 69.614L63.6052 68.4242H55.9004H48.1957L48.2418 66.6474L48.2879 64.8551L56.1311 64.8242L63.9742 64.7934L64.0204 63.5882L64.0665 62.3984H54.8239H45.5813L45.6274 68.9186Z" fill="white"/>
<path d="M68.0476 68.826C68.0476 75.0989 68.0629 75.2843 68.3705 75.7942C68.555 76.0723 68.9549 76.4431 69.2933 76.6131C69.8469 76.9066 70.216 76.9221 77.121 76.9221H84.349V75.686V74.45H77.5055H70.6619V68.4242V62.3984H69.3548H68.0476V68.826Z" fill="white"/>
<path d="M83.9336 66.8487L88.3474 71.283V74.0796C88.3474 75.6092 88.3781 76.907 88.4089 76.938C88.4396 76.9689 89.0394 76.9843 89.716 76.9534L90.9617 76.8916V74.1723V71.4375L95.4522 66.926L99.9586 62.3989H98.2668H96.5751L93.1613 65.8289L89.7314 69.2744L86.302 65.8289L82.8879 62.3989H81.1963H79.5046L83.9336 66.8487Z" fill="white"/>
</g>
</svg>
