<svg width="100" height="100" viewBox="0 0 100 100" fill="none" xmlns="http://www.w3.org/2000/svg">
<path d="M2.99905 51.0563C2.98982 51.7107 2.89091 52.7881 3.25227 53.2981C3.58198 53.762 4.02511 53.8323 4.62519 53.8323C9.12596 53.8306 13.6263 53.8315 18.1262 53.8349C18.1693 53.8349 18.1908 53.8558 18.1908 53.8975L18.1895 55.9105C18.1895 55.9298 18.1817 55.9483 18.1679 55.962C18.154 55.9757 18.1352 55.9833 18.1156 55.9833C13.1181 55.985 8.16496 55.9867 3.25623 55.9885C2.57482 55.9885 2.09652 55.9471 1.82132 55.8645C0.90077 55.5897 0.191232 54.7845 0.0382466 53.8604C0.0171451 53.7301 0.00615473 53.3066 0.0052755 52.59C0.00263781 50.6082 0.000879229 48.6263 0 46.6444C0 45.1541 1.19092 43.9924 2.73001 44C7.86558 44.0256 13.0007 44.0392 18.1354 44.0409C18.1732 44.0409 18.1921 44.0593 18.1921 44.0959L18.1869 46.0935C18.1869 46.1395 18.1631 46.1626 18.1156 46.1626C13.6404 46.1694 9.16772 46.1698 4.69772 46.1638C2.79595 46.1613 3.00565 47.378 3.00696 48.7916C3.00696 48.8051 3.01266 48.8181 3.0228 48.8277C3.03294 48.8373 3.0467 48.8427 3.06104 48.8427L17.0025 48.8376C17.0077 48.8376 17.0129 48.8386 17.0177 48.8406C17.0225 48.8426 17.0268 48.8455 17.0305 48.8492C17.0342 48.8529 17.0371 48.8572 17.0391 48.862C17.0411 48.8668 17.0421 48.872 17.0421 48.8772L17.05 50.9221C17.05 50.9408 17.0424 50.9587 17.0288 50.9718C17.0152 50.985 16.9967 50.9924 16.9775 50.9924L3.06236 50.995C3.02015 50.995 2.99905 51.0154 2.99905 51.0563Z" fill="white"/>
<path d="M32.0426 50.0058C32.0558 50.039 32.0782 50.0676 32.1099 50.0914C34.6966 52.0341 37.285 53.9836 39.8752 55.9399C39.9139 55.9698 39.9086 55.9847 39.8594 55.9847L36.1482 55.9872C36.0122 55.9872 35.88 55.9436 35.7723 55.8632L30.0419 51.5497C30.0279 51.5391 30.0106 51.5334 29.9928 51.5334C29.9749 51.5334 29.9574 51.5391 29.943 51.5497C28.0325 52.9863 26.1153 54.4275 24.1915 55.8735C24.079 55.9578 23.926 56 23.7326 56C22.5149 55.9991 21.3086 55.9936 20.1137 55.9834C20.1085 55.9832 20.1036 55.9815 20.0995 55.9785C20.0953 55.9755 20.0923 55.9713 20.0907 55.9666C20.0891 55.9618 20.0891 55.9567 20.0906 55.952C20.0921 55.9472 20.0951 55.943 20.0992 55.9399L27.9239 50.0582C27.9318 50.0522 27.9382 50.0446 27.9427 50.0358C27.9471 50.0271 27.9494 50.0175 27.9494 50.0077C27.9494 49.998 27.9471 49.9884 27.9427 49.9796C27.9382 49.9709 27.9318 49.9632 27.9239 49.9572L20.1348 44.1036C20.068 44.0533 20.0772 44.0286 20.1625 44.0295L23.8275 44.041C23.9772 44.0418 24.1222 44.0903 24.2403 44.179L29.9008 48.435C29.9624 48.481 30.0239 48.4806 30.0855 48.4338C31.9415 47.0338 33.805 45.6301 35.676 44.2225C35.844 44.0964 36.0611 44.0329 36.3275 44.032C37.511 44.0295 38.6751 44.0291 39.8198 44.0308C39.9051 44.0308 39.9139 44.0563 39.8462 44.1074L32.0584 49.9547C32.04 49.9683 32.0347 49.9853 32.0426 50.0058Z" fill="white"/>
<path d="M44.8697 48.844L58.7782 48.8427C58.8248 48.8427 58.8481 48.8653 58.8481 48.9105L58.8468 50.9286C58.8468 50.972 58.8244 50.9937 58.7795 50.9937L44.8657 50.9925C44.8191 50.9925 44.7958 51.015 44.7958 51.0602C44.7972 51.8871 44.5756 53.1537 45.4421 53.6458C45.661 53.7702 46.0377 53.8324 46.5723 53.8324C51.0221 53.8324 55.4635 53.8328 59.8966 53.8336C59.9204 53.8336 59.9432 53.8428 59.96 53.8591C59.9768 53.8754 59.9863 53.8975 59.9863 53.9205L59.985 55.9489C59.985 55.9577 59.9813 55.9661 59.9749 55.9724C59.9685 55.9786 59.9598 55.9821 59.9507 55.9821C54.9065 55.9855 49.8584 55.9872 44.8064 55.9872C43.5297 55.9872 42.4707 55.5948 42.0052 54.4024C41.8698 54.0556 41.8016 53.4558 41.8007 52.6028C41.7981 50.5843 41.7977 48.5662 41.7994 46.5486C41.7994 45.4801 42.5789 44.4257 43.6709 44.1304C43.9232 44.0623 44.3725 44.0278 45.0187 44.0269C49.9987 44.0261 54.9703 44.0261 59.9335 44.0269C59.9486 44.0269 59.963 44.0327 59.9736 44.043C59.9843 44.0533 59.9902 44.0673 59.9902 44.0819L59.985 46.1076C59.985 46.1225 59.979 46.1368 59.9683 46.1474C59.9577 46.1579 59.9433 46.1639 59.9282 46.1639C55.453 46.1656 50.9773 46.1656 46.5011 46.1639C45.7467 46.1639 45.1466 46.3326 44.8921 47.0291C44.7299 47.4726 44.8077 48.2331 44.8051 48.7814C44.8051 48.8231 44.8266 48.844 44.8697 48.844Z" fill="white"/>
<path d="M64.9161 48.8466L78.8444 48.844C78.8539 48.844 78.8629 48.8476 78.8696 48.8541C78.8763 48.8606 78.88 48.8694 78.88 48.8785L78.8748 50.9503C78.8748 50.9618 78.87 50.9729 78.8616 50.981C78.8532 50.9892 78.8418 50.9937 78.8299 50.9937L64.9135 50.9899C64.9012 50.9899 64.889 50.9922 64.8776 50.9968C64.8663 51.0014 64.856 51.008 64.8473 51.0165C64.8386 51.0249 64.8317 51.0349 64.827 51.0459C64.8223 51.0569 64.8198 51.0687 64.8198 51.0806C64.8067 52.3779 64.5442 53.8349 66.4091 53.8349C70.9072 53.8332 75.4009 53.8332 79.8903 53.8349C79.9144 53.8349 79.9376 53.8441 79.9546 53.8604C79.9717 53.8767 79.9813 53.8988 79.9813 53.9218L79.9865 55.9399C79.9865 55.9454 79.9854 55.9509 79.9832 55.9561C79.9811 55.9612 79.9778 55.9658 79.9738 55.9697C79.9698 55.9737 79.965 55.9768 79.9597 55.9789C79.9544 55.981 79.9487 55.9821 79.943 55.9821C74.8778 55.9829 69.8196 55.9825 64.7684 55.9808C64.2259 55.9808 63.8039 55.925 63.5023 55.8134C62.7901 55.5484 62.3 55.0785 62.0318 54.4037C61.9034 54.0824 61.8375 53.5887 61.834 52.9224C61.8234 50.9098 61.823 48.8981 61.8327 46.8873C61.8379 45.6539 62.285 44.6161 63.53 44.1994C63.8791 44.0819 64.5442 44.0239 65.5254 44.0256C70.3357 44.0316 75.1438 44.0324 79.9496 44.0282C79.958 44.0282 79.9661 44.0313 79.972 44.0368C79.9779 44.0423 79.9813 44.0498 79.9813 44.0576L79.98 46.0744C79.98 46.134 79.9496 46.1639 79.889 46.1639C75.4295 46.1647 71.0061 46.1651 66.6188 46.1651C66.0868 46.1651 65.7087 46.2278 65.4846 46.353C64.6629 46.8093 64.7842 47.8509 64.8449 48.7814C64.8475 48.8248 64.8713 48.8466 64.9161 48.8466Z" fill="white"/>
<path d="M81.8263 44.1074C81.8263 44.0957 81.8287 44.0841 81.8334 44.0732C81.838 44.0623 81.8448 44.0525 81.8534 44.0442C81.8619 44.0359 81.8721 44.0293 81.8833 44.0248C81.8945 44.0203 81.9065 44.018 81.9187 44.018H97.1777C97.9262 44.018 98.6441 44.2944 99.1734 44.7865C99.7027 45.2786 100 45.946 100 46.6419V53.3697C100 54.0656 99.7027 54.733 99.1734 55.2251C98.6441 55.7172 97.9262 55.9936 97.1777 55.9936H81.9187C81.9065 55.9936 81.8945 55.9913 81.8833 55.9868C81.8721 55.9823 81.8619 55.9757 81.8534 55.9674C81.8448 55.9591 81.838 55.9492 81.8334 55.9384C81.8287 55.9275 81.8263 55.9159 81.8263 55.9041V44.1074ZM84.8069 46.2572V53.7416C84.8069 53.7681 84.8178 53.7934 84.8371 53.8121C84.8564 53.8308 84.8825 53.8413 84.9098 53.8413H95.5027C95.9015 53.8413 96.2839 53.6928 96.5659 53.4284C96.8478 53.164 97.0062 52.8055 97.0062 52.4316V47.5672C97.0062 47.1933 96.8478 46.8348 96.5659 46.5704C96.2839 46.306 95.9015 46.1575 95.5027 46.1575H84.9098C84.8825 46.1575 84.8564 46.168 84.8371 46.1867C84.8178 46.2054 84.8069 46.2307 84.8069 46.2572Z" fill="white"/>
</svg>
