<svg width="48" height="48" viewBox="0 0 48 48" fill="none" xmlns="http://www.w3.org/2000/svg">
<path d="M0 24C0 4.236 4.236 0 24 0C43.764 0 48 4.236 48 24C48 43.764 43.764 48 24 48C4.236 48 0 43.764 0 24Z" fill="#151515"/>
<path d="M19.7854 15.9257C19.597 15.6137 19.3992 15.3223 19.2026 15.057C20.5496 14.0777 22.2074 13.5 24.0002 13.5C25.5402 13.5 26.9807 13.9263 28.21 14.6672C28.1923 14.7712 28.1672 14.889 28.1324 15.0201C28.0092 15.4857 27.8153 15.9301 27.6505 16.1895C27.5937 16.279 27.36 16.5074 26.936 16.8233C26.747 16.9641 26.5371 17.0934 26.2872 17.2428L26.2005 17.2945C25.9818 17.4249 25.7314 17.574 25.4902 17.7394C24.9208 18.1294 24.3279 18.6566 23.9292 19.5092C23.6408 20.1258 23.6606 20.7264 23.7881 21.208C23.8298 21.3652 23.8526 21.5235 23.853 21.6626C23.8531 21.7059 23.8362 21.7749 23.7396 21.8555C23.6357 21.9424 23.4894 21.9947 23.358 21.9933C22.1015 21.9791 21.1104 20.9384 20.9665 19.2782C20.8572 18.0164 20.3417 16.847 19.7854 15.9257Z" fill="white"/>
<path d="M29.4269 26.9271C29.7354 26.9239 30.0249 26.9036 30.2963 26.8679C29.2724 28.1061 27.8902 29.0371 26.3088 29.5024C26.2546 29.0574 26.2902 28.5227 26.5524 28.0286C26.7763 27.6067 27.3432 27.2897 28.1084 27.1016C28.4599 27.0152 28.7942 26.9708 29.0424 26.9485C29.1655 26.9376 29.2645 26.9322 29.3304 26.9295C29.3633 26.9282 29.3877 26.9277 29.4025 26.9274L29.4166 26.9272L29.4269 26.9271Z" fill="white"/>
<path d="M15.8335 21.6665C15.8335 19.6606 16.5567 17.8236 17.7566 16.402C17.8746 16.5694 17.993 16.749 18.1075 16.9386C18.5758 17.7143 18.9396 18.5908 19.0138 19.4472C19.213 21.7468 20.7422 23.9237 23.3357 23.9531C24.4578 23.9658 25.8165 23.1224 25.8129 21.6576C25.8121 21.3222 25.7594 20.9953 25.6828 20.7062C25.646 20.5671 25.6512 20.4534 25.7045 20.3394C25.9035 19.914 26.1971 19.6306 26.5979 19.3561C26.7845 19.2282 26.9785 19.1125 27.2029 18.9787L27.2927 18.925C27.5439 18.7749 27.8303 18.601 28.1071 18.3948C28.5093 18.0951 29.0293 17.6741 29.3048 17.2404C29.5229 16.8972 29.725 16.457 29.8816 16.0005C31.2966 17.469 32.1668 19.4661 32.1668 21.6665C32.1668 22.2875 32.0975 22.8924 31.9662 23.4738C31.8875 23.7067 31.7895 23.9242 31.613 24.1533C31.3363 24.5124 30.7821 24.9527 29.4067 24.967H29.3997L29.3662 24.9676C29.3386 24.9681 29.3006 24.969 29.2533 24.9709C29.1589 24.9746 29.027 24.9819 28.8676 24.9963C28.5511 25.0246 28.1143 25.0817 27.6409 25.198C26.7563 25.4155 25.4583 25.9094 24.8214 27.1097C24.3188 28.0567 24.2622 29.0289 24.3754 29.8247C24.251 29.8304 24.1259 29.8332 24.0002 29.8332C19.4898 29.8332 15.8335 26.1768 15.8335 21.6665Z" fill="white"/>
<path fill-rule="evenodd" clip-rule="evenodd" d="M31.0039 11.75C31.3262 11.3899 31.8794 11.3592 32.2394 11.6815C34.8785 14.0436 36.5415 17.479 36.5415 21.3017C36.5415 28.0116 31.4212 33.5256 24.8748 34.1497V34.7918H26.3332C26.8164 34.7918 27.2082 35.1836 27.2082 35.6668C27.2082 36.1501 26.8164 36.5418 26.3332 36.5418H21.6665C21.1833 36.5418 20.7915 36.1501 20.7915 35.6668C20.7915 35.1836 21.1833 34.7918 21.6665 34.7918H23.1248V34.1986C19.5073 34.058 16.2711 32.4277 14.0145 29.9064C13.6922 29.5464 13.7229 28.9931 14.083 28.6709C14.4431 28.3486 14.9962 28.3792 15.3185 28.7394C17.3626 31.0233 20.3305 32.4585 23.6347 32.4585C29.7964 32.4585 34.7915 27.4634 34.7915 21.3017C34.7915 17.9975 33.3563 15.0296 31.0724 12.9855C30.7123 12.6632 30.6816 12.11 31.0039 11.75Z" fill="white"/>
</svg>
