<svg width="48" height="48" viewBox="0 0 48 48" fill="none" xmlns="http://www.w3.org/2000/svg">
<path d="M0 24C0 4.236 4.236 0 24 0C43.764 0 48 4.236 48 24C48 43.764 43.764 48 24 48C4.236 48 0 43.764 0 24Z" fill="#151515"/>
<path d="M34.5 29.6341V23.023C34.5 21.8055 34.5 21.1967 34.1697 20.7384C33.9028 20.3682 33.4747 20.1714 32.7111 19.9065C32.5549 21.7804 31.9344 23.6941 30.9597 25.369C29.8249 27.3192 28.1398 29.0628 25.9798 30.0051C24.721 30.5543 23.279 30.5543 22.0202 30.0051C19.8602 29.0628 18.175 27.3192 17.0402 25.369C16.301 24.0985 15.7654 22.6908 15.4817 21.2672C15.0354 21.2014 14.6929 21.2352 14.3974 21.4001C14.2794 21.4659 14.1695 21.5451 14.0698 21.6362C13.5 22.1566 13.5 23.1243 13.5 25.0596V30.811C13.5 32.0285 13.5 32.6373 13.8303 33.0955C14.1606 33.5539 14.7382 33.7464 15.8932 34.1314L16.3407 34.2805C18.1805 34.8938 19.1004 35.2004 20.0414 35.2022C20.3248 35.2028 20.6078 35.1827 20.8883 35.1421C21.8195 35.0072 22.6944 34.5697 24.444 33.695C25.7849 33.0245 26.4554 32.6893 27.1675 32.5338C27.4174 32.4792 27.6707 32.4411 27.9256 32.4198C28.6521 32.359 29.385 32.4812 30.8508 32.7255C32.3364 32.973 33.0791 33.0968 33.6215 32.7854C33.8056 32.6796 33.969 32.5412 34.1037 32.377C34.5 31.8932 34.5 31.1402 34.5 29.6341Z" fill="white"/>
<path fill-rule="evenodd" clip-rule="evenodd" d="M24 12.3333C20.134 12.3333 17 15.3107 17 18.9836C17 22.6277 19.2342 26.8801 22.7199 28.4007C23.5325 28.7553 24.4675 28.7553 25.2801 28.4007C28.7658 26.8801 31 22.6277 31 18.9836C31 15.3107 27.866 12.3333 24 12.3333ZM24 21.6666C25.2887 21.6666 26.3333 20.6219 26.3333 19.3333C26.3333 18.0446 25.2887 16.9999 24 16.9999C22.7113 16.9999 21.6667 18.0446 21.6667 19.3333C21.6667 20.6219 22.7113 21.6666 24 21.6666Z" fill="white"/>
</svg>
