<svg width="40" height="40" viewBox="0 0 40 40" fill="none" xmlns="http://www.w3.org/2000/svg">
<g id="VL.RU">
<rect width="40" height="40" rx="10" fill="#F97D41"/>
<g id="Group 2408">
<path id="U" fill-rule="evenodd" clip-rule="evenodd" d="M33 14V24.5926H32C31.4669 24.5926 31.0324 24.1917 31.0029 23.6869L31 14H29V23.12C29 24.7105 30.3433 26 32 26H35V22.6454V14H33Z" fill="white"/>
<path id="R" fill-rule="evenodd" clip-rule="evenodd" d="M28 16.88C28 15.2894 26.6569 14 25 14H22V26H24V22.7429V20.75H25C25.5333 20.75 25.9677 21.1528 25.9972 21.6575L26 26H28V22.055C28 21.1816 27.5945 20.3996 26.955 19.8715C27.5945 19.3432 28 18.5613 28 17.688V16.88ZM25.8027 18.9312C25.6147 19.1343 25.3381 19.2633 25.0283 19.2633H24V15.5H25.0283C25.3464 15.5 25.6291 15.6358 25.8172 15.8483C25.8366 15.8703 25.8542 15.8921 25.8709 15.9147C26.1082 16.2251 26.2659 16.7659 26.2659 17.3827C26.2659 18.0222 26.0964 18.5796 25.8444 18.8834C25.8389 18.8902 25.8111 18.9223 25.8027 18.9312Z" fill="white"/>
<path id="point" fill-rule="evenodd" clip-rule="evenodd" d="M18.5 24H21V26H18.5V24Z" fill="white"/>
<path id="L" fill-rule="evenodd" clip-rule="evenodd" d="M14.875 14H13V26H17.5V24.125H14.875V14Z" fill="white"/>
<path id="V" fill-rule="evenodd" clip-rule="evenodd" d="M8.25 21.0632L6.89497 14H5L7.30216 26H9.19784L11.5 14H9.60503L8.25 21.0632Z" fill="white"/>
</g>
</g>
</svg>
