<svg width="100" height="100" viewBox="0 0 100 100" fill="none" xmlns="http://www.w3.org/2000/svg">
<path d="M50 18.75C22.388 18.75 0 32.7405 0 49.9937C0 67.2532 22.388 81.25 50 81.25C77.612 81.25 100 67.2595 100 49.9937C100 32.7278 77.612 18.75 50 18.75ZM50 67.8372C45.893 67.8372 42.5417 60.0231 42.3315 50.1904C44.8022 50.3999 47.3715 50.5142 50 50.5142C52.6285 50.5142 55.1978 50.3999 57.6686 50.1904C57.4583 60.0168 54.107 67.8372 50 67.8372ZM42.8374 42.3827C43.9545 35.4319 46.7407 30.4997 50 30.4997C53.2593 30.4997 56.0455 35.4319 57.1626 42.3827C54.8692 42.5795 52.4773 42.6874 50 42.6874C47.5227 42.6874 45.1308 42.5795 42.8374 42.3827ZM50 23.2696C44.6379 23.2696 40.0644 31.0266 38.3756 41.8558C28.21 40.326 21.1132 36.8348 21.1132 32.7785C21.1132 27.3068 34.0452 22.8697 50 22.8697C65.9548 22.8697 78.8868 27.3068 78.8868 32.7785C78.8868 36.8348 71.79 40.326 61.6244 41.8558C59.9356 31.0266 55.3621 23.2696 50 23.2696ZM7.16914 48.8257C7.16914 43.5316 9.27849 38.5613 12.9518 34.2957C12.9123 34.594 12.8861 34.8987 12.8861 35.2034C12.8861 41.8749 23.2422 47.5625 37.6922 49.6572C37.6791 50.1397 37.6791 50.6284 37.6791 51.1172C37.6791 63.5525 41.2866 74.0834 46.2742 77.6572C24.3593 76.3813 7.16914 63.9587 7.16914 48.8257ZM53.7259 77.6572C58.7134 74.0834 62.3209 63.5525 62.3209 51.1172C62.3209 50.6221 62.3144 50.1397 62.3078 49.6572C76.7512 47.5625 87.1139 41.8812 87.1139 35.2034C87.1139 34.8987 87.0877 34.594 87.0482 34.2957C90.7215 38.574 92.8309 43.5316 92.8309 48.8257C92.8309 63.9587 75.6407 76.3813 53.7259 77.6572Z" fill="white"/>
</svg>
