<svg width="100" height="100" viewBox="0 0 100 100" fill="none" xmlns="http://www.w3.org/2000/svg">
<g clip-path="url(#clip0_220_2118)">
<path d="M58.2729 53.2463C58.1935 53.2655 57.8761 53.2655 57.7372 53.2655H47.4991V55.5775H57.9158C57.9951 55.5775 58.6102 55.5775 58.7293 55.5583C60.8523 55.3656 61.8245 53.6509 61.8245 52.1481C61.8245 50.6067 60.8126 48.9498 58.888 48.7764C58.511 48.7378 58.1935 48.7378 58.0547 48.7378H51.2491C50.9515 48.7378 50.6142 48.7186 50.4951 48.68C49.9594 48.5452 49.761 48.0828 49.761 47.6974C49.761 47.3506 49.9594 46.8882 50.515 46.7341C50.6737 46.6956 50.8523 46.6763 51.2293 46.6763H61.0507V44.4028H51.0705C50.6539 44.4028 50.3364 44.4221 50.0785 44.4606C48.3721 44.6918 47.1816 46.0212 47.1816 47.7167C47.1816 49.1039 48.0745 50.7223 50.0388 50.9921C50.3959 51.0306 50.892 51.0306 51.1102 51.0306H57.7372C57.8562 51.0306 58.1539 51.0306 58.2134 51.0499C58.9674 51.1462 59.2253 51.6857 59.2253 52.1673C59.2253 52.6297 58.9277 53.1307 58.2729 53.2463Z" fill="white"/>
<path d="M38.8686 53.2463C38.7892 53.2655 38.4718 53.2655 38.3527 53.2655H28.0948V55.5775H38.5115C38.5908 55.5775 39.2059 55.5775 39.325 55.5583C41.448 55.3656 42.4202 53.6509 42.4202 52.1481C42.4202 50.6067 41.4083 48.9498 39.4837 48.7764C39.1067 48.7378 38.7892 48.7378 38.6504 48.7378H31.8448C31.5472 48.7378 31.2099 48.7186 31.0908 48.68C30.5551 48.5452 30.3567 48.0828 30.3567 47.6974C30.3567 47.3506 30.5551 46.8882 31.1107 46.7341C31.2694 46.6956 31.448 46.6763 31.825 46.6763H41.6464V44.4028H31.6662C31.2496 44.4028 30.9321 44.4221 30.6742 44.4606C28.9678 44.6918 27.7773 46.0212 27.7773 47.7167C27.7773 49.1039 28.6702 50.7223 30.6345 50.9921C30.9916 51.0306 31.4877 51.0306 31.7059 51.0306H38.3329C38.4519 51.0306 38.7496 51.0306 38.8091 51.0499C39.5631 51.1462 39.821 51.6857 39.821 52.1673C39.821 52.6297 39.5432 53.1307 38.8686 53.2463Z" fill="white"/>
<path d="M22.7561 44.3271H20.1768V55.6367H22.7561V44.3271Z" fill="white"/>
<path d="M14.4841 55.6367V44.3271H11.9048V52.766L3.31349 44.3271H0V55.6367H2.57937V47.1594L11.2302 55.6367H14.4841Z" fill="white"/>
<path d="M97.4409 44.3271V52.766L88.8496 44.3271H85.5361V55.6367H88.1155V47.1594L96.7464 55.6367H100V44.3271H97.4409Z" fill="white"/>
<path d="M72.1057 44.3271L64.8438 55.6367H67.9787L69.2684 53.6137H77.7406L79.0303 55.6367H82.1453L74.8834 44.3271H72.1057ZM76.4112 51.4751H70.5977L73.5144 46.9282L76.4112 51.4751Z" fill="white"/>
<path d="M14.3443 37.909C19.5427 23.17 33.8681 13.2669 50.0189 13.2669C66.1697 13.2669 80.5149 23.17 85.6935 37.909L85.7332 38.0246H97.1022V36.6952L92.38 36.1558C89.4633 35.8282 88.8482 34.5759 88.0546 32.996L87.8562 32.6107C81.0308 18.5074 66.1697 9.375 50.0189 9.375C33.8482 9.375 19.007 18.5074 12.1816 32.6492L11.9832 33.0345C11.1895 34.6144 10.5744 35.8668 7.65777 36.1943L2.93555 36.7338V38.0632H14.2848L14.3443 37.909Z" fill="white"/>
<path d="M85.7333 61.9563L85.6937 62.0719C80.4952 76.8109 66.1699 86.6948 50.0191 86.6948C33.8683 86.6948 19.523 76.7917 14.3445 62.0526L14.3048 61.937H2.95557V63.2664L7.67779 63.8059C10.5945 64.1334 11.2095 65.3858 12.0032 66.9656L12.2016 67.351C19.027 81.4927 33.8881 90.6252 50.0389 90.6252C66.1897 90.6252 81.0508 81.4927 87.8762 67.3702L88.0746 66.9849C88.8683 65.405 89.4834 64.1527 92.4 63.8252L97.1222 63.2857V61.9563H85.7333Z" fill="white"/>
</g>
<defs>
<clipPath id="clip0_220_2118">
<rect width="100" height="100" fill="white"/>
</clipPath>
</defs>
</svg>
