<svg width="100" height="100" viewBox="0 0 100 100" fill="none" xmlns="http://www.w3.org/2000/svg">
<path fill-rule="evenodd" clip-rule="evenodd" d="M51.178 16.5901C52.7524 16.6346 52.5851 17.7628 52.3247 18.1518C47.6783 25.523 36.6996 38.502 28.7056 52.7421C27.3821 55.0495 26.3965 56.747 26.3965 59.279C26.3965 62.7118 28.498 66.7705 32.7196 68.5122C35.4968 69.6468 37.245 69.6816 40.2423 69.7257C62.4946 70.4275 71.4154 69.8144 91.3274 69.1253C92.4774 69.122 93.5467 68.3319 93.9311 67.8546C97.7808 63.7612 100 56.4024 100 49.9097C100 35.4485 89.7868 22.4222 73.8547 16.1573L71.2976 19.5015C85.2614 25.3871 92.4774 37.1427 92.4774 49.7328C92.4774 52.5652 92.0061 55.3087 91.1536 57.9291C90.5215 59.7563 89.7435 60.8056 87.4807 60.8404C71.2541 61.1943 62.0668 61.4535 45.7969 61.0174C43.6984 60.9732 43.0197 60.1925 42.6786 58.498C42.4182 57.4929 42.6353 56.6583 43.3143 55.3973C51.9435 39.8075 66.9766 21.9891 69.9276 17.7628C70.4885 16.9821 70.2251 15.408 68.3001 14.8866C62.6681 13.1891 56.3482 12.5 49.9411 12.5C20.9318 12.6201 0.471028 29.2592 0 49.9097C1.16241 74.6982 22.2986 87.5 49.9411 87.5C66.8559 87.5 82.3508 81.4024 91.4173 71.733L83.0419 72.0775C75.3084 79.0917 62.9193 82.8406 50.1054 82.8406C26.7498 82.8406 7.73352 70.9965 7.73352 49.7328C7.73352 31.4437 26.7465 16.546 50.1054 16.546L51.178 16.5901Z" fill="white"/>
</svg>
