<svg width="100" height="100" viewBox="0 0 100 100" fill="none" xmlns="http://www.w3.org/2000/svg">
<path fill-rule="evenodd" clip-rule="evenodd" d="M82.5188 33C78.5836 32.9938 74.7625 34.2849 71.6789 36.6624C68.5955 34.2847 64.7743 32.9937 60.839 33C56.9041 32.9941 53.0832 34.2851 49.9997 36.6624C46.9166 34.2846 43.0955 32.9935 39.1604 33C35.2254 32.9941 31.4045 34.2851 28.3211 36.6624C25.2377 34.285 21.4167 32.994 17.4818 33C7.82537 33 0 40.6092 0 50C0 59.3897 7.8248 67 17.4818 67C21.4167 67.0058 25.2376 65.7149 28.3211 63.3376C31.4045 65.715 35.2254 67.006 39.1604 67C43.0955 67.0064 46.9165 65.7153 49.9997 63.3376C53.0832 65.7149 56.9041 67.0059 60.839 67C64.7743 67.0063 68.5955 65.7152 71.6789 63.3376C74.7624 65.7152 78.5836 67.0063 82.5188 67C92.1752 67 100 59.3903 100 50C100 40.6097 92.1752 33 82.5188 33ZM25.4607 60.5605C23.2331 62.1408 20.4502 63.1052 17.4818 63.1052C10.0325 63.1052 4.00457 57.244 4.00457 50C4.00457 42.756 10.0325 36.8942 17.4818 36.8942C20.4502 36.8942 23.2314 37.8592 25.4607 39.44C23.0045 42.4408 21.671 46.1647 21.6792 50C21.6811 53.8338 23.0135 57.5548 25.4607 60.5605ZM28.3216 57.7868C26.6037 55.5348 25.6787 52.804 25.6844 50C25.6771 47.1958 26.6022 44.4644 28.3216 42.2132C30.0408 44.4646 30.9658 47.1958 30.9589 50C30.9643 52.8039 30.0394 55.5347 28.3216 57.7868ZM47.14 60.5605C44.8256 62.2175 42.0253 63.1081 39.1513 63.1013C36.2833 63.107 33.4893 62.2163 31.1814 60.5605C33.6289 57.5551 34.9614 53.8342 34.9629 50.0006C34.9711 46.1653 33.6376 42.4413 31.1814 39.4406C33.4891 37.7843 36.2832 36.8934 39.1513 36.8992C42.1413 36.8992 44.9038 37.8398 47.14 39.4406C44.6838 42.4413 43.3502 46.1653 43.3584 50.0006C43.3601 53.8342 44.6925 57.5551 47.14 60.5605ZM49.9997 57.7868C48.2817 55.5348 47.3568 52.804 47.3624 50C47.3555 47.1958 48.2805 44.4646 49.9997 42.2132C51.7192 44.4644 52.6445 47.1957 52.6376 50C52.6431 52.804 51.7179 55.5349 49.9997 57.7868ZM68.8186 60.5605C66.5825 62.1618 63.82 63.1013 60.8305 63.1013C57.841 63.1013 55.0962 62.1601 52.86 60.5605C55.3078 57.5552 56.6403 53.8343 56.6416 50.0006C56.6498 46.1653 55.3162 42.4413 52.86 39.4406C55.0962 37.8404 57.841 36.8992 60.8305 36.8992C63.82 36.8992 66.5825 37.8398 68.8186 39.4406C66.3627 42.4415 65.0292 46.1653 65.0371 50.0006C65.039 53.8342 66.3715 57.5549 68.8186 60.5605ZM71.6795 57.7868C69.9615 55.5348 69.0366 52.804 69.0422 50C69.0347 47.1958 69.9598 44.4643 71.6795 42.2132C73.3986 44.4646 74.3237 47.1958 74.3168 50C74.3219 52.8039 73.3971 55.5346 71.6795 57.7868ZM82.5188 63.1052C79.5492 63.1052 76.7669 62.1408 74.5398 60.5605C76.9871 57.555 78.3195 53.8342 78.3214 50.0006C78.3293 46.1653 76.9957 42.4415 74.5398 39.4406C76.7691 37.8603 79.5498 36.8948 82.5188 36.8948C89.9669 36.8948 95.996 42.7566 95.996 50.0006C95.996 57.2434 89.9669 63.1052 82.5188 63.1052Z" fill="white"/>
</svg>
