<svg width="100" height="100" viewBox="0 0 100 100" fill="none" xmlns="http://www.w3.org/2000/svg">
<path fill-rule="evenodd" clip-rule="evenodd" d="M71.3552 21.7323C68.9367 20.4516 64.5657 18.8728 61.6286 18.3371C60.9821 20.7086 60.3669 22.9051 59.7837 24.987L59.7834 24.9883C55.1666 41.471 52.5604 50.7754 52.3662 82.9364L55.003 82.7676C54.1837 56.9992 59.8935 44.2473 71.3552 21.7323ZM44.949 17.1678C48.4314 16.8866 51.7919 16.9856 54.7435 17.2667C51.7924 39.4996 51.055 48.7271 51.1909 82.9636C50.2901 83.0059 49.757 83.0059 49.0192 82.9908C48.4314 48.5301 48.0772 39.2037 44.949 17.1678ZM28.6521 21.7323C31.0692 20.4516 35.4271 18.8728 38.3651 18.3371C39.0126 20.7129 39.6287 22.913 40.2127 24.9982L40.2128 24.9986C44.827 41.4749 47.4335 50.7821 47.6401 82.9364L44.9902 82.7676C45.8235 56.9992 40.0993 44.2473 28.6521 21.7323ZM77.6788 25.4395C80.0969 26.9746 83.9357 30.6804 85.2609 32.4981C64.7429 43.6136 58.4321 63.9289 58.9638 82.2457C58.5133 82.3317 58.038 82.3918 57.5719 82.4508C57.1199 82.5079 56.6766 82.564 56.2731 82.6415C54.7568 56.2242 66.1908 37.2176 77.6788 25.4395ZM60.4539 81.9915C58.5281 59.35 73.2118 41.007 89.2637 38.8511C99.0854 59.0385 80.8347 78.3428 60.4539 81.9915ZM22.3265 25.4395C19.9089 26.9746 16.0832 30.6804 14.7453 32.4981C35.2633 43.6136 41.5609 63.9289 41.0283 82.2457C41.4789 82.3304 41.9535 82.39 42.4162 82.4481L42.4165 82.4481C42.8792 82.5062 43.33 82.5628 43.7331 82.6415C45.2494 56.2242 33.8285 37.2176 22.3265 25.4395ZM39.5529 81.9915C41.4655 59.35 26.7936 41.007 10.7431 38.8511C0.906872 59.0385 19.1576 78.3428 39.5529 81.9915Z" fill="white"/>
</svg>
