<svg width="100" height="100" viewBox="0 0 100 100" fill="none" xmlns="http://www.w3.org/2000/svg">
<path fill-rule="evenodd" clip-rule="evenodd" d="M50.0005 25C22.3866 25 0 36.1943 0 49.999C0 63.8047 22.3866 75 50.0005 75C77.6124 75 100 63.8057 100 49.999C99.999 36.1953 77.6114 25 50.0005 25ZM45.2568 30.564C50.9637 28.5207 67.9189 30.564 74.5048 33.7676C76.6125 35.8149 65.1066 42.3926 51.4067 45.2439C31.8195 49.2443 41.1285 33.9442 45.2568 30.564ZM11.6189 60.1857C7.31323 57.0765 -1.1178 48.1784 12.8487 38.9281C20.2263 34.5705 24.3536 33.5889 29.4471 32.5231C31.9077 31.9872 33.6637 32.6114 31.4677 34.4801C26.8132 39.3727 17.1514 55.559 16.2744 59.1198C15.5698 61.5235 14.1657 62.1427 11.6189 60.1857ZM51.8427 70.5068C43.588 71.394 25.2326 68.6381 24.8798 66.2395C25.2326 60.4536 54.0396 50.847 59.2203 56.1843C61.4183 60.3643 57.2027 70.2389 51.8427 70.5068ZM93.8274 53.6903C91.7176 58.5839 84.6046 64.1018 69.6749 67.8382C67.3887 68.3681 66.5989 66.947 68.0913 65.6122C70.5528 64.1008 82.4096 43.9984 83.902 39.993C84.781 37.9456 86.4487 38.7495 87.5041 39.5484C92.2478 42.6606 95.8479 47.7318 93.8274 53.6903Z" fill="white"/>
</svg>
