<svg width="100" height="100" viewBox="0 0 100 100" fill="none" xmlns="http://www.w3.org/2000/svg">
<path fill-rule="evenodd" clip-rule="evenodd" d="M95.7336 41.9804C93.0959 32.2521 80.4922 27.3488 80.4922 27.3488C77.1294 26.1196 78.4723 28.0502 78.4723 28.0502C78.4723 28.0502 92.9752 34.7181 92.9752 43.9995C92.9752 55.4949 77.1716 58.933 77.1716 58.933C91.5453 54.3652 91.5867 44.6175 91.5867 44.6175C91.3343 34.8715 78.4723 28.0502 78.4723 28.0502C73.5134 25.2402 70.8233 24.5371 70.8233 24.5371C64.351 22.3712 66.4511 24.8887 66.4511 24.8887C66.4511 24.8887 85.977 31.0339 85.977 44.5905C85.977 58.4372 58.7607 62.8853 58.7607 62.8853C84.353 58.1422 84.3581 44.7052 84.3581 44.7052C84.3581 32.602 66.4511 24.8887 66.4511 24.8887C63.7618 23.4259 59.2005 22.2473 59.2005 22.2473C54.975 21.3478 57.3722 23.1916 57.3722 23.1916C74.5221 33.2023 74.5221 44.2668 74.5221 44.2668C74.5221 56.5622 63.236 59.6344 63.236 59.6344C59.9568 60.9083 53.6119 61.9276 53.6119 61.9276C52.5846 62.2311 51.8663 62.9367 51.8663 63.7638C51.8663 64.0977 51.9474 64.4281 52.1913 64.6903C52.8108 65.3513 54.8965 66.9009 54.8965 66.9009C55.6435 67.6032 56.0799 68.4724 56.0799 69.4133C56.0799 71.7216 53.4228 73.5949 50.1216 73.6379H49.8785C46.5782 73.5949 43.9185 71.7225 43.9185 69.4133C43.9185 68.4724 44.3575 67.6032 45.1028 66.9009C45.1028 66.9009 47.1876 65.3513 47.8072 64.6903C48.0511 64.4281 48.1347 64.0985 48.1347 63.7638C48.1347 62.9367 47.4147 62.2311 46.3883 61.9276C46.3883 61.9276 40.0425 60.9091 36.7633 59.6344C36.7633 59.6344 25.4772 56.5631 25.4772 44.2668C25.4772 44.2668 25.4772 33.2014 42.6271 23.1916C42.6271 23.1916 45.0234 21.3478 40.7988 22.2473C40.7988 22.2473 36.2375 23.4259 33.5483 24.8887C33.5483 24.8887 15.6421 32.6011 15.6421 44.7052C15.6421 44.7052 15.6455 58.1422 41.2403 62.8853C41.2403 62.8853 14.0232 58.4381 14.0232 44.5905C14.0232 31.0339 33.5483 24.8887 33.5483 24.8887C33.5483 24.8887 35.6483 22.3712 29.176 24.5371C29.176 24.5371 26.4859 25.2394 21.5261 28.0502C21.5261 28.0502 8.6633 34.8715 8.41177 44.6175C8.41177 44.6175 8.45313 54.3652 22.8285 58.933C22.8285 58.933 7.02411 55.4941 7.02411 43.9995C7.02411 34.7181 21.5261 28.0502 21.5261 28.0502C21.5261 28.0502 22.8707 26.1187 19.5088 27.3488C19.5088 27.3488 6.90257 32.253 4.26653 41.9804C4.26653 41.9804 3.46719 45.6452 4.63708 48.322C6.05512 51.5999 9.753 57.0293 19.1712 60.072C19.1712 60.072 23.4591 61.8306 40.6098 65.2552L41.6201 65.4854C41.6201 65.4854 42.3578 65.8083 41.8295 66.39L39.4669 68.4184C39.4669 68.4184 36.002 71.0809 40.9474 73.3218C40.9474 73.3218 43.965 74.3486 46.092 76.6233C46.092 76.6233 47.4603 77.9233 49.7772 77.9882V77.9975H49.9317C49.9385 77.9975 49.9444 78 49.9494 78V77.9975H50.049V78L50.0668 77.9975H50.1731V77.9941C52.5205 77.9435 53.9056 76.6233 53.9056 76.6233C56.0335 74.3486 59.0494 73.3218 59.0494 73.3218C63.9965 71.0809 60.5299 68.4184 60.5299 68.4184L58.169 66.39C57.6415 65.8083 58.3783 65.4854 58.3783 65.4854L59.387 65.2552C76.5369 61.8306 80.8265 60.072 80.8265 60.072C90.2446 57.0293 93.9425 51.6007 95.3622 48.322C96.533 45.6452 95.7336 41.9804 95.7336 41.9804Z" fill="white"/>
</svg>
