<svg width="100" height="100" viewBox="0 0 100 100" fill="none" xmlns="http://www.w3.org/2000/svg">
<path d="M49.9999 92C61.2184 92 71.7653 87.631 79.6983 79.6983C87.631 71.7655 92 61.2184 92 49.9999C92 38.7816 87.631 28.2345 79.6983 20.3017C71.7655 12.3688 61.2184 8 49.9999 8C26.841 8 8 26.841 8 49.9999C8 61.2184 12.3688 71.7655 20.3017 79.6983C28.2345 87.631 38.7816 92 49.9999 92Z" fill="#262626"/>
<path d="M9 49.9999C9 39.0487 13.2648 28.7527 21.0088 21.0088C28.7528 13.2646 39.0486 9 50 9C60.9514 9 71.2474 13.2646 78.9912 21.0088C86.7352 28.7527 91 39.0486 91 49.9999C91 72.6075 72.6074 91 50 91C39.0486 91 28.7528 86.7352 21.0088 78.9912C13.2648 71.2471 9 60.9513 9 49.9999Z" fill="white"/>
<path d="M50 11C28.4612 11 11 28.4611 11 49.9999C11 71.5387 28.4612 89 50 89C71.5388 89 89 71.5387 89 49.9999C89 28.4611 71.5388 11 50 11Z" fill="#262626"/>
<path d="M50 75C36.1931 75 25 63.8071 25 50C25 36.1931 36.1931 25 50 25C63.8069 25 75 36.1931 75 50C75 63.8071 63.8071 75 50 75Z" fill="white"/>
<path d="M27 49.9999H50V27C37.2976 27 27 37.2977 27 49.9999ZM50 49.9999V73C62.7024 73 73 62.7024 73 49.9999H50Z" fill="#262626"/>
<path d="M32.2312 26.2651C31.4085 25.4525 30.1369 25.2076 28.9431 25.9598C29.1711 25.3592 29.078 24.7464 28.9569 24.4082C28.4426 23.455 28.2631 23.3357 27.8392 22.9743C26.467 21.8041 25.023 22.8031 23.9902 24.0541L19 30.0979L26.8444 36.7876L32.1069 30.414C33.3093 28.9577 33.4952 27.5138 32.2312 26.2651ZM51.7691 23.3932L54.4631 16.1363V23.3932H56.5105V13H53.4343L50.6362 20.4414H50.6652L47.8672 13H44.7911V23.3932H46.8384V16.1363L49.5325 23.3932H51.7691ZM79.2965 27.7172L75.4417 33.2636L81.4177 30.3803L83 32.3661L73.594 37L71.737 34.6506L75.4366 29.1528L75.4147 29.1252L69.354 31.66L67.4789 29.3255L73.8946 20.9384L75.4769 22.9243L71.4593 28.2655L77.5989 25.5867L79.2965 27.7172Z" fill="white"/>
<path d="M24.809 25.294C25.1344 24.8897 25.8699 24.9063 26.3429 25.3198C26.863 25.7746 26.8642 26.4194 26.515 26.853L23.7377 30.3024L22 28.7827L24.809 25.294ZM29.7504 29.3632L26.8223 33L24.9861 31.3943L27.9379 27.7279C28.2713 27.3139 29.0145 27.1933 29.5157 27.6318C30.0831 28.1278 30.1393 28.8803 29.7504 29.3632Z" fill="#262626"/>
</svg>
