<svg width="100" height="100" viewBox="0 0 100 100" fill="none" xmlns="http://www.w3.org/2000/svg">
<path d="M58.0125 59.246C58.0125 59.4415 58.075 59.552 58.1833 59.552C58.2712 59.5399 58.3544 59.5047 58.425 59.45L89.5917 38.8203C90.1181 38.4442 90.7491 38.2505 91.3917 38.2678H98.2417C99.2917 38.2678 100 38.9818 100 40.0528V53.3937C100 55.0087 99.65 55.9437 98.25 56.7979L89.9417 61.898C89.859 61.9565 89.7627 61.9917 89.6625 62C89.5625 62 89.4625 61.9192 89.4625 61.626V46.0581C89.4625 45.8753 89.4125 45.7563 89.2917 45.7563C89.2033 45.7664 89.1195 45.8017 89.05 45.8583L66.275 60.9502C65.7594 61.3082 65.1487 61.4966 64.525 61.49H49.425C48.3667 61.49 47.6667 60.776 47.6667 59.6965V40.4693C47.6667 40.329 47.6042 40.1973 47.4833 40.1973C47.3967 40.2091 47.3147 40.2443 47.2458 40.2993L32.2167 49.4921C32.0667 49.5941 32.025 49.6664 32.025 49.7386C32.025 49.7981 32.0583 49.8619 32.1583 49.9724L42.8958 60.9162C43.0375 61.0607 43.1375 61.1712 43.1375 61.2945C43.1375 61.3965 42.975 61.4772 42.7875 61.4772H33.0833C32.3208 61.4772 31.7333 61.3667 31.3208 60.946L24.8125 54.3159C24.7879 54.2858 24.7574 54.2612 24.7229 54.2436C24.6885 54.226 24.6509 54.2159 24.6125 54.2139C24.5417 54.218 24.473 54.2399 24.4125 54.2777L13.5375 60.9502C13.0175 61.3065 12.4012 61.4878 11.775 61.4687H1.77083C0.7 61.4772 0 60.7547 0 59.688V46.5978C0 44.9828 0.35 44.0478 1.75833 43.1978L10.125 38.068C10.1899 38.0259 10.2648 38.0024 10.3417 38C10.475 38 10.5417 38.1275 10.5417 38.425V55.9522C10.5417 56.1349 10.5833 56.2199 10.7125 56.2199C10.8023 56.2057 10.8878 56.1708 10.9625 56.1179L39.1958 38.782C39.7432 38.4062 40.3952 38.2213 41.0542 38.255H56.2542C57.3042 38.255 58.0125 38.969 58.0125 40.04L58.0042 59.2417L58.0125 59.246Z" fill="white"/>
</svg>
