<svg width="190" height="110" viewBox="0 0 190 110" fill="none" xmlns="http://www.w3.org/2000/svg">
<g id="Logo">
<g id="Group 15">
<path id="Vector" fill-rule="evenodd" clip-rule="evenodd" d="M68.8267 25.3871V25.3379V25.2887V25.2409V25.2267L68.8282 25.1916V25.1424V25.0932V25.0644L68.8295 25.0449V24.9957L68.8305 24.9464V24.904V24.8986L68.8321 24.8494L68.8333 24.8002L68.8344 24.7524V24.7431L68.8359 24.7031L68.8375 24.6539L68.8382 24.6061V24.5827L68.8398 24.5569L68.8413 24.5076L68.8421 24.4594L68.8436 24.4219L68.8452 24.4102L68.8459 24.3609L68.8475 24.3131L68.8498 24.2639V24.2614L68.8529 24.2161L68.8539 24.1669L68.8567 24.1176L68.8578 24.102L68.859 24.0694L68.8616 24.0201L68.8639 23.9723L68.8655 23.9411L68.867 23.9231L68.8693 23.8753L68.8716 23.8261L68.8747 23.7817V23.7778L68.877 23.7286L68.8809 23.6808L68.8834 23.633L68.8847 23.6213L68.8873 23.5838L68.8901 23.5355L68.894 23.4863L68.895 23.4619L68.8966 23.4385L68.9004 23.3892L68.9043 23.3415L68.9066 23.3024L68.9081 23.2932L68.912 23.2439L68.9158 23.1961L68.9197 23.1483V23.143L68.9235 23.0991L68.9274 23.0509L68.9323 23.0031L68.9336 22.9836L68.9361 22.9538L68.9415 22.906L68.9454 22.8582L68.9492 22.8256L68.9505 22.81L68.9539 22.7608L68.9593 22.713L68.9646 22.6662V22.6652L68.9695 22.6169L68.9749 22.5691L68.9803 22.5214L68.9811 22.5082L68.985 22.4721L68.9903 22.4239L68.9957 22.3761L68.9996 22.3503L69.0019 22.3283L69.0068 22.2801C69.2848 19.9196 69.8828 17.6331 70.8389 15.4408C72.1367 12.448 73.9312 9.75309 76.2249 7.44473C78.5345 5.12031 81.242 3.31554 84.2414 2.01633C87.3605 0.665932 90.6536 0 94.0508 0H95.0331H185.313L161.829 17.0979H113.591H94.0508C92.971 17.0979 91.936 17.2963 90.9497 17.7433C89.9509 18.1952 89.0547 18.8002 88.2801 19.5788C87.506 20.3588 86.9047 21.2607 86.4557 22.2645C86.0115 23.257 85.8146 24.2998 85.8146 25.387C85.8146 25.8067 85.8444 26.2187 85.9045 26.6257L85.9099 26.6564L85.9122 26.675L85.9153 26.6891L85.9191 26.7203L85.9202 26.7252L85.924 26.7525L85.9279 26.7759L85.9292 26.7838L85.9356 26.815L85.9369 26.8267L85.9407 26.8472L85.9456 26.8769V26.8784L85.9525 26.9095L85.9549 26.9261L85.9574 26.9403L85.9641 26.9729L85.9651 26.9768L85.9705 27.0041L85.9744 27.0271L85.9767 27.0349L85.9834 27.0661L85.9844 27.0778L85.9898 27.0973L85.9962 27.127V27.1285L86.0024 27.1597L86.0063 27.1777L86.0101 27.1919L86.017 27.2231L86.0178 27.227L86.0248 27.2543L86.0296 27.2772L86.0309 27.285L86.0386 27.3162L86.0412 27.3264L86.0466 27.3459L86.0543 27.3757V27.3771L86.062 27.4083L86.0659 27.4264L86.0697 27.4395L86.0777 27.4702L86.08 27.4756L86.0862 27.5014L86.0926 27.5248L86.0941 27.5326L86.1031 27.5624L86.1057 27.5741L86.1119 27.5936L86.1198 27.6234V27.6248L86.1288 27.6555L86.1337 27.6726L86.1376 27.6857L86.1468 27.7164L86.1494 27.7218L86.1571 27.7476L86.1638 27.771L86.1663 27.7774L86.1753 27.8086L86.1794 27.8203L86.1856 27.8398L86.1943 27.8695L86.2049 27.9007L86.2113 27.9188L86.2152 27.9305L86.2252 27.9616L86.2267 27.9665L86.2355 27.9914L86.2432 28.0158L86.2463 28.0221L86.2563 28.0523L86.2601 28.065L86.2666 28.083L86.2781 28.1132L86.2881 28.1439L86.2961 28.1625L86.3 28.1737L86.3115 28.2049L86.3144 28.2103L86.3231 28.2346L86.3323 28.2595L86.3347 28.2644L86.3465 28.2956L86.3503 28.3073L86.358 28.3253L86.3696 28.3551L86.3814 28.3863L86.3891 28.4033L86.394 28.416L86.4056 28.4462L86.4084 28.4525L86.4187 28.4759L86.4287 28.5003L86.4313 28.5057L86.4444 28.5369L86.4498 28.5481L86.4575 28.5666L86.4701 28.5964C86.9118 29.608 87.5022 30.523 88.2801 31.3055L88.2991 31.3249L88.3146 31.34L88.32 31.3439L88.3392 31.3649L88.351 31.3751L88.3588 31.3844L88.3791 31.4039L88.3868 31.4102L88.3986 31.4234L88.4194 31.4414L88.4233 31.4453L88.4397 31.4609L88.459 31.4789V31.4799L88.4798 31.4994L88.4949 31.5126L88.5003 31.518L88.5196 31.537L88.5312 31.5462L88.5399 31.5555L88.5607 31.5745L88.5672 31.5799L88.581 31.593L88.6021 31.6111L88.6044 31.6135L88.6229 31.6291L88.6406 31.6462L88.6432 31.6486L88.664 31.6666L88.6782 31.6783L88.6843 31.6847L88.7051 31.7032L88.7154 31.711L88.7254 31.7213L88.7463 31.7378L88.7527 31.7432L88.7681 31.7564L88.7884 31.7744L88.7899 31.7754L88.8092 31.7925L88.8272 31.8066L88.8311 31.8096L88.8519 31.8276L88.866 31.8378L88.8724 31.8441L88.894 31.8612L88.9033 31.869L88.9148 31.8792L88.9367 31.8963C89.5238 32.3677 90.1739 32.7538 90.8767 33.0531C91.0182 33.1141 91.1602 33.1697 91.3041 33.2204C91.5409 33.6762 91.7622 34.1413 91.9686 34.6166C93.028 37.0551 93.5019 39.6243 93.5019 42.2802C93.5019 44.9347 93.029 47.5039 91.9696 49.941C91.8485 50.2193 91.7212 50.4928 91.5914 50.7649C89.0618 50.5187 86.6014 49.8893 84.2404 48.8655C82.2359 47.9977 80.3634 46.9043 78.6525 45.5802L78.6237 45.5578L78.6121 45.549L78.5723 45.5178L78.5327 45.4866L78.5042 45.4647L78.4924 45.4554L78.4541 45.4247L78.414 45.3935L78.3844 45.3701L78.3742 45.3623L78.3356 45.3311L78.2958 45.2989L78.2662 45.2754L78.257 45.2676L78.2174 45.2364L78.1786 45.2042L78.1475 45.1794L78.1383 45.173L78.1 45.1408L78.0612 45.1082L78.0303 45.0838L78.0216 45.076L77.9828 45.0448L77.944 45.0126L77.9129 44.9863L77.9052 44.98L77.8669 44.9478L77.8281 44.9151L77.7973 44.8878L77.7893 44.8829L77.751 44.8493L77.7125 44.8167L77.6814 44.7893L77.6737 44.7845L77.6349 44.7508L77.5976 44.7182L77.5655 44.6899L77.5593 44.6845L77.5205 44.6523L77.4833 44.6187L77.4509 44.5899L77.4445 44.585L77.4072 44.5514L77.3684 44.5188L77.3365 44.489L77.3311 44.4851L77.2939 44.4515L77.2551 44.4164L77.223 44.3866L77.2176 44.3828L77.1803 44.3491L77.143 44.3155L77.1096 44.2843L77.1058 44.2818L77.0685 44.2468L77.0313 44.2131L76.9979 44.1819L76.994 44.178L76.9567 44.1444L76.9195 44.1093L76.8858 44.0771L76.882 44.0747L76.8447 44.0396L76.8085 44.0059L76.7735 43.9723L76.7712 43.9709L76.734 43.9358L76.698 43.9007L76.663 43.867L76.6607 43.866L76.6245 43.8295L76.587 43.7948L76.5523 43.7607L76.5513 43.7597L76.5148 43.7231L76.4775 43.6885L76.4428 43.6534L76.4418 43.652L76.4053 43.6169L76.3696 43.5808L76.3336 43.5457L76.2974 43.5096L76.2614 43.473L76.2252 43.437C73.9145 41.1125 72.1226 38.3893 70.8312 35.3707C69.4744 32.199 68.8269 28.8385 68.8269 25.387L68.8267 25.3871ZM120.023 33.6763H164.775C168.194 33.6763 171.523 34.3227 174.659 35.7014C177.631 37.0074 180.308 38.8131 182.602 41.122C184.912 43.4464 186.704 46.1696 187.996 49.1883C189.352 52.36 190 55.7204 190 59.1719C190 62.5923 189.339 65.9064 187.996 69.0469C186.704 72.0656 184.912 74.7902 182.602 77.1142C180.308 79.4216 177.631 81.2278 174.659 82.5338C171.523 83.9125 168.194 84.5589 164.775 84.5589H95.0347L95.1 84.5253L95.2405 84.4526L95.3523 84.3927L95.6033 84.2605L95.6511 84.2362L95.8547 84.1275L95.8557 84.126L96.0592 84.0158L96.1042 83.9915L96.2627 83.9047L96.3527 83.8555L96.466 83.7916L96.5999 83.7166L96.6679 83.679L96.8473 83.5767L96.8692 83.5649L97.0696 83.4499L97.093 83.4357L97.2705 83.3334L97.3389 83.2929L97.4702 83.2163L97.5835 83.1491L97.6699 83.0988L97.8266 83.0042L97.868 82.9794L98.0661 82.8604L98.0689 82.8575L98.2632 82.7385L98.3107 82.7098L98.4603 82.6167L98.5515 82.5596L98.6556 82.4948L98.7912 82.4095L98.8514 82.3705L99.0289 82.2564L99.0459 82.2462L99.2402 82.1204L99.2674 82.1038L99.4344 81.9946L99.5043 81.9483L99.7397 81.7913L99.8196 81.7382L99.9751 81.6348L100.012 81.6099L100.203 81.4793L100.21 81.4754L100.394 81.3482L100.442 81.3145L100.583 81.216L100.676 81.1512L100.772 81.0839L100.906 80.9879L100.961 80.9494L101.137 80.8236L101.149 80.8143L101.336 80.6783L101.366 80.6578L101.523 80.5423L101.595 80.4892L101.709 80.4053L101.821 80.321L101.895 80.2664L102.048 80.1499L102.079 80.1264L102.263 79.9865L102.275 79.9778L102.447 79.8442L102.498 79.8037L102.63 79.7028L102.723 79.6302L102.811 79.559L102.944 79.4542L102.993 79.4152L103.166 79.2767L103.173 79.2704L103.353 79.1237L103.387 79.0978L103.534 78.9774L103.606 78.9165L103.712 78.8282L103.825 78.7351L103.89 78.6805L104.042 78.5523L104.068 78.5303L104.244 78.3802L104.258 78.367L104.421 78.2286L104.473 78.1818L104.596 78.0755L104.689 77.9941L104.769 77.9214L104.901 77.8059L104.945 77.7674L105.113 77.6158L105.117 77.6119L105.29 77.4564L105.325 77.4242L105.462 77.2984L105.535 77.2311L105.632 77.1405L105.744 77.0366L105.803 76.982L105.952 76.8411L105.973 76.8216L106.142 76.6608L106.159 76.6441L106.31 76.4989L106.364 76.4457L106.478 76.3356L106.569 76.2463L106.644 76.1722L106.774 76.044L106.811 76.0079L106.976 75.8422L107.095 75.7227L107.177 75.6384L107.213 75.6023L107.33 75.4819L107.377 75.4327L107.447 75.3615L107.563 75.2396L107.576 75.2265L107.588 75.2138L107.773 75.0193L107.794 74.9959L107.911 74.874L107.97 74.8121L108.025 74.7512L108.139 74.6283L108.164 74.602L108.253 74.505L108.358 74.3909L108.366 74.3821L108.479 74.2573L108.549 74.1798L108.59 74.133L108.702 74.0077L108.74 73.9673L108.814 73.8829L108.925 73.7577L108.927 73.7538L109.035 73.6319L109.115 73.5398L109.145 73.5047L109.255 73.3779L109.302 73.3233L109.362 73.2512L109.472 73.1239L109.486 73.1073L109.58 72.9957L109.67 72.8894L109.687 72.8675L109.794 72.7393L109.852 72.6706L109.901 72.6111L110.006 72.4814L110.032 72.4502L110.112 72.3517L110.212 72.2289L110.217 72.2221L110.322 72.0914L110.39 72.0071L110.426 71.9617L110.529 71.831L110.566 71.7843L110.632 71.6989L110.735 71.5678L110.742 71.56L110.838 71.4357L110.915 71.3348L110.94 71.3036L111.04 71.1705L111.086 71.1095L111.142 71.0369L111.241 70.9048L111.258 70.8828L111.341 70.7697L111.427 70.6547L111.441 70.6366L111.539 70.5016L111.595 70.425L111.637 70.367L111.735 70.232L111.762 70.1959L111.833 70.096L111.927 69.9638L111.929 69.9614L112.026 69.8254L112.091 69.7323L112.123 69.6879L112.218 69.5519L112.254 69.5003L112.312 69.4149L112.407 69.2774L112.415 69.2657L112.501 69.1399L112.575 69.0312L112.595 69.0015L112.688 68.8625L112.733 68.7953L112.781 68.7241L112.872 68.5856L112.89 68.5583L112.963 68.4457L113.045 68.3214L113.055 68.3058L113.146 68.1659L113.199 68.083L113.236 68.026L113.325 67.8846L113.352 67.8432L113.415 67.7433L113.503 67.6024L113.591 67.461H164.775C165.856 67.461 166.891 67.2626 167.878 66.8156C168.876 66.3636 169.772 65.7587 170.546 64.9801C171.321 64.2015 171.921 63.2997 172.37 62.2944C172.814 61.3018 173.011 60.2591 173.011 59.1719C173.011 58.0536 172.803 56.9864 172.356 55.9626C171.915 54.951 171.324 54.0374 170.546 53.255C169.795 52.4999 168.929 51.9246 167.951 51.5058C166.938 51.0719 165.874 50.8828 164.775 50.8828H120.023L120.03 50.8506L120.046 50.7507L120.071 50.6185L120.081 50.5591L120.094 50.485L120.116 50.3529L120.131 50.2675L120.138 50.2208L120.16 50.0872L120.179 49.976L120.181 49.9551L120.204 49.8215L120.224 49.6894L120.225 49.6845L120.243 49.5563L120.264 49.4227L120.269 49.3915L120.283 49.2906L120.302 49.157L120.312 49.099L120.322 49.0234L120.34 48.8904L120.376 48.6232L120.392 48.5121L120.394 48.4896L120.41 48.3566L120.427 48.223L120.429 48.2176L120.443 48.0884L120.459 47.9549L120.463 47.9237L120.475 47.8213L120.489 47.6868L120.497 47.6297L120.504 47.5532L120.519 47.4186L120.528 47.3343L120.533 47.2851L120.546 47.1505L120.557 47.0403L120.56 47.0169L120.573 46.8818L120.584 46.7473L120.586 46.7448L120.597 46.6127L120.609 46.4791L120.612 46.4494L120.621 46.3446L120.631 46.2095L120.636 46.1525L120.642 46.075L120.653 45.94L120.659 45.8561L120.662 45.8054L120.672 45.6709L120.68 45.5592L120.681 45.5349L120.69 45.3998L120.698 45.2653V45.2628L120.706 45.1302L120.713 44.9942L120.716 44.9659L120.721 44.8597L120.727 44.7237L120.73 44.6681L120.734 44.5891L120.74 44.4531L120.744 44.3712L120.745 44.3181L120.752 44.1821L120.756 44.0734L120.757 44.0476L120.761 43.9115L120.766 43.7756L120.77 43.6405L120.772 43.5045L120.774 43.4762L120.776 43.3685L120.779 43.2325L120.78 43.1783L120.782 43.0965L120.782 42.9604L120.784 42.879L120.786 42.8244L120.786 42.6884V42.5797V42.5524L120.788 42.4164V42.2804V42.1444L120.786 42.0084V41.981V41.8724L120.786 41.7363L120.784 41.6817L120.782 41.6003L120.782 41.4643L120.78 41.3824L120.779 41.3283L120.776 41.1918L120.774 41.0845L120.772 41.0558L120.77 40.9198L120.766 40.7852V40.7838L120.761 40.6492L120.757 40.5132L120.756 40.4874L120.752 40.3772L120.747 40.2426L120.744 40.1895L120.74 40.1061L120.734 39.9716L120.73 39.8911L120.727 39.8355L120.721 39.701L120.716 39.5947L120.713 39.565L120.706 39.4299L120.698 39.2978V39.2954L120.69 39.1593L120.681 39.0243L120.68 38.9999L120.672 38.8897L120.663 38.7552L120.659 38.7045L120.653 38.6202L120.642 38.4856L120.636 38.4076L120.632 38.3506L120.621 38.216L120.612 38.1112L120.609 38.0815L120.597 37.9464L120.586 37.8157V37.8118L120.573 37.6783L120.56 37.5437L120.557 37.5203L120.547 37.4087L120.533 37.2756L120.528 37.2249L120.519 37.1406L120.504 37.0075L120.497 36.931L120.49 36.8725L120.475 36.7389L120.463 36.6355L120.459 36.6043L120.444 36.4708L120.427 36.3416V36.3377L120.41 36.2041L120.394 36.0696L120.392 36.0486L120.377 35.936L120.359 35.8024L120.353 35.7546L120.341 35.6688L120.322 35.5357L120.312 35.4616L120.304 35.4036L120.284 35.27L120.269 35.1691L120.264 35.1365L120.245 35.0029L120.225 34.8762L120.224 34.8708L120.204 34.7377L120.181 34.6041L120.179 34.5832L120.161 34.472L120.139 34.3385L120.132 34.2917L120.116 34.2063L120.094 34.0742L120.081 34.0001L120.071 33.9407L120.048 33.8085L120.03 33.7101L120.023 33.6764L120.023 33.6763Z" fill="white"/>
<path id="Vector_2" fill-rule="evenodd" clip-rule="evenodd" d="M73.75 84.5589H42.0919C36.4244 84.5589 30.9228 83.4771 25.7106 81.2263C20.6969 79.0627 16.1865 76.0534 12.3275 72.1767C8.46698 68.3005 5.47199 63.7686 3.31797 58.7312C1.07999 53.4973 0 47.9728 0 42.2802C0 36.5875 1.07999 31.0616 3.31797 25.8277C5.47294 20.7889 8.46692 16.2599 12.3259 12.3823C16.185 8.5056 20.6969 5.49622 25.7106 3.33263C30.9228 1.08182 36.4244 0 42.0919 0H73.75C74.8745 0 75.9943 0.044356 77.1047 0.129676C75.5327 1.19974 74.0597 2.41757 72.7041 3.78063C69.9502 6.5453 67.7831 9.78574 66.2265 13.3665C65.696 14.5858 65.2563 15.8323 64.9006 17.0979H42.0919C38.7294 17.0979 35.4765 17.7209 32.3949 19.0747C29.3998 20.3915 26.7168 22.1948 24.4055 24.5153C22.0942 26.8369 20.2999 29.5318 18.9894 32.5397C17.6416 35.6349 17.0208 38.9027 17.0208 42.2801C17.0208 45.6576 17.6416 48.9239 18.9894 52.0191C20.3014 55.0285 22.0942 57.7219 24.4055 60.0434C26.7168 62.364 29.3998 64.1673 32.3949 65.4841C35.4765 66.8379 38.7293 67.4609 42.0919 67.4609H73.75C77.1125 67.4609 80.3659 66.8379 83.4474 65.4841C86.4421 64.1673 89.1251 62.364 91.4363 60.0434C93.7481 57.7219 95.541 55.0285 96.8524 52.0191C98.2007 48.9239 98.821 45.6576 98.821 42.2801C98.821 38.9027 98.2008 35.6349 96.8524 32.5397C95.542 29.5318 93.7481 26.8369 91.4363 24.5153L91.3086 24.3867C91.5009 23.9582 91.7474 23.576 92.0774 23.2429C92.4104 22.91 92.7949 22.6623 93.2229 22.4693C93.5389 22.3254 93.868 22.2801 94.2121 22.2801H110.822C111.437 23.4321 112.006 24.6148 112.524 25.8277C114.763 31.0616 115.842 36.5875 115.842 42.2801C115.842 47.9728 114.763 53.4972 112.524 58.7311C110.37 63.7685 107.375 68.3004 103.515 72.1766C99.6553 76.0533 95.145 79.0627 90.1312 81.2262C84.919 83.4771 79.4174 84.5589 73.75 84.5589V84.5589Z" fill="#14FFCA"/>
</g>
<path id="Vector_3" fill-rule="evenodd" clip-rule="evenodd" d="M40.7616 100.88L37.59 108.329H34.1766L31.0076 101.044V109.859H27.3706V95.7526H32.4036L35.8846 104.651L39.3604 95.7526H44.3985V109.859H40.7616V100.882V100.88ZM54.9091 110C53.6508 110 52.3796 109.828 51.2045 109.359C50.2166 108.962 49.3327 108.381 48.6854 107.521C48.0719 106.705 47.7859 105.772 47.7859 104.75V100.864C47.7859 99.8422 48.0693 98.9065 48.6854 98.0906C49.3301 97.2331 50.2166 96.6466 51.2045 96.253C52.377 95.7839 53.6508 95.6118 54.9091 95.6118C56.1647 95.6118 57.436 95.7865 58.6084 96.253C59.5963 96.6466 60.4802 97.2331 61.1275 98.0906C61.7436 98.9091 62.027 99.8422 62.027 100.864V104.75C62.027 105.772 61.741 106.705 61.1301 107.521C60.4854 108.381 59.6015 108.965 58.611 109.359C57.4386 109.828 56.1673 110 54.9117 110H54.9091ZM71.937 98.638V109.859H67.9725V98.638H62.8095V95.7526H77.1V98.638H71.937ZM85.003 110C83.7448 110 82.4735 109.828 81.2985 109.359C80.3106 108.962 79.4267 108.381 78.7794 107.521C78.1658 106.705 77.8799 105.772 77.8799 104.75V100.864C77.8799 99.8422 78.1632 98.9065 78.7794 98.0906C79.4241 97.2331 80.3106 96.6466 81.2985 96.253C82.4709 95.7839 83.7448 95.6118 85.003 95.6118C86.2587 95.6118 87.5299 95.7865 88.7024 96.253C89.6903 96.6466 90.5742 97.2331 91.2215 98.0906C91.8376 98.9091 92.121 99.8422 92.121 100.864V104.75C92.121 105.772 91.835 106.705 91.2241 107.521C90.5793 108.381 89.6954 108.965 88.705 109.359C87.5325 109.828 86.2613 110 85.0056 110H85.003ZM105.603 104.135L110.191 109.859H105.361L101.087 104.341H99.2077V109.859H95.2458V95.7448H103.747C104.711 95.7448 105.681 95.8907 106.575 96.2713C107.342 96.5997 108.013 97.0845 108.496 97.7752C108.972 98.4529 109.185 99.2193 109.185 100.046C109.185 100.869 108.97 101.636 108.496 102.311C108.013 103.001 107.34 103.489 106.57 103.817C106.258 103.95 105.933 104.057 105.603 104.135ZM126.959 104.474L129.283 95.7526H133.378L128.883 109.859H125.236L122.01 100.661L118.63 109.859H114.985L110.49 95.7526H114.585L116.909 104.474L120.367 95.7526H123.499L126.957 104.474H126.959ZM144.06 107.659H137.361L136.295 109.857H132L139.459 95.75H141.96L149.418 109.857H145.126L144.06 107.659ZM156.877 104.43V109.859H152.912V104.43L147.167 95.7526H151.381L154.898 101.479L158.413 95.7526H162.63L156.879 104.43H156.877ZM54.9065 107.023C55.455 107.023 56.0139 106.948 56.5235 106.742C56.9368 106.575 57.306 106.33 57.5685 105.965C57.8181 105.624 57.9273 105.238 57.9273 104.815V100.799C57.9273 100.379 57.8155 99.9934 57.5685 99.6519C57.3034 99.287 56.9368 99.0394 56.5235 98.8726C56.0139 98.6641 55.4524 98.5911 54.9065 98.5911C54.3579 98.5911 53.7964 98.6641 53.2843 98.8726C52.8709 99.042 52.5044 99.287 52.2392 99.6519C51.9922 99.9934 51.8804 100.379 51.8804 100.799V104.815C51.8804 105.238 51.9896 105.624 52.2392 105.965C52.5044 106.33 52.8709 106.575 53.2843 106.742C53.7964 106.95 54.3579 107.023 54.9065 107.023ZM85.0004 107.023C85.549 107.023 86.1079 106.948 86.6174 106.742C87.0308 106.575 87.3973 106.33 87.6625 105.965C87.9121 105.624 88.0213 105.238 88.0213 104.815V100.799C88.0213 100.379 87.9095 99.9934 87.6625 99.6519C87.3973 99.287 87.0308 99.0394 86.6174 98.8726C86.1079 98.6641 85.5464 98.5911 85.0004 98.5911C84.4519 98.5911 83.8904 98.6641 83.3782 98.8726C82.9649 99.042 82.5983 99.287 82.3331 99.6519C82.0862 99.9934 81.9744 100.379 81.9744 100.799V104.815C81.9744 105.238 82.0836 105.624 82.3331 105.965C82.5983 106.33 82.9649 106.575 83.3782 106.742C83.8904 106.95 84.4519 107.023 85.0004 107.023ZM99.2077 101.461H103.463C103.765 101.461 104.067 101.411 104.342 101.281C104.579 101.169 104.768 101.013 104.906 100.788C105.052 100.562 105.114 100.306 105.122 100.043C105.122 99.7797 105.06 99.5268 104.919 99.3001C104.781 99.0785 104.592 98.9195 104.358 98.8074C104.082 98.6771 103.77 98.6302 103.466 98.6302H99.2103V101.463L99.2077 101.461ZM142.664 104.779L140.709 100.747L138.757 104.779H142.664Z" fill="white"/>
</g>
</svg>
