<svg width="80" height="100" viewBox="0 0 80 100" fill="none" xmlns="http://www.w3.org/2000/svg">
<circle cx="40" cy="40" r="40" fill="#14FFCA"/>
<path d="M40 78L40 100" stroke="#14FFCA" stroke-width="4"/>
<path fill-rule="evenodd" clip-rule="evenodd" d="M31.7349 34.806V34.7908V34.7757V34.761V34.7567L31.7354 34.7459V34.7307V34.7156V34.7067L31.7358 34.7008V34.6856L31.7361 34.6705V34.6574V34.6558L31.7366 34.6406L31.737 34.6255L31.7373 34.6108V34.608L31.7378 34.5957L31.7383 34.5805L31.7385 34.5658V34.5586L31.739 34.5507L31.7395 34.5356L31.7397 34.5207L31.7402 34.5092L31.7407 34.5056L31.7409 34.4904L31.7414 34.4757L31.7422 34.4606V34.4599L31.7431 34.4459L31.7435 34.4308L31.7444 34.4156L31.7447 34.4108L31.7451 34.4008L31.7459 34.3857L31.7466 34.371L31.7471 34.3614L31.7476 34.3558L31.7483 34.3411L31.7491 34.326L31.75 34.3123V34.3112L31.7508 34.296L31.752 34.2813L31.7528 34.2666L31.7532 34.263L31.754 34.2515L31.7549 34.2366L31.7561 34.2215L31.7564 34.214L31.7569 34.2068L31.7582 34.1917L31.7594 34.177L31.7601 34.165L31.7606 34.1621L31.7618 34.147L31.763 34.1323L31.7642 34.1176V34.116L31.7655 34.1025L31.7667 34.0876L31.7682 34.0729L31.7686 34.0669L31.7694 34.0578L31.7711 34.0431L31.7724 34.0284L31.7736 34.0184L31.774 34.0136L31.775 33.9984L31.7767 33.9837L31.7784 33.9693V33.969L31.78 33.9542L31.7817 33.9395L31.7834 33.9248L31.7836 33.9208L31.7848 33.9097L31.7866 33.8948L31.7883 33.8801L31.7895 33.8722L31.7902 33.8655L31.7917 33.8506C31.8796 33.1248 32.0684 32.4218 32.3703 31.7477C32.7801 30.8275 33.3468 29.9989 34.0711 29.2891C34.8005 28.5744 35.6555 28.0195 36.6027 27.62C37.5876 27.2048 38.6276 27 39.7003 27H40.0106H68.5198L61.1039 32.2572H45.871H39.7003C39.3594 32.2572 39.0325 32.3182 38.7211 32.4557C38.4057 32.5946 38.1226 32.7807 37.878 33.02C37.6336 33.2599 37.4437 33.5372 37.3019 33.8458C37.1616 34.151 37.0994 34.4717 37.0994 34.8059C37.0994 34.935 37.1089 35.0617 37.1278 35.1868L37.1295 35.1963L37.1303 35.202L37.1313 35.2063L37.1325 35.2159L37.1328 35.2174L37.134 35.2258L37.1352 35.233L37.1356 35.2354L37.1377 35.245L37.1381 35.2486L37.1393 35.2549L37.1408 35.2641V35.2645L37.143 35.2741L37.1438 35.2792L37.1446 35.2835L37.1467 35.2936L37.147 35.2948L37.1487 35.3032L37.1499 35.3102L37.1506 35.3126L37.1528 35.3222L37.1531 35.3258L37.1548 35.3318L37.1568 35.341V35.3414L37.1588 35.351L37.16 35.3566L37.1612 35.3609L37.1634 35.3705L37.1636 35.3717L37.1658 35.3801L37.1674 35.3871L37.1678 35.3895L37.1702 35.3991L37.171 35.4023L37.1727 35.4083L37.1752 35.4174V35.4179L37.1776 35.4275L37.1788 35.433L37.18 35.437L37.1825 35.4465L37.1833 35.4481L37.1852 35.4561L37.1872 35.4633L37.1877 35.4657L37.1906 35.4748L37.1914 35.4784L37.1933 35.4844L37.1958 35.4936V35.494L37.1987 35.5035L37.2002 35.5087L37.2014 35.5127L37.2044 35.5222L37.2052 35.5238L37.2076 35.5318L37.2097 35.539L37.2105 35.5409L37.2134 35.5505L37.2147 35.5541L37.2166 35.5601L37.2194 35.5693L37.2227 35.5789L37.2247 35.5844L37.226 35.588L37.2291 35.5976L37.2296 35.5991L37.2324 35.6067L37.2348 35.6142L37.2358 35.6162L37.2389 35.6255L37.2402 35.6294L37.2422 35.6349L37.2458 35.6442L37.249 35.6536L37.2515 35.6593L37.2527 35.6628L37.2564 35.6724L37.2573 35.674L37.26 35.6815L37.263 35.6892L37.2637 35.6907L37.2674 35.7003L37.2686 35.7039L37.2711 35.7094L37.2747 35.7186L37.2785 35.7282L37.2809 35.7334L37.2824 35.7373L37.2861 35.7466L37.287 35.7485L37.2902 35.7557L37.2934 35.7632L37.2942 35.7649L37.2983 35.7745L37.3 35.7779L37.3025 35.7836L37.3064 35.7928C37.446 36.1038 37.6324 36.3851 37.878 36.6257L37.884 36.6317L37.8889 36.6364L37.8906 36.6376L37.8967 36.644L37.9004 36.6472L37.9029 36.65L37.9093 36.656L37.9117 36.6579L37.9155 36.662L37.922 36.6675L37.9232 36.6687L37.9284 36.6735L37.9345 36.6791V36.6794L37.9411 36.6854L37.9459 36.6894L37.9476 36.6911L37.9537 36.6969L37.9573 36.6998L37.9601 36.7026L37.9667 36.7085L37.9687 36.7101L37.9731 36.7142L37.9797 36.7197L37.9804 36.7205L37.9863 36.7252L37.9919 36.7305L37.9927 36.7312L37.9993 36.7368L38.0037 36.7404L38.0057 36.7423L38.0123 36.748L38.0155 36.7504L38.0187 36.7536L38.0252 36.7587L38.0273 36.7603L38.0321 36.7644L38.0386 36.7699L38.039 36.7702L38.0451 36.7755L38.0508 36.7798L38.052 36.7807L38.0586 36.7863L38.0631 36.7894L38.0651 36.7914L38.0719 36.7966L38.0748 36.799L38.0785 36.8022L38.0854 36.8074C38.2708 36.9523 38.4761 37.0711 38.698 37.1631C38.7427 37.1819 38.7875 37.1989 38.833 37.2145C38.9078 37.3547 38.9777 37.4977 39.0428 37.6438C39.3774 38.3936 39.527 39.1836 39.527 40.0002C39.527 40.8164 39.3777 41.6064 39.0431 42.3557C39.0049 42.4413 38.9647 42.5254 38.9237 42.6091C38.1249 42.5334 37.3479 42.3399 36.6023 42.0251C35.9693 41.7582 35.378 41.422 34.8377 41.0149L34.8286 41.008L34.825 41.0053L34.8124 40.9957L34.7999 40.9861L34.7909 40.9794L34.7872 40.9765L34.7751 40.9671L34.7624 40.9575L34.7531 40.9503L34.7499 40.9479L34.7377 40.9383L34.7251 40.9284L34.7158 40.9212L34.7129 40.9188L34.7004 40.9092L34.6881 40.8993L34.6783 40.8917L34.6754 40.8897L34.6633 40.8798L34.651 40.8698L34.6413 40.8623L34.6385 40.8599L34.6263 40.8503L34.614 40.8404L34.6042 40.8323L34.6018 40.8303L34.5897 40.8204L34.5774 40.8104L34.5677 40.802L34.5652 40.8005L34.5531 40.7902L34.5409 40.7801L34.5311 40.7717L34.5286 40.7702L34.5164 40.7599L34.5046 40.7498L34.4945 40.7412L34.4925 40.7395L34.4803 40.7296L34.4685 40.7193L34.4583 40.7104L34.4563 40.7089L34.4445 40.6986L34.4322 40.6885L34.4222 40.6794L34.4205 40.6782L34.4087 40.6679L34.3965 40.6571L34.3863 40.6479L34.3846 40.6467L34.3728 40.6364L34.3611 40.626L34.3505 40.6164L34.3493 40.6157L34.3375 40.6049L34.3258 40.5946L34.3152 40.585L34.314 40.5838L34.3023 40.5734L34.2905 40.5626L34.2799 40.5527L34.2786 40.552L34.2669 40.5412L34.2554 40.5309L34.2444 40.5205L34.2437 40.5201L34.2319 40.5093L34.2205 40.4985L34.2095 40.4881L34.2088 40.4878L34.1973 40.4766L34.1855 40.4659L34.1745 40.4554L34.1742 40.4551L34.1627 40.4439L34.1509 40.4332L34.14 40.4225L34.1396 40.422L34.1281 40.4112L34.1168 40.4001L34.1055 40.3893L34.094 40.3782L34.0827 40.367L34.0712 40.3559C33.3416 39.6412 32.7757 38.8039 32.3679 37.8757C31.9394 36.9005 31.7349 35.8672 31.7349 34.8059L31.7349 34.806ZM47.902 37.3547H62.0342C63.1138 37.3547 64.1651 37.5535 65.1554 37.9774C66.0941 38.379 66.9393 38.9342 67.6638 39.6441C68.3934 40.3588 68.9592 41.1961 69.367 42.1243C69.7955 43.0995 70 44.1328 70 45.1941C70 46.2457 69.7914 47.2648 69.367 48.2304C68.9592 49.1586 68.3934 49.9963 67.6638 50.7109C66.9393 51.4204 66.0941 51.9758 65.1554 52.3773C64.1651 52.8012 63.1138 53 62.0342 53H40.0111L40.0317 52.9897L40.0761 52.9673L40.1114 52.9489L40.1906 52.9083L40.2057 52.9008L40.27 52.8673L40.2703 52.8669L40.3346 52.833L40.3488 52.8255L40.3989 52.7988L40.4273 52.7837L40.463 52.7641L40.5053 52.741L40.5268 52.7295L40.5835 52.698L40.5904 52.6944L40.6537 52.659L40.661 52.6546L40.7171 52.6232L40.7387 52.6107L40.7802 52.5872L40.8159 52.5665L40.8432 52.5511L40.8927 52.522L40.9058 52.5143L40.9683 52.4777L40.9692 52.4768L41.0306 52.4403L41.0456 52.4314L41.0928 52.4028L41.1216 52.3853L41.1545 52.3653L41.1973 52.3391L41.2163 52.3271L41.2724 52.292L41.2777 52.2889L41.3391 52.2502L41.3477 52.2451L41.4004 52.2115L41.4225 52.1973L41.4968 52.149L41.5221 52.1327L41.5712 52.1009L41.5827 52.0933L41.6432 52.0531L41.6453 52.0519L41.7034 52.0128L41.7188 52.0024L41.7632 51.9721L41.7924 51.9522L41.8228 51.9315L41.8652 51.902L41.8826 51.8901L41.938 51.8515L41.942 51.8486L42.0009 51.8068L42.0103 51.8005L42.0599 51.765L42.0827 51.7486L42.1188 51.7229L42.1542 51.6969L42.1774 51.6801L42.2258 51.6443L42.2355 51.6371L42.2937 51.5941L42.2974 51.5914L42.3518 51.5503L42.368 51.5379L42.4095 51.5069L42.4389 51.4845L42.4669 51.4626L42.5087 51.4304L42.5242 51.4184L42.5787 51.3758L42.5811 51.3739L42.638 51.3288L42.6486 51.3208L42.6949 51.2838L42.7177 51.2651L42.7514 51.2379L42.7868 51.2093L42.8075 51.1925L42.8556 51.1531L42.8637 51.1463L42.9193 51.1002L42.9238 51.0961L42.975 51.0536L42.9917 51.0392L43.0303 51.0065L43.0596 50.9815L43.0851 50.9591L43.1266 50.9236L43.1405 50.9118L43.1938 50.8651L43.195 50.8639L43.2494 50.8161L43.2605 50.8062L43.3039 50.7676L43.327 50.7469L43.3576 50.719L43.3929 50.6871L43.4116 50.6703L43.4587 50.6269L43.4653 50.621L43.5185 50.5715L43.5239 50.5664L43.5718 50.5217L43.5889 50.5054L43.6247 50.4715L43.6535 50.4441L43.6772 50.4213L43.7181 50.3819L43.7299 50.3708L43.7819 50.3198L43.8194 50.2831L43.8454 50.2571L43.8567 50.246L43.8937 50.209L43.9088 50.1939L43.9307 50.172L43.9673 50.1345L43.9715 50.1305L43.9751 50.1266L44.0336 50.0668L44.0405 50.0596L44.0772 50.0221L44.0959 50.0031L44.1132 49.9843L44.1491 49.9466L44.1571 49.9385L44.1853 49.9086L44.2182 49.8736L44.2209 49.8709L44.2565 49.8325L44.2788 49.8087L44.2918 49.7943L44.3271 49.7557L44.3389 49.7433L44.3624 49.7174L44.3975 49.6789L44.3982 49.6777L44.4323 49.6402L44.4575 49.6119L44.4669 49.6011L44.5015 49.5621L44.5165 49.5453L44.5356 49.5231L44.5702 49.484L44.5746 49.4789L44.6043 49.4446L44.6327 49.4119L44.6381 49.4051L44.6719 49.3657L44.6901 49.3446L44.7055 49.3263L44.7389 49.2864L44.747 49.2768L44.7722 49.2466L44.8039 49.2088L44.8056 49.2067L44.8385 49.1665L44.86 49.1406L44.8714 49.1266L44.9039 49.0865L44.9158 49.0721L44.9366 49.0458L44.969 49.0055L44.9711 49.0031L45.0016 48.9649L45.0259 48.9339L45.0337 48.9243L45.0653 48.8834L45.08 48.8646L45.0975 48.8423L45.1288 48.8017L45.1341 48.7949L45.1605 48.7601L45.1877 48.7248L45.1918 48.7192L45.2231 48.6777L45.2407 48.6541L45.254 48.6363L45.2848 48.5948L45.2934 48.5837L45.3157 48.553L45.3454 48.5123L45.3462 48.5116L45.3768 48.4698L45.3971 48.4411L45.4072 48.4275L45.4374 48.3857L45.4487 48.3698L45.4671 48.3436L45.497 48.3013L45.4995 48.2977L45.5267 48.259L45.5499 48.2256L45.5564 48.2164L45.5857 48.1737L45.6 48.153L45.615 48.1311L45.6439 48.0886L45.6496 48.0802L45.6726 48.0455L45.6984 48.0073L45.7016 48.0025L45.7305 47.9595L45.7471 47.934L45.7589 47.9165L45.7869 47.873L45.7955 47.8603L45.8154 47.8296L45.843 47.7862L45.871 47.7428H62.0342C62.3756 47.7428 62.7025 47.6818 63.014 47.5443C63.3294 47.4054 63.6123 47.2193 63.8567 46.9799C64.1015 46.7406 64.2908 46.4633 64.4326 46.1542C64.5729 45.849 64.6351 45.5283 64.6351 45.1941C64.6351 44.8502 64.5693 44.5221 64.4282 44.2073C64.2889 43.8962 64.1022 43.6153 63.8567 43.3747C63.6196 43.1425 63.346 42.9657 63.037 42.8369C62.7172 42.7035 62.3813 42.6453 62.0342 42.6453H47.902L47.9042 42.6354L47.9094 42.6047L47.9172 42.5641L47.9204 42.5458L47.9245 42.523L47.9314 42.4824L47.9363 42.4562L47.9383 42.4418L47.9452 42.4007L47.9513 42.3665L47.952 42.3601L47.9591 42.319L47.9655 42.2784L47.966 42.2769L47.9717 42.2375L47.9781 42.1964L47.9798 42.1868L47.9842 42.1558L47.9903 42.1147L47.9933 42.0969L47.9964 42.0736L48.0021 42.0327L48.0135 41.9506L48.0185 41.9164L48.0192 41.9095L48.0244 41.8686L48.0298 41.8275L48.0303 41.8259L48.0347 41.7861L48.0399 41.7451L48.0411 41.7355L48.0448 41.704L48.0493 41.6626L48.0517 41.6451L48.0541 41.6216L48.0587 41.5802L48.0614 41.5543L48.0631 41.5391L48.0671 41.4977L48.0707 41.4639L48.0717 41.4567L48.0757 41.4151L48.0793 41.3738L48.0798 41.373L48.0835 41.3324L48.0871 41.2913L48.0879 41.2822L48.0909 41.2499L48.094 41.2084L48.0956 41.1909L48.0977 41.167L48.1009 41.1255L48.1029 41.0997L48.1039 41.0842L48.107 41.0428L48.1095 41.0085L48.1098 41.001L48.1127 40.9594L48.1151 40.9181V40.9173L48.1176 40.8765L48.1201 40.8347L48.1208 40.826L48.1225 40.7934L48.1245 40.7515L48.1253 40.7345L48.1265 40.7102L48.1286 40.6683L48.1298 40.6432L48.1301 40.6268L48.1323 40.585L48.1336 40.5516L48.1339 40.5437L48.1351 40.5018L48.1367 40.46L48.1379 40.4185L48.1387 40.3767L48.1392 40.368L48.14 40.3348L48.1407 40.293L48.1412 40.2764L48.1417 40.2512L48.1419 40.2094L48.1424 40.1844L48.1429 40.1676L48.1431 40.1257V40.0923V40.0839L48.1436 40.0421V40.0003V39.9585L48.1431 39.9166V39.9082V39.8748L48.1429 39.833L48.1424 39.8162L48.1419 39.7912L48.1417 39.7494L48.1412 39.7242L48.1407 39.7075L48.14 39.6656L48.1392 39.6326L48.1387 39.6237L48.1379 39.5819L48.1367 39.5405V39.5401L48.1351 39.4987L48.1339 39.4569L48.1336 39.449L48.1323 39.4151L48.1306 39.3737L48.1298 39.3574L48.1286 39.3317L48.1265 39.2904L48.1253 39.2656L48.1245 39.2486L48.1225 39.2072L48.1208 39.1745L48.1201 39.1654L48.1176 39.1238L48.1151 39.0832V39.0825L48.1127 39.0406L48.1098 38.9991L48.1095 38.9916L48.107 38.9577L48.1041 38.9164L48.1029 38.9008L48.1009 38.8748L48.0977 38.8335L48.0956 38.8095L48.0944 38.792L48.0909 38.7506L48.0879 38.7184L48.0871 38.7092L48.0835 38.6677L48.0798 38.6275V38.6263L48.0757 38.5852L48.0717 38.5439L48.0707 38.5367L48.0676 38.5023L48.0631 38.4614L48.0614 38.4458L48.0587 38.4199L48.0541 38.379L48.0517 38.3555L48.0496 38.3375L48.0448 38.2964L48.0411 38.2646L48.0399 38.255L48.035 38.214L48.0298 38.1742V38.173L48.0244 38.132L48.0192 38.0906L48.0185 38.0841L48.0139 38.0495L48.0082 38.0084L48.0062 37.9938L48.0026 37.9674L47.9964 37.9264L47.9933 37.9037L47.9908 37.8858L47.9847 37.8448L47.9798 37.8137L47.9781 37.8037L47.9722 37.7626L47.966 37.7236L47.9656 37.722L47.9591 37.6811L47.9521 37.64L47.9513 37.6336L47.9457 37.5994L47.9388 37.5583L47.9364 37.5439L47.9314 37.5177L47.9245 37.4771L47.9205 37.4543L47.9172 37.436L47.9098 37.3954L47.9042 37.3651L47.902 37.3548L47.902 37.3547Z" fill="#151515"/>
<path fill-rule="evenodd" clip-rule="evenodd" d="M33.2894 53H23.2921C21.5024 53 19.7651 52.6674 18.1191 51.9753C16.5358 51.31 15.1115 50.3847 13.8929 49.1927C12.6738 48.0009 11.728 46.6074 11.0478 45.0585C10.341 43.4492 10 41.7506 10 40.0002C10 38.2499 10.341 36.5508 11.0478 34.9415C11.7283 33.3921 12.6738 31.9996 13.8924 30.8073C15.111 29.6153 16.5358 28.69 18.1191 28.0247C19.7651 27.3326 21.5024 27 23.2921 27H33.2894C33.6445 27 33.9981 27.0136 34.3488 27.0399C33.8523 27.3689 33.3872 27.7433 32.9591 28.1625C32.0895 29.0125 31.4051 30.0089 30.9136 31.1099C30.746 31.4848 30.6072 31.8681 30.4949 32.2572H23.2921C22.2303 32.2572 21.2031 32.4488 20.2299 32.8651C19.2841 33.2699 18.4368 33.8244 17.707 34.5379C16.9771 35.2517 16.4105 36.0804 15.9966 37.0052C15.571 37.957 15.375 38.9617 15.375 40.0002C15.375 41.0387 15.571 42.043 15.9966 42.9947C16.4109 43.92 16.9771 44.7482 17.707 45.462C18.4368 46.1755 19.2841 46.73 20.2299 47.1349C21.2031 47.5512 22.2303 47.7427 23.2921 47.7427H33.2894C34.3512 47.7427 35.3786 47.5512 36.3517 47.1349C37.2974 46.73 38.1447 46.1755 38.8745 45.462C39.6046 44.7482 40.1707 43.92 40.5849 42.9947C41.0107 42.043 41.2065 41.0387 41.2065 40.0002C41.2065 38.9617 41.0107 37.957 40.5849 37.0052C40.1711 36.0804 39.6046 35.2517 38.8745 34.5379L38.8342 34.4984C38.8949 34.3666 38.9728 34.2491 39.077 34.1467C39.1821 34.0443 39.3035 33.9682 39.4387 33.9088C39.5385 33.8646 39.6424 33.8506 39.7511 33.8506H44.9962C45.1904 34.2049 45.3701 34.5685 45.5339 34.9415C46.2409 36.5508 46.5815 38.2499 46.5815 40.0002C46.5815 41.7506 46.2409 43.4492 45.5339 45.0585C44.8537 46.6074 43.9079 48.0009 42.6888 49.1927C41.47 50.3847 40.0457 51.31 38.4624 51.9753C36.8164 52.6674 35.0791 53 33.2894 53Z" fill="white"/>
</svg>
