<?xml version="1.0" standalone="no"?>
<!DOCTYPE svg PUBLIC "-//W3C//DTD SVG 20010904//EN"
 "http://www.w3.org/TR/2001/REC-SVG-20010904/DTD/svg10.dtd">
<svg version="1.0" xmlns="http://www.w3.org/2000/svg"
 width="700.000000pt" height="700.000000pt" viewBox="0 0 700.000000 700.000000"
 preserveAspectRatio="xMidYMid meet">
<metadata>
Created by potrace 1.14, written by Peter Selinger 2001-2017
</metadata>
<g transform="translate(0.000000,700.000000) scale(0.100000,-0.100000)"
fill="#000000" stroke="none">
<path d="M0 3500 l0 -3500 3500 0 3500 0 0 3500 0 3500 -3500 0 -3500 0 0
-3500z m2952 1164 l44 -6 -86 -87 c-93 -93 -163 -200 -202 -307 l-22 -62 -361
-4 c-299 -4 -370 -8 -419 -22 -186 -53 -357 -196 -439 -367 -58 -121 -72 -180
-72 -309 0 -129 14 -188 72 -309 83 -173 256 -316 444 -368 57 -16 119 -18
589 -18 479 0 531 2 590 18 188 53 350 187 433 357 26 52 54 122 62 155 20 78
20 253 0 330 -22 87 -85 212 -139 278 l-47 57 25 25 25 25 239 0 239 0 31 -67
c118 -260 134 -565 46 -845 -119 -376 -429 -672 -805 -768 -135 -35 -299 -42
-799 -37 -418 4 -474 7 -555 25 -457 102 -801 460 -890 926 -21 106 -21 326 0
432 98 517 514 901 1020 944 110 9 915 12 977 4z m2978 1 c0 -5 -154 -122
-433 -328 l-199 -147 -939 0 c-905 0 -941 -1 -977 -19 -80 -41 -126 -117 -126
-206 0 -90 33 -142 133 -215 12 -8 31 -42 43 -75 30 -84 31 -264 1 -345 l-20
-55 -51 2 c-170 7 -398 177 -490 365 -58 118 -75 192 -75 323 -1 132 17 205
75 325 34 67 60 103 128 171 116 116 231 176 385 199 53 8 2545 13 2545 5z
m-430 -939 c357 -64 608 -412 560 -776 -23 -173 -81 -291 -205 -416 -59 -59
-101 -91 -161 -122 -159 -82 -77 -76 -1194 -79 -782 -2 -991 0 -977 10 11 7
53 34 95 61 91 58 279 242 343 336 l45 65 724 5 c651 4 728 7 755 22 137 75
161 263 48 370 -62 59 -45 58 -728 58 l-625 0 7 83 c5 45 8 116 8 157 0 41 -3
112 -8 158 l-7 82 622 0 c477 -1 641 -4 698 -14z"/>
</g>
</svg>
