<svg width="32" height="32" viewBox="0 0 32 32" fill="none" xmlns="http://www.w3.org/2000/svg">
<g id="cross-svgrepo-com (2) 1">
<path id="Vector" d="M8.30563 22.2187C7.89812 22.6263 7.89812 23.2869 8.30563 23.6944C8.71313 24.1019 9.37383 24.1019 9.78133 23.6944L8.30563 22.2187ZM16.7378 16.7378C17.1453 16.3303 17.1453 15.6697 16.7378 15.2622C16.3303 14.8547 15.6697 14.8547 15.2622 15.2622L16.7378 16.7378ZM15.2622 15.2622C14.8547 15.6697 14.8547 16.3303 15.2622 16.7378C15.6697 17.1453 16.3303 17.1453 16.7378 16.7378L15.2622 15.2622ZM23.6944 9.78133C24.1019 9.37383 24.1019 8.71313 23.6944 8.30563C23.2869 7.89812 22.6263 7.89812 22.2187 8.30563L23.6944 9.78133ZM16.7378 15.2622C16.3303 14.8547 15.6697 14.8547 15.2622 15.2622C14.8547 15.6697 14.8547 16.3303 15.2622 16.7378L16.7378 15.2622ZM22.2187 23.6944C22.6263 24.1019 23.2869 24.1019 23.6944 23.6944C24.1019 23.2869 24.1019 22.6263 23.6944 22.2187L22.2187 23.6944ZM15.2622 16.7378C15.6697 17.1453 16.3303 17.1453 16.7378 16.7378C17.1453 16.3303 17.1453 15.6697 16.7378 15.2622L15.2622 16.7378ZM9.78133 8.30563C9.37383 7.89812 8.71313 7.89812 8.30563 8.30563C7.89812 8.71313 7.89812 9.37383 8.30563 9.78133L9.78133 8.30563ZM9.78133 23.6944L16.7378 16.7378L15.2622 15.2622L8.30563 22.2187L9.78133 23.6944ZM16.7378 16.7378L23.6944 9.78133L22.2187 8.30563L15.2622 15.2622L16.7378 16.7378ZM15.2622 16.7378L22.2187 23.6944L23.6944 22.2187L16.7378 15.2622L15.2622 16.7378ZM16.7378 15.2622L9.78133 8.30563L8.30563 9.78133L15.2622 16.7378L16.7378 15.2622Z" fill="white"/>
</g>
</svg>
