<svg width="18" height="18" viewBox="0 0 18 18" fill="none" xmlns="http://www.w3.org/2000/svg">
<g id="whatsapp-128-svgrepo-com 1">
<g id="Page-1">
<g id="Dribbble-Light-Preview">
<g id="icons">
<path id="whatsapp-[#128]" fill-rule="evenodd" clip-rule="evenodd" d="M13.584 12.2454C13.3943 12.7826 12.6398 13.227 12.0382 13.357C11.6263 13.4444 11.0892 13.5136 9.27956 12.7637C7.24702 11.9216 4.42463 8.92201 4.42463 6.92589C4.42463 5.90971 5.01053 4.72643 6.03506 4.72643C6.52804 4.72643 6.63671 4.73604 6.79894 5.12518C6.98873 5.58364 7.45178 6.7132 7.5069 6.82899C7.73449 7.304 7.27537 7.58207 6.94226 7.99563C6.83595 8.12009 6.71547 8.25469 6.85013 8.48628C6.984 8.71315 7.44705 9.46782 8.12745 10.0736C9.0063 10.8566 9.71899 11.1066 9.97414 11.2129C10.1639 11.2917 10.3907 11.2733 10.5293 11.1253C10.7049 10.9354 10.9231 10.6204 11.1451 10.3101C11.3019 10.0879 11.5011 10.0602 11.7098 10.139C11.8508 10.1878 13.6423 11.0198 13.7179 11.1529C13.7738 11.2498 13.7738 11.7081 13.584 12.2454ZM9.00157 1.125H8.99763C4.65615 1.125 1.125 4.65721 1.125 9C1.125 10.722 1.68019 12.3196 2.62441 13.6154L1.64318 16.5416L4.66954 15.5745C5.91458 16.3985 7.40059 16.875 9.00157 16.875C13.3431 16.875 16.875 13.3428 16.875 9C16.875 4.65721 13.3431 1.125 9.00157 1.125Z" fill="white"/>
</g>
</g>
</g>
</g>
</svg>
