<svg width="16" height="16" viewBox="0 0 16 16" fill="none" xmlns="http://www.w3.org/2000/svg">

<path fill-rule="evenodd" clip-rule="evenodd" d="M1.19268 1.12471C0.0791016 2.24942 0.0791016 4.05962 0.0791016 7.68V8.32C0.0791016 11.9404 0.0791016 13.7506 1.19268 14.8753C2.30625 16 4.09852 16 7.68306 16H8.31672C11.9013 16 13.6935 16 14.8071 14.8753C15.9207 13.7506 15.9207 11.9404 15.9207 8.32V7.68C15.9207 4.05962 15.9207 2.24942 14.8071 1.12471C13.6935 0 11.9013 0 8.31672 0H7.68306C4.09852 0 2.30625 0 1.19268 1.12471ZM2.75244 4.8667C2.83826 9.0267 4.89764 11.5267 8.50821 11.5267H8.71287V9.14668C10.0396 9.28003 11.0428 10.26 11.4455 11.5267H13.3201C12.8053 9.63336 11.4521 8.58668 10.6072 8.18668C11.4521 7.69336 12.6402 6.49337 12.924 4.8667H11.221C10.8513 6.1867 9.75577 7.38668 8.71287 7.50001V4.8667H7.00984V9.48003C5.95374 9.21336 4.62043 7.92003 4.56103 4.8667H2.75244Z" fill="white"/>
</svg>
