<svg width="16" height="16" viewBox="0 0 16 16" fill="none" xmlns="http://www.w3.org/2000/svg">
<g id="instagram-svgrepo-com (1) 1">
<path id="Vector" d="M10.938 1H5.06903C2.51976 1 1 2.519 1 5.067V10.926C1 13.481 2.51976 15 5.06903 15H10.9309C13.4802 15 15 13.481 15 10.933V5.067C15.007 2.519 13.4872 1 10.938 1ZM8.00349 10.716C6.50474 10.716 5.28614 9.498 5.28614 8C5.28614 6.502 6.50474 5.284 8.00349 5.284C9.50224 5.284 10.7208 6.502 10.7208 8C10.7208 9.498 9.50224 10.716 8.00349 10.716ZM12.1496 4.416C12.1145 4.5 12.0655 4.577 12.0025 4.647C11.9324 4.71 11.8554 4.759 11.7714 4.794C11.6873 4.829 11.5963 4.85 11.5052 4.85C11.3161 4.85 11.1411 4.78 11.008 4.647C10.945 4.577 10.8959 4.5 10.8609 4.416C10.8259 4.332 10.8049 4.241 10.8049 4.15C10.8049 4.059 10.8259 3.968 10.8609 3.884C10.8959 3.793 10.945 3.723 11.008 3.653C11.1691 3.492 11.4142 3.415 11.6383 3.464C11.6873 3.471 11.7293 3.485 11.7714 3.506C11.8134 3.52 11.8554 3.541 11.8974 3.569C11.9324 3.59 11.9675 3.625 12.0025 3.653C12.0655 3.723 12.1145 3.793 12.1496 3.884C12.1846 3.968 12.2056 4.059 12.2056 4.15C12.2056 4.241 12.1846 4.332 12.1496 4.416Z" fill="white"/>
</g>
</svg>
