<svg width="16" height="16" viewBox="0 0 16 16" fill="none" xmlns="http://www.w3.org/2000/svg">
<g id="telegram-svgrepo-com 1" clip-path="url(#clip0_657_333)">
<g id="&#233;&#161;&#181;&#233;&#157;&#162;-1">
<g id="Brand">
<g id="telegram_fill">
<path id="&#232;&#183;&#175;&#229;&#190;&#132;" fill-rule="evenodd" clip-rule="evenodd" d="M13.185 2.95306C13.9103 2.64768 14.6878 3.26097 14.5598 4.03743L13.0472 13.2086C12.9013 14.0928 11.9301 14.6002 11.1188 14.1596C10.44 13.7908 9.43276 13.2233 8.52503 12.6302C8.07176 12.334 6.68383 11.3842 6.85443 10.7082C7.00029 10.1301 9.33356 7.95817 10.6669 6.6665C11.1906 6.15912 10.9521 5.86601 10.3336 6.33317C8.79916 7.49204 6.33571 9.25397 5.52107 9.74984C4.80231 10.1873 4.42703 10.262 3.9794 10.1873C3.16198 10.0511 2.40413 9.84017 1.78541 9.5837C0.949167 9.23704 0.9899 8.08784 1.78485 7.75317L13.185 2.95306Z" fill="white"/>
</g>
</g>
</g>
</g>
<defs>
<clipPath id="clip0_657_333">
<rect width="16" height="16" fill="white"/>
</clipPath>
</defs>
</svg>
