<svg width="16" height="16" viewBox="0 0 16 16" fill="none" xmlns="http://www.w3.org/2000/svg">
<g id="youtube-168-svgrepo-com 1">
<g id="Page-1">
<g id="Dribbble-Light-Preview">
<g id="icons">
<path id="youtube-[#168]" fill-rule="evenodd" clip-rule="evenodd" d="M6.59191 9.84722V5.83878C7.98645 6.50838 9.06651 7.15522 10.3439 7.85259C9.29034 8.44882 7.98645 9.11779 6.59191 9.84722ZM14.3637 3.8452C14.1231 3.5218 13.7132 3.27006 13.2767 3.18672C11.9937 2.93811 3.98969 2.93741 2.70741 3.18672C2.35738 3.25368 2.04569 3.41552 1.77793 3.66698C0.649746 4.73548 1.00327 10.4655 1.2752 11.3937C1.38955 11.7954 1.53738 12.0852 1.72355 12.2754C1.96342 12.5268 2.29183 12.7 2.66905 12.7776C3.72542 13.0006 9.16763 13.1252 13.2543 12.8111C13.6309 12.7441 13.9642 12.5654 14.227 12.3033C15.2701 11.239 15.199 5.18724 14.3637 3.8452Z" fill="white"/>
</g>
</g>
</g>
</g>
</svg>
