<svg width="10" height="7" viewBox="0 0 10 7" fill="none" xmlns="http://www.w3.org/2000/svg">
<path d="M5.20424 5.94912C5.2295 6.00751 5.29009 6.03662 5.38439 6.03662H5.43155V6.11625H4.27298C4.20898 6.11625 4.16519 6.11231 4.13993 6.10444C4.11299 6.09639 4.09445 6.07378 4.08435 6.03662C4.0793 6.02601 4.07258 6.00888 4.06416 5.98491C4.05743 5.9611 4.04058 5.91196 4.01869 5.83764C3.99511 5.76332 3.96142 5.65321 3.92101 5.50731C3.87891 5.36124 3.81827 5.16089 3.74081 4.90625H1.72L1.62573 5.23264C1.53142 5.55629 1.41521 5.78986 1.27376 5.93319C1.1323 6.07652 0.979058 6.1481 0.812342 6.1481C0.733194 6.1481 0.650683 6.13218 0.564798 6.10032C0.478914 6.06847 0.398092 6.02344 0.322312 5.96504C0.246532 5.90665 0.182517 5.84038 0.130312 5.76606C0.0781083 5.69174 0.0444529 5.60937 0.0292969 5.51913C0.258321 5.52974 0.408181 5.43436 0.475541 5.23264L2.16629 0.463867H3.34003L5.20424 5.94912ZM1.98609 4.02246H3.46633L2.73715 1.50674L1.98609 4.02246Z" fill="white"/>
<path d="M9.29403 5.87439C9.29403 5.91581 9.31207 5.94037 9.34649 5.94822C9.38255 5.9559 9.42353 5.95974 9.46942 5.95974H9.51368V6.03741H8.39416C8.33843 6.03741 8.30727 6.01937 8.30236 5.98313C8.29744 5.94688 8.29579 5.91064 8.29579 5.87439V5.57156H8.27286C8.1401 5.75279 7.9893 5.89377 7.81883 5.99482C7.64836 6.09571 7.42707 6.14615 7.1517 6.14615C6.71078 6.14615 6.37478 6.0167 6.1453 5.75797C5.91747 5.49907 5.80107 5.14964 5.79615 4.70951C5.79123 4.41454 5.78635 4.17251 5.78471 3.98343C5.78143 3.79452 5.77979 3.64185 5.77979 3.52526V3.06326C5.77979 2.95452 5.78467 2.83543 5.79123 2.70614C5.79943 2.57669 5.8224 2.45627 5.8601 2.34502C5.8978 2.23361 5.95678 2.13924 6.03546 2.06157C6.11413 1.9839 6.2256 1.94498 6.36656 1.94498C6.57964 1.94498 6.75342 2.01497 6.88618 2.15477C7.01731 2.29458 7.10091 2.46796 7.13697 2.67508H7.1058C7.05007 2.67508 7.0042 2.69178 6.96978 2.72552C6.93372 2.75909 6.90585 2.81739 6.88618 2.90023C6.86488 2.98308 6.85012 3.09299 6.84028 3.23029C6.82881 3.36742 6.82388 3.53963 6.82388 3.74658V4.53096C6.82388 4.76397 6.87472 4.94252 6.97634 5.06679C7.07797 5.19107 7.24348 5.2532 7.47132 5.2532C7.71554 5.2532 7.90732 5.16902 8.04829 5.00082C8.18761 4.83245 8.25646 4.61631 8.25646 4.3524V4.12708C8.25646 4.03922 8.25645 3.95236 8.25318 3.86701C8.2499 3.78166 8.24989 3.69747 8.24989 3.61463C8.24989 3.41786 8.24829 3.22244 8.24501 3.02835C8.24337 2.83426 8.25809 2.65954 8.29087 2.5042C8.32365 2.34886 8.38267 2.22209 8.46627 2.12371C8.54986 2.02532 8.67608 1.97605 8.84327 1.97605C9.05799 1.97605 9.23009 2.04604 9.36122 2.18584C9.49398 2.32548 9.57758 2.49902 9.61364 2.70614H9.58251C9.52678 2.70614 9.47923 2.71901 9.44153 2.7449C9.40383 2.77079 9.37272 2.83292 9.35141 2.9313C9.32846 3.02968 9.31207 3.17199 9.30551 3.3584C9.29732 3.54481 9.29403 3.80103 9.29403 4.12708V5.87439ZM7.74672 1.27719C7.6746 1.27201 7.60739 1.25648 7.54019 1.23059C7.47462 1.2047 7.40903 1.17881 7.34674 1.15292C7.28282 1.12703 7.21726 1.10248 7.14842 1.07926C7.07958 1.05588 7.0042 1.04418 6.92388 1.04418C6.84684 1.04418 6.76324 1.05972 6.67145 1.09079C6.57966 1.12185 6.47641 1.17363 6.36004 1.24613C6.42068 0.951148 6.51575 0.753049 6.64524 0.652162C6.77473 0.551109 6.92388 0.500665 7.09107 0.500665C7.18778 0.500665 7.28774 0.512357 7.39264 0.535574C7.49591 0.558959 7.60084 0.584849 7.70902 0.613244C7.81556 0.641806 7.92045 0.667696 8.02372 0.690913C8.12862 0.714298 8.22862 0.725823 8.32533 0.725823C8.62037 0.725823 8.80885 0.637798 8.88917 0.461914C8.87442 0.611908 8.83673 0.740188 8.77936 0.846252C8.72036 0.952317 8.64494 1.03784 8.55479 1.10248C8.463 1.16729 8.35811 1.21372 8.24173 1.24228C8.12535 1.27068 8.00242 1.28504 7.87621 1.28504C7.84999 1.28504 7.82865 1.28504 7.81062 1.28504C7.79423 1.28504 7.7713 1.28237 7.74672 1.27719Z" fill="white"/>
</svg>
