<svg width="20" height="20" viewBox="0 0 20 20" fill="none" xmlns="http://www.w3.org/2000/svg">
<path fill-rule="evenodd" clip-rule="evenodd" d="M5.80003 3.44155C5.7205 3.36231 5.66377 3.26311 5.63582 3.15438C5.60786 3.04565 5.60972 2.93139 5.64118 2.82362C5.67264 2.71585 5.73255 2.61854 5.81461 2.54193C5.89667 2.46531 5.99786 2.41221 6.10753 2.38821L10.08 1.51738C10.1824 1.49497 10.2888 1.49867 10.3894 1.52814C10.4899 1.5576 10.5815 1.61188 10.6556 1.68599C10.7297 1.76009 10.784 1.85165 10.8134 1.95222C10.8429 2.0528 10.8466 2.15917 10.8242 2.26155L9.95253 6.23405C9.92846 6.34346 9.87543 6.44439 9.79898 6.52628C9.72253 6.60816 9.62547 6.668 9.51797 6.69951C9.41047 6.73103 9.29647 6.73308 9.1879 6.70543C9.07934 6.67779 8.9802 6.62147 8.90087 6.54238L5.7992 3.44071L5.80003 3.44155ZM11.4142 18.829C12.0993 18.829 12.7564 18.5569 13.2409 18.0724C13.7254 17.5879 13.9975 16.9309 13.9975 16.2457C13.9975 15.5606 13.7254 14.9035 13.2409 14.419C12.7564 13.9346 12.0993 13.6624 11.4142 13.6624C10.7291 13.6624 10.072 13.9346 9.58751 14.419C9.10304 14.9035 8.83087 15.5606 8.83087 16.2457C8.83087 16.9309 9.10304 17.5879 9.58751 18.0724C10.072 18.5569 10.7291 18.829 11.4142 18.829ZM6.17253 6.16905C6.01626 6.01282 5.80434 5.92506 5.58337 5.92506C5.3624 5.92506 5.15047 6.01282 4.9942 6.16905L3.07503 8.08738C2.74644 8.41595 2.48578 8.80602 2.30794 9.23533C2.13011 9.66464 2.03857 10.1248 2.03857 10.5895C2.03857 11.0541 2.13011 11.5143 2.30794 11.9436C2.48578 12.3729 2.74644 12.763 3.07503 13.0915L3.07837 13.094C3.7432 13.7572 4.64403 14.1294 5.58305 14.1289C6.52207 14.1285 7.42253 13.7554 8.0867 13.0915L13.0909 8.08738C13.8242 7.35405 15.0117 7.35405 15.745 8.08571C16.4767 8.81571 16.4775 10.0007 15.7475 10.7324L15.7459 10.7332L14.2709 12.2082C14.1145 12.3645 14.0266 12.5764 14.0265 12.7975C14.0265 13.0186 14.1142 13.2306 14.2704 13.387C14.4267 13.5433 14.6387 13.6312 14.8597 13.6313C15.0808 13.6314 15.2928 13.5436 15.4492 13.3874L16.9242 11.9124L16.9275 11.909C17.5901 11.2447 17.9618 10.3444 17.9607 9.40617C17.9596 8.4679 17.5858 7.56848 16.9217 6.90571C16.2569 6.24257 15.356 5.87037 14.417 5.87084C13.478 5.8713 12.5775 6.2444 11.9134 6.90821L6.90837 11.9124C6.17587 12.6457 4.98837 12.6457 4.2542 11.9124C3.90353 11.5614 3.70655 11.0856 3.70655 10.5895C3.70655 10.0933 3.90353 9.61751 4.2542 9.26655L6.17253 7.34738C6.32876 7.19111 6.41652 6.97918 6.41652 6.75821C6.41652 6.53724 6.32876 6.32532 6.17253 6.16905Z" fill="black"/>
</svg>
