<svg width="52" height="52" viewBox="0 0 52 52" fill="none" xmlns="http://www.w3.org/2000/svg">
<g id="stars-1-svgrepo-com (2) 1">
<path id="Vector" fill-rule="evenodd" clip-rule="evenodd" d="M26.9148 6.65555C26.1041 7.42537 25.1206 8.6688 23.6618 10.5234L22.9245 11.4608C22.8759 11.5226 22.8276 11.5841 22.7797 11.6453C22.1183 12.4896 21.5077 13.2688 20.65 13.7264C19.7781 14.1916 18.801 14.2458 17.7724 14.3027C17.6979 14.3069 17.6232 14.311 17.5482 14.3153L16.4055 14.381C14.1396 14.5113 12.6365 14.6026 11.5888 14.8289C10.5792 15.047 10.4278 15.3009 10.363 15.4312C10.286 15.5864 10.1812 15.9143 10.6037 16.9422C11.034 17.989 11.833 19.3476 13.0264 21.3649L13.6299 22.3851C13.6678 22.4492 13.7056 22.5127 13.7431 22.576C14.2947 23.5048 14.7912 24.3411 14.9218 25.3153C15.0514 26.2816 14.7996 27.2282 14.5158 28.2949C14.4965 28.3675 14.477 28.4405 14.4575 28.5141L14.1478 29.6854C13.5361 31.9988 13.126 33.5649 12.9881 34.713C12.8502 35.8613 13.0502 36.1189 13.1301 36.2049L13.1337 36.2091C13.1865 36.2667 13.3625 36.4595 14.3734 36.3427C15.3443 36.2307 16.6511 35.8871 18.5519 35.3634C17.9347 34.8495 17.3996 34.3737 16.9827 33.926C16.2461 33.135 15.5475 32.0863 15.7405 30.7317C15.9349 29.3669 16.9085 28.564 17.8436 28.0258C18.7395 27.5103 19.9856 27.0224 21.4196 26.461L22.3323 26.1035C22.7923 25.9232 23.0484 25.8216 23.2339 25.7313C23.3392 25.6799 23.3812 25.6509 23.3936 25.6409C23.4033 25.6284 23.4315 25.5861 23.4804 25.4812C23.5675 25.2949 23.6646 25.0379 23.8369 24.5758L24.1788 23.6584C24.7154 22.2182 25.1819 20.9659 25.6826 20.0625C26.2061 19.1178 26.993 18.1344 28.3528 17.9164C29.7018 17.7001 30.7628 18.3749 31.5697 19.096C32.3469 19.7906 33.212 20.8259 34.2124 22.0228L34.8453 22.7803C35.1651 23.1627 35.3462 23.3776 35.4942 23.5289C35.5605 23.5965 35.601 23.6311 35.6235 23.6487C35.6341 23.6569 35.6437 23.6632 35.6437 23.6632L35.6493 23.6664L35.6549 23.669C35.6549 23.669 35.6653 23.6727 35.6779 23.6762C35.7048 23.6836 35.7557 23.6953 35.8486 23.7076C36.0566 23.7356 36.3348 23.7518 36.8306 23.7787L37.8125 23.8318C38.2766 23.8569 38.7221 23.8809 39.1459 23.908C40.1631 23.0125 40.8413 22.3541 41.2649 21.8009C41.7183 21.2085 41.7231 20.9407 41.7023 20.7851C41.6815 20.6309 41.612 20.3349 40.7256 19.793C39.8063 19.231 38.4133 18.6462 36.3134 17.7723L35.2541 17.3315C35.185 17.3028 35.1163 17.2743 35.0476 17.2459C34.0917 16.8504 33.1891 16.4769 32.5174 15.752C31.8572 15.0393 31.5316 14.1054 31.176 13.0861C31.1507 13.0129 31.1249 12.9393 31.0989 12.8652L30.7024 11.7346C29.918 9.49869 29.3863 7.99529 28.8657 6.99691C28.3544 6.01654 28.0803 5.97309 28.0287 5.96493L28.0255 5.96441L28.022 5.96376C27.9737 5.95466 27.7063 5.90415 26.9148 6.65555ZM43.0987 24.6432C43.3772 24.3494 43.6274 24.0612 43.8454 23.7765C44.5892 22.805 45.1018 21.6831 44.9235 20.3532C44.7105 18.7661 43.64 17.7655 42.4208 17.0201C41.2597 16.3103 39.628 15.6313 37.689 14.8246L36.5028 14.331C35.2077 13.792 35.0292 13.681 34.9016 13.5432C34.7616 13.3923 34.6494 13.1684 34.1658 11.7896L33.7253 10.5338C32.9964 8.45531 32.3898 6.72584 31.7474 5.49402C31.0945 4.24243 30.1672 3.03243 28.5712 2.76056C26.9703 2.48786 25.6987 3.32866 24.6771 4.29869C23.6735 5.25157 22.5447 6.68671 21.1901 8.40895L20.37 9.45153C19.4691 10.5968 19.2947 10.7658 19.12 10.859C18.9605 10.9441 18.7612 10.9902 17.3617 11.0707L16.2189 11.1364C16.1727 11.1391 16.1266 11.1417 16.0807 11.1443C13.9902 11.2644 12.2289 11.3656 10.9025 11.6522C9.50873 11.9533 8.16644 12.5473 7.45215 13.9858C6.75018 15.3995 7.04863 16.8418 7.59778 18.1778C8.12863 19.4692 9.05297 21.0316 10.1629 22.9077L10.8328 24.04C11.563 25.2743 11.6691 25.5118 11.7007 25.7471C11.7333 25.9908 11.6899 26.2677 11.3155 27.6834L10.9731 28.9782C10.4024 31.1365 9.92959 32.9244 9.76132 34.3254C9.58992 35.7528 9.66902 37.2512 10.746 38.4139C11.8545 39.6103 13.3465 39.7329 14.7461 39.5713C16.0901 39.4162 17.8002 38.9434 19.831 38.382L20.1092 38.3051L21.404 37.6759C21.4375 37.7056 21.4682 37.7333 21.4966 37.76C21.5657 37.825 21.6011 37.8646 21.619 37.8867C21.6275 37.8971 21.6338 37.9064 21.6338 37.9064L21.6368 37.9114L21.6391 37.9164C21.6391 37.9164 21.6428 37.9259 21.6465 37.9383C21.6542 37.9643 21.6665 38.0145 21.6808 38.1064C21.7124 38.3129 21.7337 38.5896 21.7696 39.0836L21.8407 40.0629C21.9527 41.6062 22.05 42.9444 22.2764 43.9581C22.513 45.0176 22.9851 46.1746 24.2035 46.7865C25.4261 47.4005 26.6353 47.0818 27.622 46.6316C28.5632 46.2019 29.6827 45.4729 30.9706 44.6341L31.7903 44.1005C32.2032 43.8316 32.4342 43.6828 32.6153 43.5846C32.6959 43.5411 32.7419 43.5213 32.7653 43.5127C32.7765 43.5083 32.7843 43.5062 32.7843 43.5062L32.7865 43.5057L32.7893 43.5055C32.7893 43.5055 32.7986 43.5051 32.8114 43.5055C32.8383 43.5066 32.8901 43.5109 32.9826 43.5274C33.1895 43.564 33.4608 43.6334 33.9422 43.7586L34.8968 44.0071C36.402 44.3988 37.7055 44.7379 38.7385 44.8502C39.8102 44.9665 41.0733 44.8978 42.0384 43.9174C43.0047 42.9359 43.0511 41.671 42.9148 40.6022C42.7835 39.573 42.4195 38.2782 41.9998 36.7845L41.7333 35.8364C41.599 35.3582 41.5249 35.0895 41.4843 34.8841C41.4664 34.7927 41.4612 34.7416 41.4596 34.7154C41.4588 34.703 41.459 34.6946 41.459 34.6946L41.4594 34.6917C41.4594 34.6917 41.4614 34.6844 41.4653 34.6735C41.4735 34.6504 41.4919 34.6046 41.5342 34.5236C41.6291 34.3414 41.774 34.1087 42.0362 33.6916L42.5564 32.8639C43.3733 31.5646 44.0839 30.4342 44.4975 29.4872C44.9311 28.4942 45.2301 27.2781 44.5905 26.0658C44.2271 25.3772 43.6905 24.9357 43.0987 24.6432ZM28.8206 21.1237C28.8206 21.1237 28.828 21.1221 28.8458 21.1275C28.8299 21.1278 28.8206 21.1237 28.8206 21.1237ZM28.8731 21.1372C28.9493 21.1681 29.1144 21.2605 29.4041 21.5194C29.9822 22.036 30.695 22.8823 31.7985 24.2027L32.3516 24.8644C32.3909 24.9114 32.4301 24.9586 32.4697 25.0063C32.9527 25.5874 33.4679 26.2079 34.1909 26.5709C34.9152 26.9346 35.7202 26.9758 36.4713 27.0144C36.5329 27.0174 36.5942 27.0207 36.6549 27.0239L37.512 27.0703C39.2226 27.1628 40.3202 27.2265 41.0759 27.3801C41.4365 27.4536 41.6135 27.5287 41.6926 27.5745C41.6984 27.5777 41.7036 27.581 41.708 27.5838L41.7075 27.5916C41.7006 27.6743 41.6637 27.8553 41.519 28.1863C41.2155 28.8818 40.6415 29.8031 39.7371 31.242L39.2845 31.962C39.2522 32.0133 39.2195 32.0651 39.1866 32.1173C38.7892 32.7448 38.3566 33.4288 38.2417 34.2344C38.1273 35.0365 38.349 35.816 38.5539 36.5369C38.5711 36.5969 38.588 36.6565 38.6046 36.7154L38.8369 37.5422C39.3006 39.1928 39.5937 40.2525 39.6908 41.0136C39.7352 41.3603 39.7239 41.5412 39.709 41.6257C39.6247 41.6424 39.4421 41.6576 39.0895 41.6192C38.3238 41.536 37.2557 41.2626 35.5934 40.8301L34.7605 40.6135C34.7012 40.5979 34.6411 40.5823 34.5809 40.5662C33.854 40.3749 33.0712 40.1686 32.2719 40.2967C31.4687 40.4254 30.7927 40.8687 30.1702 41.2767C30.1187 41.3105 30.0675 41.3438 30.0168 41.377L29.3034 41.8415C27.8781 42.7697 26.9647 43.3591 26.2726 43.675C25.9429 43.8253 25.7613 43.8658 25.6768 43.8743C25.6718 43.8747 25.6636 43.8754 25.6636 43.8754C25.6605 43.8708 25.6571 43.8654 25.653 43.8589C25.6064 43.7818 25.5282 43.6076 25.4482 43.2499C25.2807 42.5 25.1971 41.4071 25.0732 39.7022L25.011 38.8481C25.0066 38.7876 25.0025 38.7265 24.9982 38.6652C24.946 37.9168 24.8901 37.1126 24.5113 36.3947C24.1339 35.6797 23.5025 35.1766 22.9117 34.7058C22.8632 34.6673 22.8151 34.6287 22.7672 34.5903L22.094 34.0508C20.7506 32.974 19.8893 32.2783 19.3611 31.7111C19.1028 31.4337 19.0059 31.2725 18.9718 31.1956C19.0269 31.1345 19.1611 31.0173 19.4645 30.8429C20.1232 30.4639 21.1361 30.0624 22.7232 29.4408L23.5177 29.1297C23.5745 29.1074 23.6321 29.0851 23.69 29.0625C24.3833 28.7934 25.1399 28.5001 25.7099 27.9209C26.2802 27.3413 26.5612 26.5804 26.8182 25.8838C26.8396 25.8255 26.8611 25.7679 26.8823 25.7107L27.1798 24.9125C27.7739 23.318 28.1576 22.301 28.5253 21.6377C28.6976 21.3267 28.8137 21.1915 28.8731 21.1372ZM18.9553 31.1399C18.9553 31.1399 18.9596 31.1492 18.9598 31.1651C18.9539 31.1473 18.9553 31.1399 18.9553 31.1399ZM18.951 31.2205C18.9455 31.2372 18.9376 31.2454 18.9376 31.2454C18.9376 31.2454 18.9386 31.2372 18.951 31.2205ZM39.6893 41.6888C39.6893 41.6888 39.6912 41.6779 39.7003 41.6641C39.6949 41.6829 39.6893 41.6888 39.6893 41.6888ZM39.7473 41.6162C39.7608 41.6067 39.7714 41.6047 39.7714 41.6047C39.7714 41.6047 39.7657 41.6103 39.7473 41.6162ZM28.8949 21.1187C28.9116 21.106 28.9199 21.105 28.9199 21.105C28.9199 21.105 28.9116 21.1131 28.8949 21.1187Z" fill="#151515"/>
</g>
</svg>
