<svg width="52" height="52" viewBox="0 0 52 52" fill="none" xmlns="http://www.w3.org/2000/svg">
<g id="like-svgrepo-com (1) 1">
<path id="Vector" fill-rule="evenodd" clip-rule="evenodd" d="M26.9494 6.02005C26.6351 5.91909 26.2914 5.94357 25.9996 6.08425C25.68 6.23828 25.4687 6.5071 25.3927 6.79962L24.362 10.773C24.0017 12.1625 23.4767 13.5028 22.8009 14.7681C21.7516 16.7326 20.1637 18.2435 18.6907 19.5128L15.5734 22.199C15.0903 22.6154 14.836 23.2394 14.8911 23.8764L16.6508 44.2272C16.7397 45.2553 17.5986 46.0418 18.6254 46.0418H28.6975C35.4928 46.0418 41.2182 41.3135 42.3163 34.9639L43.8449 26.1245C44.0553 24.9079 43.1197 23.7993 41.8921 23.7993H30.6664C28.5493 23.7993 26.9412 21.9 27.2829 19.8137L28.7187 11.0505C28.9155 9.85011 28.8594 8.62183 28.5539 7.44449C28.3989 6.84703 27.9275 6.33424 27.2636 6.12096L26.9494 6.02005ZM24.5886 3.15644C25.6343 2.6526 26.8392 2.571 27.9435 2.9258L28.2577 3.0267C29.9412 3.56754 31.2546 4.91241 31.6999 6.62843C32.1189 8.24383 32.1958 9.92905 31.9261 11.576L30.4902 20.3392C30.4718 20.4513 30.5582 20.5493 30.6664 20.5493H41.8921C45.1406 20.5493 47.6006 23.4792 47.0474 26.6783L45.5188 35.5179C44.1367 43.509 36.9876 49.2918 28.6975 49.2918H18.6254C15.9092 49.2918 13.6468 47.2123 13.4129 44.5072L11.6532 24.1563C11.5082 22.48 12.1771 20.8355 13.4519 19.737L16.5691 17.0508C17.9888 15.8275 19.1838 14.6418 19.9342 13.2369C20.4901 12.1962 20.9207 11.0958 21.2162 9.95691L22.2469 5.98357C22.5702 4.73709 23.436 3.71186 24.5886 3.15644ZM6.42995 20.5508C7.29935 20.5133 8.04399 21.1673 8.11896 22.0343L10.2241 46.38C10.3593 47.9439 9.12747 49.2918 7.55454 49.2918C6.07293 49.2918 4.875 48.09 4.875 46.611V22.1743C4.875 21.304 5.56053 20.5883 6.42995 20.5508Z" fill="#151515"/>
</g>
</svg>
