<svg width="52" height="52" viewBox="0 0 52 52" fill="none" xmlns="http://www.w3.org/2000/svg">
<g id="bag-check-svgrepo-com 1">
<path id="Vector" fill-rule="evenodd" clip-rule="evenodd" d="M26.0001 5.9585C23.3078 5.9585 21.1252 8.14111 21.1252 10.8335V11.3966C22.3322 11.3751 23.6564 11.3751 25.1101 11.3752H26.8904C28.3438 11.3751 29.6681 11.3751 30.8751 11.3966V10.8335C30.8751 8.14111 28.6926 5.9585 26.0001 5.9585ZM34.1251 11.544V10.8335C34.1251 6.34618 30.4875 2.7085 26.0001 2.7085C21.5129 2.7085 17.8752 6.34618 17.8752 10.8335V11.544C17.5659 11.5706 17.2671 11.6014 16.9783 11.6371C14.7901 11.9075 12.986 12.4755 11.4536 13.7473C9.9211 15.0191 9.0304 16.6876 8.36138 18.7885C7.71305 20.8246 7.22228 23.4422 6.60534 26.7327L6.56054 26.9717C5.68997 31.6144 5.00392 35.2733 4.87801 38.1578C4.74896 41.1144 5.18882 43.5632 6.85665 45.5727C8.52451 47.5823 10.8503 48.4661 13.78 48.8841C16.6383 49.2918 20.3609 49.2918 25.0845 49.2918H26.9158C31.6393 49.2918 35.3621 49.2918 38.2203 48.8841C41.1501 48.4661 43.4758 47.5823 45.1437 45.5727C46.8116 43.5632 47.2514 41.1144 47.1223 38.1578C46.9964 35.2733 46.3105 31.6144 45.4399 26.9717L45.395 26.7327C44.778 23.4422 44.2872 20.8246 43.639 18.7885C42.9699 16.6876 42.0792 15.0191 40.5467 13.7473C39.0142 12.4755 37.2102 11.9075 35.0219 11.6371C34.7333 11.6014 34.4343 11.5706 34.1251 11.544ZM17.3768 14.8626C15.5232 15.0916 14.4036 15.5224 13.5291 16.2482C12.6547 16.974 12.0249 17.9949 11.4582 19.7747C10.8778 21.5972 10.4212 24.0168 9.77959 27.4386C8.87887 32.2425 8.23953 35.6737 8.12491 38.2995C8.01227 40.8806 8.42623 42.375 9.35757 43.4973C10.2889 44.6194 11.6815 45.3017 14.2391 45.6666C16.8411 46.0379 20.3313 46.0418 25.2188 46.0418H26.7814C31.669 46.0418 35.1593 46.0379 37.7612 45.6666C40.3188 45.3017 41.7115 44.6194 42.6427 43.4973C43.5742 42.375 43.988 40.8806 43.8753 38.2995C43.7607 35.6737 43.1216 32.2425 42.2207 27.4386C41.5791 24.0168 41.1226 21.5972 40.5421 19.7747C39.9753 17.9949 39.3457 16.974 38.4712 16.2482C37.5968 15.5224 36.4773 15.0916 34.6235 14.8626C32.7252 14.628 30.2628 14.6252 26.7814 14.6252H25.2188C21.7374 14.6252 19.2752 14.628 17.3768 14.8626ZM31.4131 25.8689C32.0839 26.4651 32.1444 27.4923 31.5481 28.1631L25.7702 34.6631C25.4827 34.9864 25.0782 35.1818 24.6462 35.2059C24.2141 35.2302 23.7903 35.0809 23.4686 34.7914L20.5798 32.1914C19.9127 31.591 19.8586 30.5636 20.459 29.8965C21.0593 29.2294 22.0869 29.1752 22.7538 29.7756L24.4276 31.2818L29.119 26.0038C29.7151 25.333 30.7423 25.2728 31.4131 25.8689Z" fill="#151515"/>
</g>
</svg>
