<svg width="52" height="52" viewBox="0 0 52 52" fill="none" xmlns="http://www.w3.org/2000/svg">
<g id="clipboard-check-svgrepo-com 1">
<path id="Vector" fill-rule="evenodd" clip-rule="evenodd" d="M15.736 7.0607C15.9969 4.61414 18.0676 2.7085 20.5833 2.7085H31.4167C33.9324 2.7085 36.0031 4.61414 36.2639 7.0607C37.9175 7.09437 39.3471 7.17989 40.5678 7.40412C42.2101 7.70578 43.6078 8.28047 44.7453 9.41782C46.0495 10.722 46.6104 12.364 46.8726 14.3143C47.125 16.1927 47.125 18.5811 47.125 21.5442V34.7819C47.125 37.745 47.125 40.1333 46.8726 42.0118C46.6104 43.962 46.0495 45.6042 44.7453 46.9083C43.441 48.2124 41.7991 48.7733 39.8489 49.0355C37.9704 49.2881 35.5821 49.2881 32.619 49.2881H19.3811C16.418 49.2881 14.0296 49.2881 12.1512 49.0355C10.201 48.7733 8.55892 48.2124 7.25476 46.9083C5.9506 45.6042 5.38967 43.962 5.12746 42.0118C4.87491 40.1333 4.87496 37.745 4.875 34.7819V21.5442C4.87496 18.5811 4.87491 16.1927 5.12746 14.3143C5.38967 12.364 5.9506 10.722 7.25476 9.41782C8.39211 8.28047 9.78976 7.70578 11.4321 7.40412C12.6528 7.17989 14.0825 7.09437 15.736 7.0607ZM15.7403 10.3116C14.1845 10.3448 12.9855 10.4232 12.0193 10.6006C10.7912 10.8262 10.0803 11.1884 9.55286 11.7159C8.95321 12.3156 8.56223 13.1575 8.34849 14.7473C8.12845 16.3839 8.125 18.553 8.125 21.6631V34.6631C8.125 37.7732 8.12845 39.9422 8.34849 41.5787C8.56223 43.1686 8.95321 44.0106 9.55286 44.6103C10.1525 45.2098 10.9944 45.6009 12.5843 45.8145C14.2209 46.0347 16.3899 46.0381 19.5 46.0381H32.5C35.61 46.0381 37.7791 46.0347 39.4158 45.8145C41.0057 45.6009 41.8474 45.2098 42.4472 44.6103C43.0469 44.0106 43.4378 43.1686 43.6516 41.5787C43.8715 39.9422 43.875 37.7732 43.875 34.6631V21.6631C43.875 18.553 43.8715 16.3839 43.6516 14.7473C43.4378 13.1575 43.0469 12.3156 42.4472 11.7159C41.9196 11.1884 41.2089 10.8262 39.9809 10.6006C39.0145 10.4232 37.8155 10.3448 36.2596 10.3116C35.9812 12.7396 33.9192 14.6252 31.4167 14.6252H20.5833C18.0808 14.6252 16.0187 12.7396 15.7403 10.3116ZM20.5833 5.9585C19.6859 5.9585 18.9583 6.68604 18.9583 7.5835V9.75016C18.9583 10.6476 19.6859 11.3752 20.5833 11.3752H31.4167C32.3141 11.3752 33.0417 10.6476 33.0417 9.75016V7.5835C33.0417 6.68604 32.3141 5.9585 31.4167 5.9585H20.5833ZM33.688 22.7248C34.3003 23.3809 34.265 24.4092 33.6087 25.0215L24.323 33.6881C23.6988 34.2708 22.7299 34.2708 22.1054 33.6881L18.3912 30.2215C17.7351 29.6092 17.6997 28.5809 18.312 27.9248C18.9244 27.2685 19.9527 27.2332 20.6088 27.8455L23.2143 30.2774L31.3913 22.6455C32.0474 22.0332 33.0757 22.0685 33.688 22.7248Z" fill="#151515"/>
</g>
</svg>
