<svg width="52" height="52" viewBox="0 0 52 52" fill="none" xmlns="http://www.w3.org/2000/svg">
<g id="widget-add-svgrepo-com 1">
<path id="Vector" fill-rule="evenodd" clip-rule="evenodd" d="M13.9707 3.79151C12.0241 3.79144 10.4007 3.7914 9.11204 3.96464C7.75183 4.14753 6.52377 4.54982 5.53691 5.53667C4.55006 6.52352 4.14778 7.75159 3.96489 9.1118C3.79164 10.4005 3.79169 12.0238 3.79175 13.9705V14.1958C3.79169 16.1425 3.79164 17.7659 3.96489 19.0545C4.14778 20.4148 4.55006 21.6428 5.53691 22.6296C6.52377 23.6165 7.75183 24.0189 9.11204 24.2017C10.4007 24.3751 12.024 24.3748 13.9707 24.3748H14.1961C16.1428 24.3748 17.7661 24.3751 19.0548 24.2017C20.415 24.0189 21.6431 23.6165 22.6298 22.6296C23.6167 21.6428 24.0191 20.4148 24.202 19.0545C24.3753 17.7659 24.3751 16.1426 24.3751 14.1959V13.9705C24.3751 12.0238 24.3753 10.4005 24.202 9.1118C24.0191 7.75159 23.6167 6.52352 22.6298 5.53667C21.6431 4.54982 20.415 4.14753 19.0548 3.96464C17.7661 3.7914 16.1428 3.79144 14.1961 3.79151H13.9707ZM7.83501 7.83477C8.11737 7.55241 8.54526 7.3201 9.54512 7.18568C10.5917 7.04497 11.9947 7.04151 14.0834 7.04151C16.1721 7.04151 17.5752 7.04497 18.6217 7.18568C19.6216 7.3201 20.0495 7.55241 20.3318 7.83477C20.6142 8.11713 20.8465 8.54502 20.9809 9.54487C21.1216 10.5914 21.1251 11.9945 21.1251 14.0832C21.1251 16.1719 21.1216 17.5749 20.9809 18.6215C20.8465 19.6213 20.6142 20.0492 20.3318 20.3316C20.0495 20.6139 19.6216 20.8463 18.6217 20.9807C17.5752 21.1214 16.1721 21.1248 14.0834 21.1248C11.9947 21.1248 10.5917 21.1214 9.54512 20.9807C8.54526 20.8463 8.11737 20.6139 7.83501 20.3316C7.55265 20.0492 7.32034 19.6213 7.18592 18.6215C7.04522 17.5749 7.04175 16.1719 7.04175 14.0832C7.04175 11.9945 7.04522 10.5914 7.18592 9.54487C7.32034 8.54502 7.55265 8.11713 7.83501 7.83477Z" fill="#151515"/>
<path id="Vector_2" d="M39.5417 7.5835C39.5417 6.68604 38.8142 5.9585 37.9167 5.9585C37.0193 5.9585 36.2917 6.68604 36.2917 7.5835V12.4585H31.4167C30.5193 12.4585 29.7917 13.186 29.7917 14.0835C29.7917 14.981 30.5193 15.7085 31.4167 15.7085H36.2917V20.5835C36.2917 21.481 37.0193 22.2085 37.9167 22.2085C38.8142 22.2085 39.5417 21.481 39.5417 20.5835V15.7085H44.4167C45.3142 15.7085 46.0417 14.981 46.0417 14.0835C46.0417 13.186 45.3142 12.4585 44.4167 12.4585H39.5417V7.5835Z" fill="#151515"/>
<path id="Vector_3" fill-rule="evenodd" clip-rule="evenodd" d="M37.804 27.625H38.0293C39.9761 27.625 41.5993 27.6248 42.8881 27.7981C44.2483 27.981 45.4764 28.3833 46.4631 29.3702C47.45 30.3569 47.8523 31.585 48.0352 32.9452C48.2085 34.234 48.2083 35.8573 48.2083 37.8038V38.0293C48.2083 39.9761 48.2085 41.5993 48.0352 42.8881C47.8523 44.2483 47.45 45.4764 46.4631 46.4631C45.4764 47.45 44.2483 47.8523 42.8881 48.0352C41.5993 48.2085 39.9761 48.2083 38.0295 48.2083H37.804C35.8575 48.2083 34.234 48.2085 32.9452 48.0352C31.585 47.8523 30.3569 47.45 29.3702 46.4631C28.3833 45.4764 27.981 44.2483 27.7981 42.8881C27.6248 41.5993 27.625 39.9761 27.625 38.0293V37.804C27.625 35.8572 27.6248 34.234 27.7981 32.9452C27.981 31.585 28.3833 30.3569 29.3702 29.3702C30.3569 28.3833 31.585 27.981 32.9452 27.7981C34.234 27.6248 35.8572 27.625 37.804 27.625ZM33.3784 31.0191C32.3785 31.1536 31.9505 31.3859 31.6682 31.6682C31.3859 31.9505 31.1536 32.3785 31.0191 33.3784C30.8785 34.4249 30.875 35.828 30.875 37.9167C30.875 40.0053 30.8785 41.4085 31.0191 42.455C31.1536 43.4549 31.3859 43.8828 31.6682 44.1651C31.9505 44.4474 32.3785 44.6797 33.3784 44.8142C34.4249 44.9549 35.828 44.9583 37.9167 44.9583C40.0053 44.9583 41.4085 44.9549 42.455 44.8142C43.4549 44.6797 43.8828 44.4474 44.1651 44.1651C44.4474 43.8828 44.6797 43.4549 44.8142 42.455C44.9549 41.4085 44.9583 40.0053 44.9583 37.9167C44.9583 35.828 44.9549 34.4249 44.8142 33.3784C44.6797 32.3785 44.4474 31.9505 44.1651 31.6682C43.8828 31.3859 43.4549 31.1536 42.455 31.0191C41.4085 30.8785 40.0053 30.875 37.9167 30.875C35.828 30.875 34.4249 30.8785 33.3784 31.0191Z" fill="#151515"/>
<path id="Vector_4" fill-rule="evenodd" clip-rule="evenodd" d="M13.9707 27.625C12.024 27.625 10.4007 27.6248 9.11204 27.7981C7.75183 27.981 6.52377 28.3833 5.53691 29.3702C4.55006 30.3569 4.14778 31.585 3.96489 32.9452C3.79164 34.234 3.79169 35.8572 3.79175 37.804V38.0293C3.79169 39.9761 3.79164 41.5993 3.96489 42.8881C4.14778 44.2483 4.55006 45.4764 5.53691 46.4631C6.52377 47.45 7.75183 47.8523 9.11204 48.0352C10.4007 48.2085 12.024 48.2083 13.9707 48.2083H14.1961C16.1428 48.2083 17.7661 48.2085 19.0548 48.0352C20.415 47.8523 21.6431 47.45 22.6298 46.4631C23.6167 45.4764 24.0191 44.2483 24.202 42.8881C24.3753 41.5993 24.3751 39.9761 24.3751 38.0293V37.804C24.3751 35.8572 24.3753 34.234 24.202 32.9452C24.0191 31.585 23.6167 30.3569 22.6298 29.3702C21.6431 28.3833 20.415 27.981 19.0548 27.7981C17.7661 27.6248 16.1428 27.625 14.1961 27.625H13.9707ZM7.83501 31.6682C8.11737 31.3859 8.54526 31.1536 9.54512 31.0191C10.5917 30.8785 11.9947 30.875 14.0834 30.875C16.1721 30.875 17.5752 30.8785 18.6217 31.0191C19.6216 31.1536 20.0495 31.3859 20.3318 31.6682C20.6142 31.9505 20.8465 32.3785 20.9809 33.3784C21.1216 34.4249 21.1251 35.828 21.1251 37.9167C21.1251 40.0053 21.1216 41.4085 20.9809 42.455C20.8465 43.4549 20.6142 43.8828 20.3318 44.1651C20.0495 44.4474 19.6216 44.6797 18.6217 44.8142C17.5752 44.9549 16.1721 44.9583 14.0834 44.9583C11.9947 44.9583 10.5917 44.9549 9.54512 44.8142C8.54526 44.6797 8.11737 44.4474 7.83501 44.1651C7.55265 43.8828 7.32034 43.4549 7.18592 42.455C7.04522 41.4085 7.04175 40.0053 7.04175 37.9167C7.04175 35.828 7.04522 34.4249 7.18592 33.3784C7.32034 32.3785 7.55265 31.9505 7.83501 31.6682Z" fill="#151515"/>
</g>
</svg>
