<svg width="52" height="52" viewBox="0 0 52 52" fill="none" xmlns="http://www.w3.org/2000/svg">
<g id="shield-network-svgrepo-com 1">
<path id="Vector" fill-rule="evenodd" clip-rule="evenodd" d="M13.5415 25.9998C13.5415 24.3638 13.8638 22.7438 14.4898 21.2322C15.1159 19.7207 16.0336 18.3473 17.1905 17.1905C18.3473 16.0336 19.7207 15.1159 21.2322 14.4898C22.7438 13.8638 24.3638 13.5415 25.9998 13.5415C27.6359 13.5415 29.2559 13.8638 30.7674 14.4898C32.2791 15.1159 33.6523 16.0336 34.8093 17.1905C35.9661 18.3473 36.8837 19.7207 37.5098 21.2322C38.136 22.7438 38.4582 24.3638 38.4582 25.9998C38.4582 27.6359 38.136 29.2559 37.5098 30.7674C36.8837 32.2791 35.9661 33.6523 34.8093 34.8093C33.6523 35.9661 32.2791 36.8837 30.7674 37.5098C29.2559 38.136 27.6359 38.4582 25.9998 38.4582C24.3638 38.4582 22.7438 38.136 21.2322 37.5098C19.7207 36.8837 18.3473 35.9661 17.1905 34.8093C16.0336 33.6523 15.1159 32.2791 14.4898 30.7674C13.8638 29.2559 13.5415 27.6359 13.5415 25.9998ZM25.8781 16.8297C25.9533 16.7922 25.9903 16.7915 25.9998 16.7915C26.0094 16.7915 26.0464 16.7922 26.1216 16.8297C26.2026 16.8699 26.3287 16.9538 26.4893 17.12C26.8201 17.4626 27.2 18.0549 27.5553 18.943C27.9054 19.8186 28.1975 20.8958 28.4001 22.1198C28.5199 22.8424 28.6057 23.5994 28.656 24.3748H23.3437C23.394 23.5994 23.4798 22.8424 23.5996 22.1198C23.8022 20.8958 24.0943 19.8186 24.4444 18.943C24.7997 18.0548 25.1795 17.4626 25.5104 17.12C25.6709 16.9538 25.797 16.8699 25.8781 16.8297ZM20.0877 24.3748C20.1421 23.4237 20.2442 22.4877 20.3932 21.5885C20.6025 20.3256 20.9036 19.1382 21.2925 18.0857C20.6367 18.4757 20.0305 18.9466 19.4886 19.4886C18.6335 20.3436 17.9552 21.3587 17.4924 22.476C17.2387 23.0885 17.0525 23.7253 16.936 24.3748H20.0877ZM16.936 27.6248H20.0877C20.1421 28.576 20.2442 29.512 20.3932 30.4112C20.6025 31.6741 20.9036 32.8615 21.2925 33.914C20.6367 33.524 20.0305 33.053 19.4886 32.5111C18.6335 31.6561 17.9552 30.6408 17.4924 29.5237C17.2387 28.9112 17.0525 28.2744 16.936 27.6248ZM35.0637 24.3748C34.9473 23.7253 34.761 23.0885 34.5073 22.476C34.0445 21.3587 33.3663 20.3436 32.5111 19.4886C31.9692 18.9466 31.363 18.4757 30.7071 18.0857C31.0961 19.1382 31.3972 20.3256 31.6065 21.5885C31.7554 22.4877 31.8576 23.4237 31.912 24.3748H35.0637ZM31.912 27.6248H35.0637C34.9473 28.2744 34.761 28.9112 34.5073 29.5237C34.0445 30.6408 33.3663 31.6561 32.5111 32.5111C31.9692 33.053 31.363 33.524 30.7071 33.914C31.0961 32.8615 31.3972 31.6741 31.6065 30.4112C31.7554 29.512 31.8576 28.576 31.912 27.6248ZM28.656 27.6248C28.6057 28.4003 28.5199 29.1573 28.4001 29.8799C28.1975 31.1039 27.9054 32.1811 27.5553 33.0567C27.2 33.9448 26.8201 34.5372 26.4893 34.8797C26.3287 35.0459 26.2026 35.1297 26.1216 35.17C26.0464 35.2075 26.0094 35.2082 25.9998 35.2082C25.9903 35.2082 25.9533 35.2075 25.8781 35.17C25.797 35.1297 25.6709 35.0459 25.5104 34.8797C25.1795 34.5372 24.7997 33.9448 24.4444 33.0567C24.0943 32.1811 23.8022 31.1039 23.5996 29.8799C23.4798 29.1573 23.394 28.4003 23.3437 27.6248H28.656Z" fill="#151515"/>
<path id="Vector_2" fill-rule="evenodd" clip-rule="evenodd" d="M26 2.7085C23.9688 2.7085 22.0292 3.37275 18.9007 4.44426L17.3246 4.98378C14.115 6.08243 11.6381 6.93029 9.8649 7.65064C8.97169 8.01349 8.2038 8.36495 7.58546 8.72405C6.9904 9.06961 6.39344 9.50065 5.98786 10.0785C5.58697 10.6497 5.37968 11.3518 5.24942 12.0278C5.11401 12.7305 5.03234 13.5735 4.97965 14.5414C4.875 16.4633 4.875 19.0961 4.875 22.511V25.9815C4.875 39.2004 14.8591 45.5381 20.7964 48.1318L20.8551 48.1574C21.5913 48.4791 22.2833 48.7814 23.0785 48.985C23.9181 49.2 24.8099 49.2918 26 49.2918C27.1902 49.2918 28.082 49.2 28.9215 48.985C29.7167 48.7814 30.4087 48.4791 31.1448 48.1574L31.2037 48.1318C37.141 45.5381 47.125 39.2004 47.125 25.9815V22.5114C47.125 19.0963 47.125 16.4634 47.0204 14.5414C46.9677 13.5735 46.886 12.7305 46.7506 12.0278C46.6204 11.3518 46.413 10.6497 46.0122 10.0785C45.6066 9.50065 45.0097 9.06961 44.4145 8.72405C43.7961 8.36495 43.0283 8.01349 42.1352 7.65064C40.362 6.93029 37.885 6.08243 34.6753 4.98378L33.0993 4.44426C29.9708 3.37275 28.0312 2.7085 26 2.7085ZM19.6747 7.61448C23.1727 6.41705 24.575 5.9585 26 5.9585C27.425 5.9585 28.8273 6.41705 32.3254 7.61448L33.5664 8.0393C36.8437 9.16113 39.2338 9.97994 40.9119 10.6617C41.7495 11.0019 42.3564 11.2871 42.7824 11.5345C42.9927 11.6566 43.1377 11.7574 43.2343 11.8361C43.3164 11.9027 43.3476 11.9405 43.3522 11.946C43.3563 11.9528 43.3834 11.9978 43.4213 12.1043C43.4646 12.2259 43.5125 12.4002 43.5593 12.6428C43.654 13.1338 43.7257 13.8084 43.7751 14.7182C43.8744 16.5407 43.875 19.0849 43.875 22.5697V25.9815C43.875 37.1942 35.4902 42.7127 29.9026 45.1535C29.0977 45.5051 28.6329 45.704 28.1155 45.8364C27.6213 45.963 27.0183 46.0418 26 46.0418C24.9817 46.0418 24.3787 45.963 23.8845 45.8364C23.3671 45.704 22.9023 45.5051 22.0974 45.1535C16.5098 42.7127 8.125 37.1942 8.125 25.9815V22.5697C8.125 19.0849 8.12561 16.5407 8.22484 14.7182C8.27437 13.8084 8.34609 13.1338 8.44071 12.6428C8.48746 12.4002 8.53545 12.2259 8.57877 12.1043C8.61668 11.9979 8.64361 11.9529 8.6478 11.9461C8.65228 11.9406 8.68357 11.9028 8.76562 11.8361C8.8624 11.7574 9.00731 11.6566 9.21763 11.5345C9.64362 11.2871 10.2505 11.0019 11.0881 10.6617C12.7662 9.97994 15.1563 9.16113 18.4336 8.0393L19.6747 7.61448Z" fill="#151515"/>
</g>
</svg>
