<svg width="52" height="52" viewBox="0 0 52 52" fill="none" xmlns="http://www.w3.org/2000/svg">
<g id="settings-svgrepo-com 1">
<path id="Vector" fill-rule="evenodd" clip-rule="evenodd" d="M26 17.875C21.5127 17.875 17.875 21.5127 17.875 26C17.875 30.4874 21.5127 34.125 26 34.125C30.4874 34.125 34.125 30.4874 34.125 26C34.125 21.5127 30.4874 17.875 26 17.875ZM21.125 26C21.125 23.3077 23.3077 21.125 26 21.125C28.6923 21.125 30.875 23.3077 30.875 26C30.875 28.6923 28.6923 30.875 26 30.875C23.3077 30.875 21.125 28.6923 21.125 26Z" fill="#151515"/>
<path id="Vector_2" fill-rule="evenodd" clip-rule="evenodd" d="M25.9453 2.7085C24.9824 2.70848 24.1783 2.70848 23.5184 2.7535C22.8313 2.80039 22.1824 2.90144 21.5532 3.16205C20.0933 3.76678 18.9333 4.92671 18.3286 6.38667C18.0138 7.14674 17.9285 7.94776 17.896 8.81841C17.8698 9.51831 17.5166 10.1023 16.9953 10.4032C16.4741 10.7042 15.7917 10.7181 15.1725 10.3908C14.4022 9.98366 13.6659 9.65698 12.8502 9.5496C11.2835 9.34333 9.69899 9.76791 8.4453 10.7299C7.90502 11.1445 7.493 11.656 7.1089 12.2275C6.73989 12.7766 6.33795 13.4728 5.85645 14.3068L5.80175 14.4016C5.32023 15.2356 4.91827 15.9318 4.62726 16.5258C4.32434 17.1443 4.08737 17.7568 3.99847 18.432C3.79221 19.9988 4.21679 21.5832 5.17876 22.837C5.67952 23.4894 6.3305 23.9639 7.06812 24.4274C7.66131 24.8 7.99049 25.398 7.99045 26.0002C7.99043 26.6021 7.66124 27.2001 7.06812 27.5727C6.33041 28.0362 5.67937 28.5107 5.17857 29.1633C4.21657 30.4169 3.79201 32.0014 3.99826 33.5681C4.08715 34.2432 4.32412 34.856 4.62704 35.4743C4.91805 36.0684 5.32001 36.7646 5.80151 37.5985L5.85624 37.6934C6.33774 38.5274 6.73967 39.2235 7.10868 39.7726C7.49279 40.3441 7.9048 40.8557 8.44508 41.2702C9.69878 42.2322 11.2833 42.6568 12.85 42.4506C13.6656 42.3431 14.4019 42.0166 15.1722 41.6095C15.7915 41.2821 16.4739 41.296 16.9952 41.5971C17.5165 41.8981 17.8698 42.482 17.896 43.182C17.9285 44.0526 18.0138 44.8536 18.3286 45.6137C18.9333 47.0736 20.0933 48.2336 21.5532 48.8383C22.1824 49.099 22.8313 49.2 23.5184 49.2468C24.1783 49.2918 24.9824 49.2918 25.9453 49.2918H26.0547C27.0178 49.2918 27.8216 49.2918 28.4818 49.2468C29.1688 49.2 29.8177 49.099 30.4469 48.8383C31.9068 48.2336 33.0669 47.0736 33.6716 45.6137C33.9864 44.8536 34.0716 44.0526 34.1041 43.1818C34.1303 42.482 34.4834 41.8981 35.0047 41.5969C35.526 41.296 36.2085 41.2821 36.8278 41.6093C37.598 42.0164 38.3343 42.3431 39.15 42.4504C40.7167 42.6566 42.3012 42.2322 43.5548 41.2702C44.0952 40.8555 44.5071 40.3441 44.8913 39.7726C45.2602 39.2235 45.6622 38.5274 46.1436 37.6934L46.1984 37.5985C46.6798 36.7646 47.082 36.0682 47.373 35.4741C47.6758 34.8558 47.9127 34.2432 48.0017 33.5681C48.208 32.0012 47.7833 30.4167 46.8213 29.1631C46.3206 28.5105 45.6695 28.0362 44.932 27.5727C44.3387 27.2001 44.0096 26.6021 44.0096 25.9999C44.0096 25.398 44.3387 24.8003 44.9318 24.4276C45.6697 23.9641 46.3208 23.4899 46.8215 22.837C47.7835 21.5834 48.2082 19.9989 48.0019 18.4322C47.9129 17.757 47.6761 17.1444 47.3732 16.526C47.0822 15.9319 46.6803 15.2358 46.1986 14.4019L46.144 14.3071C45.6624 13.473 45.2605 12.7767 44.8915 12.2277C44.5073 11.6561 44.0954 11.1446 43.5551 10.73C42.3014 9.76806 40.7169 9.34348 39.15 9.54975C38.3345 9.65713 37.5982 9.98377 36.828 10.3909C36.2088 10.7182 35.5263 10.7043 35.005 10.4033C34.4837 10.1023 34.1303 9.51827 34.1041 8.8183C34.0716 7.94767 33.9864 7.1467 33.6716 6.38667C33.0669 4.92671 31.9068 3.76678 30.4469 3.16205C29.8177 2.90144 29.1688 2.80039 28.4818 2.7535C27.8216 2.70848 27.0178 2.70848 26.0547 2.7085H25.9453ZM22.7969 6.16466C22.9641 6.09541 23.2181 6.03156 23.7396 5.99596C24.2758 5.95939 24.9683 5.9585 26.0001 5.9585C27.0318 5.9585 27.7243 5.95939 28.2603 5.99596C28.7821 6.03156 29.036 6.09541 29.2031 6.16466C29.8667 6.43954 30.3941 6.96678 30.6688 7.63041C30.7557 7.83973 30.8274 8.16605 30.8564 8.93976C30.9206 10.6566 31.8067 12.3096 33.38 13.2179C34.953 14.1261 36.8278 14.067 38.3466 13.2642C39.0311 12.9024 39.3498 12.8015 39.5742 12.7719C40.2864 12.6782 41.0066 12.8712 41.5765 13.3084C41.7201 13.4186 41.9023 13.6066 42.194 14.0405C42.4938 14.4866 42.8407 15.0858 43.3566 15.9793C43.8725 16.8729 44.2181 17.473 44.4545 17.9556C44.6843 18.4251 44.756 18.677 44.7797 18.8564C44.8735 19.5685 44.6804 20.2888 44.2432 20.8586C44.1052 21.0384 43.8586 21.2638 43.2028 21.6757C41.7483 22.5898 40.7598 24.1836 40.7596 25.9999C40.7596 27.8165 41.7481 29.4105 43.2028 30.3246C43.8584 30.7365 44.105 30.9618 44.243 31.1417C44.6802 31.7115 44.8733 32.4317 44.7794 33.1439C44.7558 33.3233 44.6841 33.575 44.4542 34.0446C44.2178 34.5271 43.8723 35.1272 43.3564 36.0208C42.8405 36.9143 42.4936 37.5136 42.1938 37.9597C41.9021 38.3935 41.7199 38.5816 41.5762 38.6916C41.0064 39.1291 40.2862 39.3219 39.574 39.2283C39.3496 39.1986 39.0308 39.0977 38.3464 38.736C36.8276 37.9331 34.9527 37.8741 33.3795 38.7824C31.8067 39.6907 30.9206 41.3436 30.8564 43.0605C30.8274 43.8342 30.7557 44.1605 30.6688 44.37C30.3941 45.0335 29.8667 45.5608 29.2031 45.8358C29.036 45.9049 28.7821 45.9688 28.2603 46.0043C27.7243 46.041 27.0318 46.0418 26.0001 46.0418C24.9683 46.0418 24.2758 46.041 23.7396 46.0043C23.2181 45.9688 22.9641 45.9049 22.7969 45.8358C22.1334 45.5608 21.6061 45.0335 21.3312 44.37C21.2445 44.1605 21.1726 43.8342 21.1437 43.0605C21.0795 41.3438 20.1934 39.6907 18.6202 38.7824C17.0471 37.8741 15.1724 37.9333 13.6535 38.736C12.969 39.0979 12.6504 39.1988 12.4258 39.2283C11.7136 39.3221 10.9934 39.1291 10.4236 38.6918C10.28 38.5818 10.0977 38.3937 9.80611 37.9597C9.50636 37.5138 9.15936 36.9145 8.64348 36.021C8.12758 35.1275 7.78212 34.5273 7.54572 34.0448C7.31575 33.5753 7.24407 33.3233 7.22046 33.1439C7.12671 32.4317 7.31969 31.7115 7.75697 31.1417C7.8949 30.962 8.14157 30.7365 8.79718 30.3246C10.2518 29.4107 11.2404 27.8167 11.2404 26.0004C11.2406 24.1836 10.252 22.5896 8.79721 21.6755C8.14175 21.2636 7.89509 21.0382 7.75716 20.8585C7.31991 20.2886 7.12692 19.5684 7.22067 18.8562C7.24429 18.6769 7.31596 18.425 7.54593 17.9555C7.78234 17.4728 8.12779 16.8727 8.64368 15.9792C9.15958 15.0856 9.50655 14.4864 9.80633 14.0404C10.0979 13.6065 10.2802 13.4184 10.4238 13.3083C10.9936 12.871 11.7139 12.678 12.426 12.7718C12.6507 12.8014 12.9692 12.9023 13.6538 13.2641C15.1727 14.0669 17.0472 14.126 18.6203 13.2178C20.1934 12.3096 21.0795 10.6566 21.1437 8.93987C21.1726 8.16609 21.2445 7.83975 21.3312 7.63041C21.6061 6.96678 22.1334 6.43954 22.7969 6.16466Z" fill="#151515"/>
</g>
</svg>
