<svg width="52" height="52" viewBox="0 0 52 52" fill="none" xmlns="http://www.w3.org/2000/svg">
<g id="ranking-svgrepo-com 1">
<path id="Vector" fill-rule="evenodd" clip-rule="evenodd" d="M25.9999 6.57489C25.874 6.79294 25.7339 7.04406 25.5688 7.34016L25.3558 7.72227C25.3408 7.74925 25.3248 7.77869 25.3075 7.81026C25.1374 8.12141 24.8555 8.63671 24.3858 8.99337C23.9061 9.3575 23.3291 9.48277 22.9917 9.55603C22.9579 9.56337 22.9265 9.57018 22.8979 9.57666L22.4843 9.67026C22.1047 9.75612 21.7955 9.82619 21.5312 9.89262C21.7032 10.1043 21.9264 10.3671 22.2169 10.7068L22.499 11.0366C22.519 11.06 22.5408 11.085 22.5638 11.1117C22.7978 11.3811 23.1752 11.816 23.3499 12.3775C23.5226 12.9323 23.463 13.5038 23.4255 13.8643C23.4216 13.9002 23.4181 13.9341 23.4151 13.9656L23.3724 14.4056C23.333 14.8135 23.3022 15.1391 23.2818 15.4038C23.5076 15.3043 23.7644 15.1862 24.0694 15.0457L24.4568 14.8674C24.4835 14.8551 24.5127 14.8413 24.5441 14.8264C24.8551 14.6798 25.3961 14.4246 25.9999 14.4246C26.6038 14.4246 27.1448 14.6798 27.4557 14.8264C27.4871 14.8413 27.5164 14.8551 27.543 14.8674L27.9304 15.0457C28.2355 15.1862 28.4922 15.3043 28.7182 15.4038C28.6976 15.1391 28.6669 14.8135 28.6274 14.4056L28.5848 13.9656C28.5817 13.9341 28.5783 13.9002 28.5744 13.8643C28.5369 13.5038 28.4773 12.9323 28.65 12.3775C28.8246 11.816 29.202 11.3811 29.436 11.1117C29.4592 11.085 29.4809 11.06 29.5008 11.0366L29.7829 10.7068C30.0735 10.3671 30.2966 10.1043 30.4687 9.89262C30.2043 9.82619 29.8952 9.75612 29.5156 9.67026L29.1019 9.57666C29.0733 9.57018 29.0419 9.56337 29.0081 9.55603C28.6708 9.48277 28.0938 9.3575 27.6141 8.99337C27.1444 8.63671 26.8625 8.12141 26.6924 7.81026C26.6751 7.77869 26.659 7.74925 26.6441 7.72227L26.4311 7.34016C26.266 7.04406 26.1258 6.79294 25.9999 6.57489ZM23.8625 3.89936C24.2356 3.41225 24.9129 2.7085 25.9999 2.7085C27.0869 2.7085 27.7642 3.41225 28.1373 3.89936C28.4933 4.36428 28.8519 5.00785 29.2196 5.66764C29.2363 5.69765 29.253 5.72768 29.2696 5.75773L29.4828 6.13982C29.5322 6.22844 29.571 6.29816 29.605 6.35779C29.6642 6.3717 29.7331 6.38732 29.8191 6.4068L30.2329 6.50038C30.2667 6.50805 30.3005 6.5157 30.3346 6.52335C31.0448 6.68385 31.7507 6.84334 32.2924 7.05689C32.8908 7.29266 33.7018 7.75185 34.0142 8.75698C34.3214 9.7444 33.9338 10.5808 33.5954 11.1183C33.2823 11.6158 32.8063 12.1722 32.319 12.7418C32.2969 12.7675 32.275 12.7933 32.2529 12.8191L31.9708 13.1488C31.8961 13.2362 31.84 13.3021 31.7925 13.3591C31.7988 13.4378 31.8077 13.5295 31.8196 13.6522L31.8623 14.0921C31.8655 14.1257 31.8688 14.1592 31.872 14.1927C31.9461 14.9552 32.0176 15.6921 31.9914 16.2815C31.9639 16.8996 31.8155 17.8351 30.9765 18.4719C30.1112 19.1289 29.1555 18.9857 28.5494 18.812C27.9911 18.652 27.3311 18.348 26.6666 18.0418C26.6348 18.0271 26.6029 18.0125 26.5711 17.9978L26.1839 17.8195C26.1113 17.7861 26.0519 17.7587 25.9999 17.7352C25.9481 17.7587 25.8886 17.7861 25.816 17.8195L25.4288 17.9978C25.3969 18.0125 25.3651 18.0271 25.3332 18.0418C24.6687 18.348 24.009 18.652 23.4504 18.812C22.8444 18.9857 21.8887 19.1289 21.0232 18.4719C20.1844 17.8351 20.036 16.8996 20.0085 16.2815C19.9822 15.6921 20.0538 14.9552 20.1279 14.1927C20.1311 14.1592 20.1344 14.1257 20.1376 14.0921L20.1803 13.6522C20.1921 13.5295 20.201 13.4378 20.2074 13.3591C20.16 13.3021 20.1037 13.2362 20.029 13.1488L19.747 12.8191C19.7249 12.7933 19.7029 12.7675 19.6809 12.7418C19.1936 12.1722 18.7176 11.6158 18.4044 11.1183C18.066 10.5808 17.6785 9.7444 17.9856 8.75698C18.2981 7.75185 19.1091 7.29266 19.7074 7.05689C20.2493 6.84336 20.9551 6.68385 21.6654 6.52335C21.6993 6.5157 21.7331 6.50805 21.7671 6.50038L22.1807 6.4068C22.2668 6.38732 22.3357 6.3717 22.3948 6.35781C22.4288 6.29816 22.4678 6.22844 22.5172 6.13982L22.7302 5.75773C22.7469 5.72768 22.7636 5.69765 22.7803 5.66764C23.1479 5.00785 23.5065 4.36428 23.8625 3.89936ZM23.7262 20.0418H28.2736C29.714 20.0417 30.9553 20.0417 31.9492 20.1753C33.0145 20.3185 34.0354 20.6415 34.8638 21.4697C35.6919 22.298 36.0149 23.3189 36.1581 24.3843C36.2918 25.3781 36.2916 26.6194 36.2916 28.0598V33.4045C36.6461 33.2971 37.0124 33.2253 37.384 33.1753C38.3779 33.0416 39.6192 33.0418 41.0596 33.0418H41.2736C42.714 33.0418 43.9553 33.0416 44.9492 33.1753C46.0145 33.3185 47.0354 33.6416 47.8638 34.4697C48.6919 35.298 49.0149 36.3189 49.1581 37.3843C49.2918 38.3781 49.2916 39.6194 49.2916 41.0598V47.6668C49.2916 48.5643 48.564 49.2918 47.6666 49.2918C46.7692 49.2918 46.0416 48.5643 46.0416 47.6668V41.1668C46.0416 39.5888 46.0381 38.5688 45.9372 37.8172C45.8423 37.1123 45.6893 36.8916 45.5656 36.7678C45.4419 36.6441 45.2211 36.4912 44.5163 36.3963C43.7646 36.2953 42.7446 36.2918 41.1666 36.2918C39.5886 36.2918 38.5685 36.2953 37.8169 36.3963C37.1121 36.4912 36.8913 36.6441 36.7676 36.7678C36.6439 36.8916 36.4909 37.1123 36.396 37.8172C36.2951 38.5688 36.2916 39.5888 36.2916 41.1668V47.6668C36.2916 48.5643 35.564 49.2918 34.6666 49.2918C33.7692 49.2918 33.0416 48.5643 33.0416 47.6668V41.0598C33.0416 40.9889 33.0416 40.9185 33.0416 40.8485V28.1668C33.0416 26.5888 33.0381 25.5688 32.9372 24.8172C32.8423 24.1123 32.6893 23.8916 32.5656 23.7678C32.4419 23.6441 32.2211 23.4912 31.5163 23.3963C30.7646 23.2953 29.7446 23.2918 28.1666 23.2918H23.8333C22.2553 23.2918 21.2352 23.2953 20.4837 23.3963C19.7788 23.4912 19.5579 23.6441 19.4342 23.7678C19.3105 23.8916 19.1575 24.1123 19.0628 24.8172C18.9617 25.5688 18.9583 26.5888 18.9583 28.1668V47.3485C18.9583 47.4185 18.9583 47.4889 18.9583 47.5598L18.9583 47.6668C18.9583 48.5643 18.2307 49.2918 17.3333 49.2918C16.4358 49.2918 15.7083 48.5643 15.7083 47.6668C15.7083 46.0888 15.7048 45.0688 15.6038 44.3172C15.509 43.6123 15.356 43.3916 15.2323 43.2678C15.1086 43.1441 14.8877 42.9912 14.1829 42.8963C13.4313 42.7953 12.4113 42.7918 10.8333 42.7918C9.25525 42.7918 8.23523 42.7953 7.48365 42.8963C6.77884 42.9912 6.55792 43.1441 6.43421 43.2678C6.31051 43.3916 6.15752 43.6123 6.06275 44.3172C5.96172 45.0688 5.95826 46.0888 5.95826 47.6668C5.95826 48.5643 5.23073 49.2918 4.33326 49.2918C3.4358 49.2918 2.70826 48.5643 2.70826 47.6668V47.5598C2.70817 46.1194 2.7081 44.8781 2.84174 43.8843C2.98496 42.8189 3.30792 41.798 4.13611 40.9697C4.96432 40.1416 5.98538 39.8185 7.0506 39.6753C8.04456 39.5416 9.28576 39.5418 10.7263 39.5418H10.9402C12.3808 39.5418 13.622 39.5416 14.6159 39.6753C14.9875 39.7253 15.3537 39.7971 15.7083 39.9045V28.0598C15.7082 26.6194 15.7081 25.3781 15.8417 24.3843C15.985 23.3189 16.3079 22.298 17.1361 21.4697C17.9643 20.6415 18.9854 20.3185 20.0506 20.1753C21.0446 20.0417 22.2858 20.0417 23.7262 20.0418Z" fill="#151515"/>
</g>
</svg>
