<svg width="52" height="52" viewBox="0 0 52 52" fill="none" xmlns="http://www.w3.org/2000/svg">
<g id="tag-svgrepo-com 1">
<path id="Vector" fill-rule="evenodd" clip-rule="evenodd" d="M24.3498 6.0644C23.0195 6.24023 21.3765 6.6176 19.0395 7.1569L16.3785 7.771C14.4046 8.2265 13.0453 8.54229 12.007 8.89862C11.0046 9.24264 10.4376 9.58177 10.0097 10.0097C9.58177 10.4376 9.24264 11.0046 8.89862 12.007C8.54229 13.0453 8.2265 14.4046 7.771 16.3785L7.1569 19.0395C6.6176 21.3765 6.24023 23.0195 6.0644 24.3498C5.89311 25.6459 5.93261 26.523 6.16125 27.3201C6.3899 28.1174 6.8212 28.882 7.65339 29.8902C8.5076 30.9252 9.69832 32.1184 11.3943 33.8145L15.3585 37.7786C18.304 40.7242 20.4 42.8152 22.202 44.1902C23.9665 45.5363 25.2568 46.0418 26.5685 46.0418C27.8804 46.0418 29.1706 45.5363 30.935 44.1902C32.737 42.8152 34.833 40.7242 37.7786 37.7786C40.7242 34.833 42.8152 32.737 44.1902 30.935C45.5363 29.1706 46.0418 27.8804 46.0418 26.5685C46.0418 25.2568 45.5363 23.9665 44.1902 22.202C42.8152 20.4 40.7242 18.304 37.7786 15.3585L33.8145 11.3943C32.1184 9.69832 30.9252 8.5076 29.8902 7.65339C28.882 6.8212 28.1174 6.3899 27.3201 6.16125C26.523 5.93261 25.6459 5.89311 24.3498 6.0644ZM23.9241 2.84242C25.4782 2.63702 26.841 2.64283 28.216 3.03718C29.5912 3.43156 30.7499 4.14894 31.9589 5.14682C33.1278 6.11149 34.4296 7.4132 36.0557 9.03943L40.1632 13.1469C43.0029 15.9866 45.2512 18.2348 46.7739 20.2306C48.3407 22.2841 49.2918 24.2603 49.2918 26.5685C49.2918 28.8766 48.3407 30.8528 46.7739 32.9064C45.2512 34.9023 43.0029 37.1505 40.1632 39.9901L39.9901 40.1632C37.1505 43.0029 34.9023 45.2512 32.9064 46.7739C30.8528 48.3407 28.8766 49.2918 26.5685 49.2918C24.2603 49.2918 22.2841 48.3407 20.2306 46.7739C18.2348 45.2512 15.9865 43.0029 13.1469 40.1632L9.03941 36.0557C7.4132 34.4296 6.11149 33.1278 5.14682 31.9589C4.14894 30.7499 3.43156 29.5912 3.03718 28.216C2.64283 26.841 2.63702 25.4782 2.84242 23.9241C3.04097 22.4217 3.45494 20.6279 3.97208 18.387L4.62351 15.5641C5.05504 13.694 5.40693 12.169 5.82462 10.952C6.26086 9.68096 6.81028 8.61288 7.71159 7.71159C8.61288 6.81028 9.68096 6.26086 10.952 5.82462C12.169 5.40693 13.694 5.05504 15.5641 4.62351L18.387 3.97208C20.6278 3.45494 22.4217 3.04097 23.9241 2.84242ZM20.5639 17.323C19.5062 16.2653 17.7914 16.2653 16.7337 17.323C15.676 18.3806 15.676 20.0955 16.7337 21.1531C17.7914 22.2109 19.5062 22.2109 20.5639 21.1531C21.6215 20.0955 21.6215 18.3806 20.5639 17.323ZM14.4356 15.0249C16.7625 12.698 20.5351 12.698 22.862 15.0249C25.1887 17.3518 25.1887 21.1244 22.862 23.4513C20.5351 25.7781 16.7625 25.7781 14.4356 23.4513C12.1087 21.1244 12.1087 17.3518 14.4356 15.0249ZM41.2775 23.8123C41.9122 24.4469 41.9122 25.4756 41.2775 26.1102L26.1564 41.232C25.5218 41.8667 24.4928 41.8667 23.8582 41.232C23.2236 40.5974 23.2236 39.5685 23.8582 38.9339L38.9794 23.8123C39.614 23.1776 40.6429 23.1776 41.2775 23.8123Z" fill="#151515"/>
</g>
</svg>
