<svg width="52" height="52" viewBox="0 0 52 52" fill="none" xmlns="http://www.w3.org/2000/svg">
<g id="wheel-angle-svgrepo-com (1) 1">
<path id="Vector" fill-rule="evenodd" clip-rule="evenodd" d="M10.8376 11.3464C9.1876 15.013 8.125 20.1925 8.125 26.0002C8.125 31.8079 9.1876 36.9873 10.8376 40.654C12.5562 44.4732 14.5954 46.0418 16.25 46.0418C17.9046 46.0418 19.9438 44.4732 21.6624 40.654C23.3125 36.9873 24.375 31.8079 24.375 26.0002C24.375 20.1925 23.3125 15.013 21.6624 11.3464C19.9438 7.52718 17.9046 5.9585 16.25 5.9585C14.5954 5.9585 12.5562 7.52718 10.8376 11.3464ZM22.1843 5.9585C23.1359 7.1197 23.9521 8.51482 24.6261 10.0127C26.5051 14.1878 27.625 19.8417 27.625 26.0002C27.625 32.1587 26.5051 37.8124 24.6261 41.9876C23.9521 43.4856 23.1359 44.8807 22.1843 46.0418H35.75C37.4047 46.0418 39.4437 44.4732 41.1623 40.654C42.8125 36.9873 43.875 31.8079 43.875 26.0002C43.875 20.1925 42.8125 15.013 41.1623 11.3464C39.4437 7.52718 37.4047 5.9585 35.75 5.9585H22.1843ZM16.25 2.7085H35.75C39.4801 2.7085 42.3161 5.99006 44.1261 10.0127C46.0051 14.1878 47.125 19.8417 47.125 26.0002C47.125 32.1587 46.0051 37.8124 44.1261 41.9876C42.3161 46.0102 39.4801 49.2918 35.75 49.2918H16.25C12.5199 49.2918 9.684 46.0102 7.87384 41.9876C5.99501 37.8124 4.875 32.1587 4.875 26.0002C4.875 19.8417 5.99501 14.1878 7.87384 10.0127C9.684 5.99006 12.5199 2.7085 16.25 2.7085ZM15.5284 17.2019C14.9809 19.3918 14.625 22.5032 14.625 26.0002C14.625 29.4972 14.9809 32.6085 15.5284 34.7983C15.761 35.7287 16.0126 36.4285 16.25 36.9043C16.4874 36.4285 16.739 35.7287 16.9716 34.7983C17.4327 32.9543 17.7579 30.4563 17.849 27.6252H17.3333C16.4359 27.6252 15.7083 26.8976 15.7083 26.0002C15.7083 25.1027 16.4359 24.3752 17.3333 24.3752H17.849C17.7579 21.5439 17.4327 19.0461 16.9716 17.2019C16.739 16.2716 16.4874 15.5717 16.25 15.096C16.0126 15.5717 15.761 16.2716 15.5284 17.2019ZM16.6261 14.5194C16.6261 14.5194 16.6199 14.5265 16.6067 14.5356C16.6194 14.5231 16.6261 14.5194 16.6261 14.5194ZM15.8933 14.5356C15.8802 14.5265 15.8739 14.5194 15.8739 14.5194C15.8739 14.5194 15.8806 14.5231 15.8933 14.5356ZM15.8739 37.4809C15.8739 37.4809 15.8802 37.4737 15.8933 37.4646C15.8806 37.4772 15.8739 37.4809 15.8739 37.4809ZM16.6067 37.4646C16.6199 37.4737 16.6261 37.4809 16.6261 37.4809C16.6261 37.4809 16.6194 37.4772 16.6067 37.4646ZM13.586 13.1949C14.0246 12.4529 14.872 11.3752 16.25 11.3752C17.628 11.3752 18.4754 12.4529 18.914 13.1949C19.4168 14.0457 19.8133 15.1685 20.1246 16.4137C20.7534 18.9289 21.125 22.3175 21.125 26.0002C21.125 29.6828 20.7534 33.0715 20.1246 35.5866C19.8133 36.8318 19.4168 37.9547 18.914 38.8054C18.4754 39.5475 17.628 40.6252 16.25 40.6252C14.872 40.6252 14.0246 39.5475 13.586 38.8054C13.0832 37.9547 12.6867 36.8318 12.3754 35.5866C11.7466 33.0715 11.375 29.6828 11.375 26.0002C11.375 22.3175 11.7466 18.9289 12.3754 16.4137C12.6867 15.1685 13.0832 14.0457 13.586 13.1949Z" fill="black"/>
</g>
</svg>
