<svg width="52" height="52" viewBox="0 0 52 52" fill="none" xmlns="http://www.w3.org/2000/svg">
<g id="music-library-2-svgrepo-com 1">
<path id="Vector" fill-rule="evenodd" clip-rule="evenodd" d="M18.8487 2.70851H33.151C33.6275 2.70838 33.9926 2.70827 34.3119 2.74253C37.2458 3.05741 39.4916 5.46681 39.6278 8.38544C42.2079 9.15586 44.0461 11.5431 44.0795 14.281C45.3816 14.6718 46.5048 15.288 47.4242 16.2812C48.8368 17.8071 49.2747 19.6875 49.2914 21.8841C49.3074 23.996 48.9311 26.6647 48.4637 29.9788L47.5126 36.7249C47.1473 39.3165 46.8504 41.4216 46.3887 43.0713C45.9055 44.7973 45.1936 46.2173 43.8752 47.3091C42.5671 48.392 41.0154 48.8589 39.1811 49.0791C37.4077 49.2918 35.1766 49.2918 32.3988 49.2918H19.6017C16.8238 49.2918 14.5927 49.2918 12.8192 49.0791C10.985 48.8589 9.43322 48.392 8.12522 47.3091C6.80679 46.2173 6.09469 44.7973 5.61159 43.0713C5.14981 41.4216 4.85304 39.3165 4.48772 36.7249L3.53657 29.9788C3.06926 26.6647 2.69296 23.996 2.70899 21.8841C2.72565 19.6875 3.16343 17.8071 4.57607 16.2812C5.49528 15.2883 6.61813 14.672 7.91993 14.2813C7.95308 11.5431 9.79169 9.1556 12.3719 8.38531C12.5082 5.46674 14.7539 3.05741 17.6879 2.74253C18.0072 2.70827 18.3724 2.70838 18.8487 2.70851ZM11.243 13.7105C13.2489 13.5418 15.7079 13.5418 18.668 13.5418H33.3322C36.2918 13.5418 38.7506 13.5418 40.7562 13.7104C40.4592 12.3939 39.2831 11.3752 37.8338 11.3752H14.1655C12.7162 11.3752 11.5402 12.3939 11.243 13.7105ZM33.965 5.97398C35.1571 6.10192 36.0992 6.99054 36.3302 8.12518H15.6697C15.9005 6.99054 16.8426 6.10192 18.0347 5.97398C18.1567 5.96089 18.3304 5.95851 18.939 5.95851H33.0609C33.6693 5.95851 33.8431 5.96089 33.965 5.97398ZM6.96094 18.4891C7.61723 17.7802 8.60412 17.31 10.5218 17.055C12.4742 16.7953 15.0879 16.7918 18.7903 16.7918H33.21C36.9124 16.7918 39.526 16.7953 41.4786 17.055C43.3961 17.31 44.383 17.7802 45.0393 18.4891C45.6804 19.1815 46.028 20.1238 46.0414 21.9088C46.0555 23.7507 45.7173 26.1796 45.2267 29.6581L44.3104 36.1581C43.9252 38.8899 43.6555 40.779 43.259 42.1953C42.8772 43.5593 42.4278 44.2879 41.8025 44.8057C41.1666 45.3322 40.3127 45.67 38.7939 45.8522C37.2367 46.0392 35.2009 46.0418 32.2935 46.0418H19.7068C16.7993 46.0418 14.7637 46.0392 13.2064 45.8522C11.6875 45.67 10.8338 45.3322 10.1979 44.8057C9.57238 44.2879 9.12308 43.5593 8.74129 42.1953C8.34486 40.779 8.07511 38.8899 7.68994 36.1581L6.7735 29.6581C6.28308 26.1796 5.94491 23.7507 5.95888 21.9088C5.97245 20.1238 6.31991 19.1815 6.96094 18.4891Z" fill="#151515"/>
</g>
</svg>
