<svg width="100" height="100" viewBox="0 0 100 100" fill="none" xmlns="http://www.w3.org/2000/svg">
<path d="M47.5015 14.0067C38.0364 14.1825 26.6425 15.8056 20.024 19.7219C15.7567 22.2752 10.5107 27.4716 8.90112 35.4729C7.28794 43.4723 8.03303 51.2626 9.62304 59.2744C11.2095 67.2826 14.3913 76.2475 23.2023 80.8671C32.015 85.485 37.9241 86.0319 50.0006 85.9985C62.0772 86.0337 67.9862 85.485 76.799 80.8671C85.61 76.2475 88.79 67.2826 90.3782 59.2726C91.9665 51.2643 92.7116 43.4723 91.1002 35.4729C89.4905 27.4716 84.2446 22.2752 79.9772 19.7236C71.3766 15.0548 61.9168 14.1614 52.4979 14.0067C50.7832 14.0172 49.0862 13.9873 47.498 14.0067H47.5015ZM59.8223 16.1591C63.316 16.4879 72.0593 17.1579 78.6047 21.0056C85.1465 24.855 88.0734 29.7489 89.2945 35.6856C90.5173 41.6224 90.4103 49.1295 88.7169 58.6325C87.0235 68.1355 82.2856 76.0418 75.8596 79.3707C69.4319 82.6995 61.2733 84.4616 50.0006 84.291C38.728 84.4616 30.5694 82.6995 24.1416 79.3707C17.7157 76.0418 12.9777 68.1337 11.2843 58.6325C9.59095 49.1295 9.484 41.6224 10.7068 35.6856C11.9278 29.7489 14.8529 24.855 21.3966 21.0056C27.9402 17.1579 36.6834 16.4879 40.179 16.1591C46.703 15.6245 53.3785 15.5841 59.8223 16.1591ZM47.8331 17.8121C42.4677 17.8772 36.728 18.5261 32.7976 19.3596C28.3056 20.3092 26.7709 20.6468 22.8974 22.9329C19.024 25.219 14.2629 29.872 12.8013 37.0379C11.3396 44.2039 12.017 51.1834 13.4572 58.3564C14.8975 65.5311 17.7852 73.5605 25.7816 77.6965C39.072 84.5249 61.2626 84.2541 74.2197 77.6965C82.2161 73.5605 85.102 65.5294 86.544 58.3564C87.9861 51.1834 88.6617 44.2039 87.2 37.0379C85.7383 29.872 80.9755 25.219 77.1038 22.9329C73.2304 20.6468 71.6957 20.311 67.2037 19.3578C63.2733 18.5261 57.5318 17.8772 52.1682 17.8103C50.6816 17.8227 49.2092 17.798 47.8331 17.8121ZM58.3838 21.2588C59.8419 21.3924 62.3624 21.5982 65.2109 22.1398C65.6333 22.226 65.8704 22.3596 65.7777 22.7553C61.1966 33.7214 56.3001 44.691 51.1949 55.6571C50.5069 57.1096 49.637 57.1659 48.9311 55.9244C43.7796 44.8704 38.8421 33.8111 34.2236 22.757C34.1309 22.3596 34.368 22.226 34.7904 22.1416C37.6389 21.5982 40.1594 21.3924 41.6175 21.257C47.1878 20.8051 52.9008 20.777 58.3838 21.2588ZM30.1826 23.3338C30.4428 23.325 30.5302 23.4956 30.5213 23.8174L30.5248 23.8069V42.259C30.5248 48.0814 31.4892 50.8141 34.1006 55.5621L46.6139 78.2927C47.0399 79.0946 46.3465 79.0418 45.5943 79.0506C38.1326 78.7341 32.4214 77.3044 27.7673 74.9339C22.2147 72.1062 18.1239 65.3922 16.6604 57.3242C15.1988 49.2543 15.1043 42.8797 16.1613 37.8398C17.2166 32.7982 19.7442 28.641 25.3948 25.372C26.8029 24.5578 28.3323 23.9106 29.8778 23.3936C29.9754 23.3594 30.0774 23.3387 30.1808 23.3321L30.1826 23.3338ZM69.8187 23.3338C69.922 23.3399 70.024 23.36 70.1217 23.3936C71.6689 23.9106 73.1965 24.5578 74.6065 25.372C80.2571 28.641 82.7847 32.7982 83.84 37.8398C84.897 42.8797 84.8025 49.2543 83.3409 57.3242C81.8792 65.3922 77.7848 72.1062 72.2358 74.9339C67.5798 77.3044 61.8669 78.7341 54.407 79.0506C53.6548 79.0418 52.9614 79.0946 53.3892 78.2927L65.9007 55.5621C68.5103 50.8141 69.4764 48.0814 69.4764 42.259V23.8069L69.48 23.8174C69.4711 23.4956 69.5584 23.3268 69.8187 23.3338Z" fill="white"/>
</svg>
