<svg width="100" height="100" viewBox="0 0 100 100" fill="none" xmlns="http://www.w3.org/2000/svg">
<path fill-rule="evenodd" clip-rule="evenodd" d="M63.1016 34C84.3575 35.6591 100 41.2566 100 47.9057C100 53.2698 89.8188 57.9482 74.7239 60.4278L78.9593 65.539H71.0405L50.1708 40.3539L36.2297 57.1771C40.4446 57.5172 44.9618 57.702 49.6607 57.702C51.8726 57.702 54.0447 57.6605 56.1635 57.5816L60.3797 61.9999C57.031 62.2038 53.5593 62.312 49.9999 62.312C43.922 62.312 38.0971 61.999 32.7086 61.4263L28.9184 66H20.9998L25.5764 60.4772C10.3165 58.0102 0 53.3051 0 47.9057C0 41.3887 15.0268 35.882 35.638 34.1035L33.0221 38.6985C18.2506 40.225 7.91861 43.7215 7.91861 47.7903C7.91861 51.4747 16.3895 54.6897 28.9569 56.3979L46.2114 35.5757L46.2096 35.5739H54.132L54.1302 35.5757L71.2781 56.2692C83.3401 54.5316 91.403 51.3846 91.403 47.7903C91.403 43.7032 80.9779 40.1935 66.1 38.6779L63.1016 34Z" fill="white"/>
</svg>
