<svg width="100" height="100" viewBox="0 0 100 100" fill="none" xmlns="http://www.w3.org/2000/svg">
<path d="M19.9315 45.085L17.7602 48.6947L17.6574 48.6874C17.6561 48.6874 16.8389 48.6764 15.7754 48.6898C14.481 48.7069 13.3376 48.7956 12.6384 48.9367L12.2551 49.0267L14.6181 45.0862H9.58761L3.35791 55.7889H8.39091L9.76019 53.3467C10.3808 52.2546 11.7348 51.0213 13.2412 50.8729C13.7399 50.8243 14.3033 50.8024 14.9137 50.8024C15.6599 50.8024 16.2183 50.8425 16.2247 50.8425L16.495 50.8486L13.6993 55.7877H18.7374L24.967 45.085H19.9315Z" fill="white"/>
<path d="M19.9315 45.085L17.7602 48.6947L17.6574 48.6874C17.6561 48.6874 16.8389 48.6764 15.7754 48.6898C14.481 48.7069 13.3376 48.7956 12.6384 48.9367L12.2551 49.0267L14.6181 45.0862H9.58761L3.35791 55.7889H8.39091L9.76019 53.3467C10.3808 52.2546 11.7348 51.0213 13.2412 50.8729C13.7399 50.8243 14.3033 50.8024 14.9137 50.8024C15.6599 50.8024 16.2183 50.8425 16.2247 50.8425L16.495 50.8486L13.6993 55.7877H18.7374L24.967 45.085H19.9315Z" fill="white"/>
<path d="M58.9342 45.0851L51.2299 51.1382L51.0015 45.0438L46.2134 45L46.419 55.7878H51.9253L65.1512 45.0851H58.9342Z" fill="white"/>
<path d="M58.9342 45.0851L51.2299 51.1382L51.0015 45.0438L46.2134 45L46.419 55.7878H51.9253L65.1512 45.0851H58.9342Z" fill="white"/>
<path d="M32.5927 46.7511C31.6041 47.4042 30.4468 48.2543 30.1473 48.5231L21.7158 55.8131H26.2615L27.6613 54.5057C28.3376 53.9085 29.9062 53.2773 31.4887 53.2773H31.5661C33.1904 53.298 34.6701 53.3965 34.6841 53.3977L34.9354 53.4147L33.8047 55.8131H37.6981L42.976 45.0581H38.9493C36.2691 45.0581 33.4861 46.16 32.5927 46.7511ZM35.8986 51.2754H31.2907L33.1866 49.5399C33.2717 49.4681 35.1448 47.8919 36.0128 47.4018C36.575 47.0843 37.16 47.0174 37.5521 47.0174C37.7755 47.0174 37.9176 47.0393 37.9239 47.0405L38.1613 47.0782L35.8986 51.2754Z" fill="white"/>
<path d="M32.5927 46.7511C31.6041 47.4042 30.4468 48.2543 30.1473 48.5231L21.7158 55.8131H26.2615L27.6613 54.5057C28.3376 53.9085 29.9062 53.2773 31.4887 53.2773H31.5661C33.1904 53.298 34.6701 53.3965 34.6841 53.3977L34.9354 53.4147L33.8047 55.8131H37.6981L42.976 45.0581H38.9493C36.2691 45.0581 33.4861 46.16 32.5927 46.7511ZM35.8986 51.2754H31.2907L33.1866 49.5399C33.2717 49.4681 35.1448 47.8919 36.0128 47.4018C36.575 47.0843 37.16 47.0174 37.5521 47.0174C37.7755 47.0174 37.9176 47.0393 37.9239 47.0405L38.1613 47.0782L35.8986 51.2754Z" fill="white"/>
<path d="M75.004 45.0581C72.325 45.0581 69.542 46.1612 68.6486 46.7511C67.6601 47.403 66.5027 48.2543 66.2032 48.5231L57.7717 55.8131H62.3174L63.7172 54.5057C64.3936 53.9085 65.9621 53.2773 67.5458 53.2773H67.6233C69.2476 53.298 70.7273 53.3965 70.7413 53.3977L70.9925 53.4147L69.8618 55.8131H73.7552L79.0332 45.0581H75.004ZM71.9545 51.2754H67.3466L69.2425 49.5399C69.3276 49.4681 71.2007 47.8919 72.0687 47.4018C72.6309 47.0843 73.2159 47.0174 73.608 47.0174C73.8314 47.0174 73.9748 47.0393 73.9799 47.0405L74.2184 47.0782L71.9545 51.2754Z" fill="white"/>
<path d="M75.004 45.0581C72.325 45.0581 69.542 46.1612 68.6486 46.7511C67.6601 47.403 66.5027 48.2543 66.2032 48.5231L57.7717 55.8131H62.3174L63.7172 54.5057C64.3936 53.9085 65.9621 53.2773 67.5458 53.2773H67.6233C69.2476 53.298 70.7273 53.3965 70.7413 53.3977L70.9925 53.4147L69.8618 55.8131H73.7552L79.0332 45.0581H75.004ZM71.9545 51.2754H67.3466L69.2425 49.5399C69.3276 49.4681 71.2007 47.8919 72.0687 47.4018C72.6309 47.0843 73.2159 47.0174 73.608 47.0174C73.8314 47.0174 73.9748 47.0393 73.9799 47.0405L74.2184 47.0782L71.9545 51.2754Z" fill="white"/>
<path d="M85.4799 53.2339L85.4405 53.2436C85.4266 53.2363 85.0839 53.0685 84.9875 52.7255C84.9304 52.5199 84.971 52.3144 85.1093 52.0991C85.1296 52.0651 87.4507 48.1039 87.9634 47.2683C88.6309 46.1786 89.5979 45.4513 90.207 45.0864H84.2476C83.7908 45.8162 80.386 51.637 79.8593 52.5248C79.3111 53.4503 79.2388 54.6714 80.3136 55.3586C80.8771 55.7186 82.5573 55.7891 83.1575 55.7891H94.2146L96.6423 53.2351H85.4799V53.2339Z" fill="white"/>
<path d="M85.4799 53.2339L85.4405 53.2436C85.4266 53.2363 85.0839 53.0685 84.9875 52.7255C84.9304 52.5199 84.971 52.3144 85.1093 52.0991C85.1296 52.0651 87.4507 48.1039 87.9634 47.2683C88.6309 46.1786 89.5979 45.4513 90.207 45.0864H84.2476C83.7908 45.8162 80.386 51.637 79.8593 52.5248C79.3111 53.4503 79.2388 54.6714 80.3136 55.3586C80.8771 55.7186 82.5573 55.7891 83.1575 55.7891H94.2146L96.6423 53.2351H85.4799V53.2339Z" fill="white"/>
</svg>
