<svg width="264" height="40" viewBox="0 0 264 40" fill="none" xmlns="http://www.w3.org/2000/svg">
<path fill-rule="evenodd" clip-rule="evenodd" d="M32.6021 12.0092V11.9859V11.9626V11.94V11.9333L32.6028 11.9167V11.8934V11.8701V11.8565L32.6034 11.8473V11.824L32.6039 11.8007V11.7807V11.7781L32.6046 11.7548L32.6052 11.7315L32.6057 11.7089V11.7046L32.6064 11.6856L32.6072 11.6623L32.6075 11.6397V11.6287L32.6083 11.6165L32.609 11.5932L32.6094 11.5703L32.6101 11.5526L32.6108 11.5471L32.6112 11.5238L32.6119 11.5011L32.613 11.4779V11.4767L32.6145 11.4552L32.615 11.432L32.6163 11.4087L32.6168 11.4013L32.6174 11.3858L32.6186 11.3625L32.6197 11.3399L32.6204 11.3252L32.6212 11.3167L32.6223 11.294L32.6234 11.2708L32.6248 11.2498V11.2479L32.6259 11.2246L32.6277 11.202L32.629 11.1794L32.6296 11.1739L32.6308 11.1561L32.6321 11.1333L32.6339 11.11L32.6344 11.0985L32.6352 11.0874L32.637 11.0641L32.6388 11.0415L32.6399 11.0231L32.6406 11.0187L32.6425 10.9954L32.6443 10.9728L32.6461 10.9502V10.9476L32.6479 10.9269L32.6498 10.904L32.6521 10.8814L32.6527 10.8722L32.6539 10.8581L32.6565 10.8355L32.6583 10.8129L32.6601 10.7975L32.6607 10.7901L32.6623 10.7668L32.6649 10.7442L32.6674 10.7221V10.7216L32.6697 10.6988L32.6723 10.6762L32.6748 10.6536L32.6752 10.6473L32.677 10.6303L32.6796 10.6074L32.6821 10.5848L32.684 10.5726L32.6851 10.5623L32.6874 10.5394C32.8191 9.42281 33.1023 8.34123 33.5552 7.30417C34.1699 5.88844 35.02 4.61363 36.1065 3.52168C37.2005 2.42213 38.483 1.56839 39.9038 0.953809C41.3812 0.315015 42.9411 0 44.5503 0H45.0156H87.7794L76.6556 8.08803H53.8063H44.5503C44.0388 8.08803 43.5485 8.18188 43.0814 8.39335C42.6082 8.60713 42.1837 8.89331 41.8168 9.26161C41.4501 9.63058 41.1653 10.0572 40.9526 10.5321C40.7422 11.0016 40.6489 11.4949 40.6489 12.0091C40.6489 12.2077 40.6631 12.4026 40.6915 12.5951L40.6941 12.6096L40.6952 12.6184L40.6966 12.6251L40.6985 12.6399L40.6989 12.6422L40.7008 12.6551L40.7026 12.6662L40.7032 12.6699L40.7063 12.6846L40.7069 12.6902L40.7087 12.6999L40.711 12.7139V12.7146L40.7143 12.7294L40.7154 12.7372L40.7166 12.7439L40.7198 12.7594L40.7203 12.7612L40.7228 12.7741L40.7246 12.785L40.7257 12.7887L40.7289 12.8034L40.7294 12.809L40.7319 12.8182L40.735 12.8323V12.8329L40.7379 12.8477L40.7397 12.8562L40.7416 12.8629L40.7448 12.8777L40.7452 12.8795L40.7485 12.8924L40.7508 12.9033L40.7514 12.907L40.7551 12.9217L40.7563 12.9266L40.7588 12.9358L40.7625 12.9499V12.9506L40.7661 12.9653L40.768 12.9738L40.7698 12.9801L40.7736 12.9946L40.7747 12.9971L40.7776 13.0094L40.7806 13.0204L40.7814 13.0241L40.7856 13.0382L40.7868 13.0437L40.7898 13.053L40.7935 13.067V13.0677L40.7978 13.0822L40.8001 13.0903L40.8019 13.0965L40.8063 13.1111L40.8075 13.1136L40.8112 13.1258L40.8143 13.1369L40.8156 13.1399L40.8198 13.1546L40.8218 13.1602L40.8247 13.1694L40.8288 13.1835L40.8338 13.1982L40.8369 13.2068L40.8387 13.2123L40.8434 13.2271L40.8442 13.2294L40.8483 13.2411L40.852 13.2527L40.8534 13.2557L40.8582 13.2699L40.86 13.2759L40.863 13.2845L40.8685 13.2988L40.8733 13.3133L40.877 13.3221L40.8788 13.3274L40.8843 13.3421L40.8857 13.3447L40.8898 13.3562L40.8942 13.368L40.8953 13.3703L40.9009 13.385L40.9027 13.3906L40.9064 13.3991L40.9118 13.4132L40.9174 13.4279L40.9211 13.436L40.9234 13.442L40.9289 13.4563L40.9302 13.4593L40.9351 13.4703L40.9398 13.4819L40.941 13.4844L40.9473 13.4992L40.9498 13.5045L40.9535 13.5132L40.9594 13.5273C41.1687 14.0058 41.4483 14.4387 41.8168 14.8088L41.8258 14.818L41.8331 14.8252L41.8357 14.827L41.8448 14.837L41.8504 14.8418L41.8541 14.8462L41.8637 14.8554L41.8673 14.8584L41.8729 14.8646L41.8828 14.8731L41.8846 14.875L41.8924 14.8824L41.9015 14.8909V14.8914L41.9114 14.9006L41.9186 14.9068L41.9211 14.9093L41.9303 14.9183L41.9357 14.9227L41.9399 14.9271L41.9497 14.9361L41.9528 14.9386L41.9594 14.9449L41.9693 14.9534L41.9704 14.9545L41.9792 14.9619L41.9876 14.97L41.9888 14.9711L41.9987 14.9797L42.0054 14.9852L42.0083 14.9882L42.0181 14.997L42.023 15.0007L42.0278 15.0055L42.0376 15.0134L42.0407 15.0159L42.048 15.0221L42.0576 15.0307L42.0583 15.0311L42.0674 15.0392L42.076 15.0459L42.0778 15.0473L42.0876 15.0558L42.0943 15.0607L42.0974 15.0637L42.1076 15.0717L42.112 15.0754L42.1175 15.0802L42.1278 15.0883C42.4059 15.3113 42.7138 15.4939 43.0468 15.6356C43.1138 15.6644 43.1811 15.6907 43.2492 15.7147C43.3614 15.9303 43.4662 16.1503 43.564 16.3751C44.0658 17.5287 44.2903 18.744 44.2903 20.0004C44.2903 21.2561 44.0663 22.4714 43.5645 23.6242C43.5071 23.7559 43.4468 23.8853 43.3853 24.014C42.1871 23.8975 41.0216 23.5998 39.9033 23.1155C38.9538 22.705 38.0668 22.1877 37.2564 21.5614L37.2427 21.5508L37.2372 21.5466L37.2184 21.5319L37.1996 21.5171L37.1861 21.5067L37.1805 21.5023L37.1624 21.4878L37.1434 21.4731L37.1294 21.462L37.1245 21.4583L37.1063 21.4435L37.0874 21.4283L37.0734 21.4172L37.069 21.4135L37.0503 21.3988L37.0319 21.3835L37.0172 21.3718L37.0128 21.3688L36.9947 21.3536L36.9763 21.3381L36.9617 21.3266L36.9575 21.3229L36.9392 21.3081L36.9208 21.2929L36.906 21.2805L36.9024 21.2775L36.8843 21.2622L36.8659 21.2468L36.8513 21.2339L36.8475 21.2316L36.8294 21.2156L36.8111 21.2002L36.7964 21.1873L36.7927 21.185L36.7743 21.1691L36.7567 21.1536L36.7415 21.1402L36.7386 21.1377L36.7202 21.1225L36.7025 21.1066L36.6872 21.093L36.6842 21.0906L36.6665 21.0747L36.6481 21.0593L36.633 21.0452L36.6305 21.0434L36.6128 21.0275L36.5944 21.0109L36.5792 20.9968L36.5767 20.995L36.559 20.979L36.5414 20.9631L36.5256 20.9484L36.5237 20.9472L36.5061 20.9306L36.4884 20.9147L36.4726 20.8999L36.4708 20.8981L36.4531 20.8822L36.4355 20.8656L36.4195 20.8504L36.4177 20.8492L36.4001 20.8326L36.3829 20.8167L36.3663 20.8008L36.3653 20.8001L36.3476 20.7835L36.3306 20.7669L36.314 20.751L36.3129 20.7505L36.2957 20.7332L36.278 20.7168L36.2615 20.7007L36.2611 20.7002L36.2438 20.6829L36.2261 20.6665L36.2097 20.6499L36.2092 20.6492L36.1919 20.6327L36.175 20.6156L36.158 20.599L36.1408 20.5819L36.1238 20.5646L36.1066 20.5475C35.0121 19.448 34.1633 18.1598 33.5516 16.7318C32.9089 15.2315 32.6022 13.6419 32.6022 12.0091L32.6021 12.0092ZM56.8527 15.9303H78.051C79.6705 15.9303 81.2474 16.2361 82.7329 16.8883C84.1409 17.5061 85.4087 18.3603 86.4954 19.4525C87.5899 20.552 88.4386 21.8402 89.0503 23.2682C89.693 24.7685 89.9998 26.3581 89.9998 27.9909C89.9998 29.6088 89.6868 31.1765 89.0503 32.6622C88.4386 34.0901 87.5899 35.379 86.4954 36.4783C85.4087 37.5698 84.1409 38.4242 82.7329 39.042C81.2474 39.6942 79.6705 40 78.051 40H45.0163L45.0473 39.9841L45.1138 39.9497L45.1668 39.9214L45.2857 39.8589L45.3083 39.8473L45.4047 39.7959L45.4052 39.7952L45.5016 39.7431L45.5229 39.7316L45.598 39.6905L45.6406 39.6672L45.6943 39.637L45.7577 39.6015L45.79 39.5838L45.8749 39.5353L45.8853 39.5298L45.9802 39.4754L45.9913 39.4687L46.0754 39.4203L46.1078 39.4011L46.17 39.3649L46.2237 39.3331L46.2646 39.3093L46.3388 39.2646L46.3584 39.2528L46.4523 39.1965L46.4536 39.1951L46.5456 39.1389L46.5681 39.1253L46.639 39.0812L46.6822 39.0543L46.7315 39.0236L46.7958 38.9832L46.8242 38.9648L46.9083 38.9108L46.9164 38.906L47.0084 38.8465L47.0213 38.8386L47.1004 38.787L47.1335 38.7651L47.245 38.6908L47.2829 38.6657L47.3565 38.6168L47.3738 38.605L47.4646 38.5432L47.4676 38.5414L47.5548 38.4812L47.5779 38.4653L47.6445 38.4187L47.6883 38.388L47.734 38.3562L47.7976 38.3107L47.8237 38.2925L47.9068 38.233L47.9128 38.2286L48.0011 38.1643L48.0153 38.1546L48.0896 38.1L48.1238 38.0748L48.178 38.0352L48.2311 37.9953L48.2659 37.9694L48.3384 37.9143L48.353 37.9032L48.4403 37.8371L48.4458 37.8329L48.5275 37.7697L48.5518 37.7506L48.614 37.7029L48.6581 37.6685L48.7001 37.6348L48.7629 37.5852L48.7861 37.5668L48.8678 37.5013L48.8714 37.4983L48.9568 37.4289L48.9726 37.4167L49.0421 37.3597L49.0763 37.3309L49.1268 37.2891L49.18 37.2451L49.211 37.2193L49.2831 37.1586L49.2953 37.1482L49.3788 37.0772L49.3855 37.071L49.4623 37.0055L49.4873 36.9833L49.5452 36.9331L49.5892 36.8946L49.6274 36.8602L49.6896 36.8055L49.7106 36.7873L49.7904 36.7156L49.7922 36.7138L49.8739 36.6402L49.8905 36.625L49.9556 36.5655L49.9903 36.5336L50.0362 36.4908L50.0891 36.4416L50.1171 36.4158L50.1878 36.3491L50.1977 36.3399L50.2775 36.2638L50.2856 36.256L50.3574 36.1873L50.3831 36.1621L50.4367 36.11L50.48 36.0678L50.5155 36.0327L50.577 35.9721L50.5946 35.955L50.6726 35.8766L50.7289 35.8201L50.7678 35.7802L50.7849 35.7631L50.8404 35.7062L50.8629 35.6829L50.8959 35.6492L50.9508 35.5916L50.957 35.5854L50.9625 35.5794L51.0501 35.4874L51.0604 35.4763L51.1156 35.4186L51.1436 35.3894L51.1696 35.3605L51.2234 35.3024L51.2355 35.29L51.2777 35.2441L51.3271 35.1901L51.3311 35.1859L51.3845 35.1269L51.4179 35.0902L51.4374 35.0681L51.4905 35.0088L51.5081 34.9897L51.5434 34.9498L51.596 34.8905L51.5971 34.8887L51.6482 34.8311L51.6861 34.7875L51.7001 34.7709L51.752 34.7109L51.7744 34.6851L51.8032 34.6509L51.855 34.5908L51.8617 34.5829L51.9063 34.5301L51.9489 34.4798L51.9569 34.4695L52.0077 34.4088L52.0349 34.3763L52.0581 34.3482L52.1081 34.2868L52.1202 34.2721L52.1581 34.2255L52.2056 34.1674L52.2081 34.1641L52.2575 34.1023L52.2898 34.0624L52.3068 34.041L52.3557 33.9792L52.3734 33.957L52.4046 33.9167L52.4533 33.8546L52.4564 33.8509L52.5021 33.7921L52.5386 33.7444L52.5503 33.7296L52.5978 33.6667L52.6198 33.6379L52.646 33.6035L52.6929 33.541L52.7008 33.5306L52.7405 33.4771L52.7813 33.4227L52.7875 33.4142L52.8344 33.3503L52.8608 33.3141L52.8808 33.2866L52.927 33.2227L52.9399 33.2057L52.9734 33.1584L53.0179 33.0959L53.019 33.0947L53.0649 33.0304L53.0955 32.9864L53.1106 32.9654L53.1558 32.9011L53.1728 32.8766L53.2004 32.8362L53.2453 32.7712L53.249 32.7657L53.2899 32.7062L53.3247 32.6547L53.3344 32.6407L53.3783 32.5749L53.3998 32.5431L53.4223 32.5094L53.4656 32.444L53.4741 32.431L53.5087 32.3778L53.5473 32.319L53.5522 32.3116L53.5955 32.2454L53.6204 32.2062L53.6381 32.1792L53.6801 32.1123L53.693 32.0928L53.7228 32.0455L53.7643 31.9788L53.8063 31.912H78.051C78.5631 31.912 79.0536 31.8181 79.5208 31.6066C79.9939 31.3929 80.4181 31.1067 80.7848 30.7384C81.1519 30.3701 81.4359 29.9435 81.6487 29.4679C81.8591 28.9984 81.9525 28.5051 81.9525 27.9908C81.9525 27.4618 81.8536 26.957 81.6421 26.4727C81.4331 25.9942 81.1531 25.562 80.7848 25.1919C80.4292 24.8347 80.0188 24.5626 79.5553 24.3645C79.0755 24.1592 78.5716 24.0697 78.051 24.0697H56.8528L56.8561 24.0545L56.8639 24.0072L56.8756 23.9447L56.8803 23.9166L56.8865 23.8816L56.8969 23.8191L56.9042 23.7787L56.9072 23.7566L56.9176 23.6934L56.9267 23.6408L56.9278 23.6309L56.9384 23.5677L56.948 23.5052L56.9487 23.5029L56.9573 23.4422L56.9669 23.3791L56.9694 23.3643L56.976 23.3166L56.9853 23.2534L56.9896 23.2259L56.9944 23.1902L57.0029 23.1272L57.0201 23.0009L57.0275 22.9483L57.0286 22.9377L57.0364 22.8747L57.0444 22.8116L57.0451 22.809L57.0518 22.7479L57.0596 22.6847L57.0614 22.67L57.0669 22.6215L57.0737 22.5579L57.0773 22.5309L57.0809 22.4947L57.0879 22.431L57.0919 22.3912L57.0944 22.3679L57.1004 22.3042L57.1059 22.2521L57.1073 22.241L57.1133 22.1771L57.1188 22.1135L57.1195 22.1123L57.125 22.0498L57.1305 21.9866L57.1317 21.9726L57.1361 21.923L57.1408 21.8591L57.1431 21.8321L57.1463 21.7955L57.1512 21.7316L57.1541 21.6919L57.1555 21.6679L57.1603 21.6043L57.1639 21.5515L57.1644 21.5399L57.1688 21.4761L57.1725 21.4124V21.4113L57.1762 21.3485L57.1799 21.2842L57.181 21.2708L57.1835 21.2206L57.1866 21.1562L57.1877 21.1299L57.1895 21.0926L57.1927 21.0282L57.1945 20.9895L57.195 20.9644L57.1983 20.9L57.2001 20.8486L57.2006 20.8364L57.2024 20.772L57.2048 20.7077L57.2067 20.6438L57.2079 20.5795L57.2086 20.5661L57.2097 20.5151L57.2108 20.4508L57.2115 20.4252L57.2123 20.3865L57.2126 20.3221L57.2134 20.2836L57.2141 20.2578L57.2144 20.1934V20.142V20.1291L57.2152 20.0648V20.0004V19.9361L57.2144 19.8718V19.8588V19.8074L57.2141 19.7431L57.2134 19.7172L57.2126 19.6787L57.2123 19.6144L57.2115 19.5757L57.2108 19.55L57.2097 19.4855L57.2086 19.4347L57.2079 19.4211L57.2067 19.3568L57.2048 19.2931V19.2925L57.2024 19.2288L57.2006 19.1645L57.2001 19.1523L57.1983 19.1001L57.1957 19.0365L57.1945 19.0114L57.1927 18.9719L57.1895 18.9083L57.1877 18.8702L57.1866 18.8439L57.1835 18.7803L57.181 18.73L57.1799 18.7159L57.1762 18.652L57.1725 18.5895V18.5884L57.1688 18.5241L57.1644 18.4602L57.1639 18.4486L57.1603 18.3965L57.1559 18.3329L57.1541 18.3089L57.1512 18.269L57.1463 18.2053L57.1431 18.1684L57.1413 18.1415L57.1361 18.0778L57.1317 18.0282L57.1305 18.0142L57.125 17.9503L57.1195 17.8885V17.8866L57.1133 17.8235L57.1073 17.7598L57.1059 17.7487L57.1011 17.6959L57.0944 17.633L57.0919 17.609L57.0879 17.5691L57.0809 17.5061L57.0773 17.4699L57.0742 17.4423L57.0669 17.3791L57.0614 17.3302L57.0596 17.3154L57.0522 17.2522L57.0444 17.1911V17.1893L57.0364 17.1261L57.0286 17.0625L57.0275 17.0525L57.0205 16.9993L57.012 16.9361L57.0091 16.9135L57.0036 16.8729L56.9944 16.8099L56.9896 16.7749L56.986 16.7474L56.9767 16.6842L56.9694 16.6365L56.9669 16.6211L56.958 16.5579L56.9487 16.4979L56.9481 16.4954L56.9384 16.4324L56.9279 16.3692L56.9267 16.3593L56.9183 16.3067L56.908 16.2436L56.9043 16.2214L56.8969 16.1811L56.8865 16.1186L56.8805 16.0835L56.8756 16.0554L56.8645 15.9929L56.8561 15.9463L56.8528 15.9304L56.8527 15.9303Z" fill="white"/>
<path fill-rule="evenodd" clip-rule="evenodd" d="M34.9341 40H19.9382C17.2536 40 14.6476 39.4883 12.1787 38.4235C9.80375 37.4001 7.66727 35.9765 5.83932 34.1427C4.01066 32.3091 2.59199 30.1653 1.57166 27.7824C0.511572 25.3065 0 22.6932 0 20.0003C0 17.3075 0.511572 14.6935 1.57166 12.2176C2.59244 9.83403 4.01063 7.69164 5.83859 5.85734C7.66654 4.02352 9.80377 2.59995 12.1787 1.57648C14.6476 0.511748 17.2536 0 19.9382 0H34.9341C35.4668 0 35.9972 0.0209823 36.5232 0.0613425C35.7785 0.567528 35.0808 1.14361 34.4387 1.7884C33.1342 3.09621 32.1077 4.62908 31.3704 6.32293C31.1191 6.8997 30.9108 7.48937 30.7423 8.08804H19.9382C18.3454 8.08804 16.8046 8.38275 15.3449 9.02317C13.9262 9.64605 12.6553 10.4991 11.5605 11.5968C10.4657 12.695 9.6157 13.9698 8.99496 15.3927C8.35651 16.8569 8.06248 18.4026 8.06248 20.0003C8.06248 21.598 8.35651 23.1431 8.99496 24.6073C9.6164 26.0308 10.4657 27.305 11.5605 28.4031C12.6553 29.5008 13.9262 30.3539 15.3449 30.9768C16.8046 31.6172 18.3454 31.9119 19.9382 31.9119H34.9341C36.5268 31.9119 38.0679 31.6172 39.5276 30.9768C40.9461 30.3539 42.217 29.5008 43.3118 28.4031C44.4069 27.305 45.2561 26.0308 45.8773 24.6073C46.516 23.1431 46.8098 21.598 46.8098 20.0003C46.8098 18.4027 46.516 16.8569 45.8773 15.3927C45.2566 13.9698 44.4069 12.695 43.3118 11.5968L43.2513 11.5359C43.3424 11.3332 43.4591 11.1524 43.6155 10.9949C43.7732 10.8374 43.9553 10.7203 44.1581 10.6289C44.3077 10.5609 44.4636 10.5395 44.6266 10.5395H52.4943C52.7856 11.0844 53.0551 11.6439 53.3008 12.2176C54.3614 14.6935 54.8723 17.3075 54.8723 20.0003C54.8723 22.6932 54.3614 25.3065 53.3008 27.7823C52.2805 30.1653 50.8619 32.309 49.0332 34.1426C47.205 35.9765 45.0685 37.4 42.6936 38.4235C40.2247 39.4882 37.6187 40 34.9341 40Z" fill="#14FFCA"/>
<path fill-rule="evenodd" clip-rule="evenodd" d="M125.246 17.858L121.635 26.142H117.749L114.141 18.0406V27.8435H110V12.1565H115.73L119.694 22.0522L123.651 12.1565H129.387V27.8435H125.246V17.8609V17.858ZM141.354 28C139.922 28 138.474 27.8087 137.136 27.287C136.011 26.8464 135.005 26.2 134.268 25.2435C133.57 24.3362 133.244 23.2985 133.244 22.1623V17.8406C133.244 16.7044 133.567 15.6638 134.268 14.7565C135.002 13.8029 136.011 13.1507 137.136 12.713C138.471 12.1913 139.922 12 141.354 12C142.784 12 144.231 12.1942 145.566 12.713C146.691 13.1507 147.697 13.8029 148.434 14.7565C149.136 15.6667 149.458 16.7044 149.458 17.8406V22.1623C149.458 23.2985 149.133 24.3362 148.437 25.2435C147.703 26.2 146.697 26.8493 145.569 27.287C144.234 27.8087 142.787 28 141.357 28H141.354ZM160.741 15.3652V27.8435H156.228V15.3652H150.349V12.1565H166.62V15.3652H160.741ZM175.618 28C174.185 28 172.738 27.8087 171.4 27.287C170.275 26.8464 169.269 26.2 168.532 25.2435C167.833 24.3362 167.508 23.2985 167.508 22.1623V17.8406C167.508 16.7044 167.83 15.6638 168.532 14.7565C169.266 13.8029 170.275 13.1507 171.4 12.713C172.735 12.1913 174.185 12 175.618 12C177.047 12 178.495 12.1942 179.83 12.713C180.954 13.1507 181.961 13.8029 182.698 14.7565C183.399 15.6667 183.722 16.7044 183.722 17.8406V22.1623C183.722 23.2985 183.396 24.3362 182.701 25.2435C181.967 26.2 180.96 26.8493 179.833 27.287C178.498 27.8087 177.05 28 175.621 28H175.618ZM199.072 21.4783L204.296 27.8435H198.797L193.931 21.7072H191.791V27.8435H187.28V12.1478H196.959C198.057 12.1478 199.161 12.3101 200.179 12.7333C201.052 13.0986 201.816 13.6377 202.366 14.4058C202.908 15.1594 203.151 16.0116 203.151 16.9304C203.151 17.8464 202.905 18.6986 202.366 19.4493C201.816 20.2174 201.049 20.7594 200.173 21.1246C199.818 21.2725 199.448 21.3913 199.072 21.4783ZM223.387 21.8551L226.034 12.1565H230.695L225.578 27.8435H221.425L217.752 17.6145L213.904 27.8435H209.754L204.637 12.1565H209.298L211.944 21.8551L215.881 12.1565H219.448L223.384 21.8551H223.387ZM242.858 25.3971H235.23L234.016 27.8406H229.127L237.619 12.1536H240.466L248.958 27.8406H244.071L242.858 25.3971ZM257.45 21.8058V27.8435H252.936V21.8058L246.395 12.1565H251.193L255.197 18.5246L259.199 12.1565H264L257.453 21.8058H257.45ZM141.351 24.6899C141.976 24.6899 142.612 24.6058 143.192 24.3768C143.663 24.1913 144.083 23.9188 144.382 23.513C144.666 23.1333 144.791 22.7043 144.791 22.2348V17.7681C144.791 17.3015 144.663 16.8725 144.382 16.4928C144.08 16.087 143.663 15.8116 143.192 15.6261C142.612 15.3942 141.973 15.313 141.351 15.313C140.727 15.313 140.087 15.3942 139.504 15.6261C139.034 15.8145 138.616 16.087 138.314 16.4928C138.033 16.8725 137.906 17.3015 137.906 17.7681V22.2348C137.906 22.7043 138.03 23.1333 138.314 23.513C138.616 23.9188 139.034 24.1913 139.504 24.3768C140.087 24.6087 140.727 24.6899 141.351 24.6899ZM175.615 24.6899C176.239 24.6899 176.876 24.6058 177.456 24.3768C177.926 24.1913 178.344 23.9188 178.646 23.513C178.93 23.1333 179.054 22.7043 179.054 22.2348V17.7681C179.054 17.3015 178.927 16.8725 178.646 16.4928C178.344 16.087 177.926 15.8116 177.456 15.6261C176.876 15.3942 176.236 15.313 175.615 15.313C174.99 15.313 174.351 15.3942 173.768 15.6261C173.297 15.8145 172.88 16.087 172.578 16.4928C172.297 16.8725 172.169 17.3015 172.169 17.7681V22.2348C172.169 22.7043 172.294 23.1333 172.578 23.513C172.88 23.9188 173.297 24.1913 173.768 24.3768C174.351 24.6087 174.99 24.6899 175.615 24.6899ZM191.791 18.5043H196.636C196.979 18.5043 197.323 18.4493 197.636 18.3043C197.906 18.1797 198.122 18.0058 198.279 17.7565C198.444 17.5044 198.515 17.2203 198.524 16.9275C198.524 16.6348 198.453 16.3536 198.293 16.1015C198.137 15.8551 197.921 15.6783 197.654 15.5536C197.34 15.4087 196.985 15.3565 196.639 15.3565H191.794V18.5072L191.791 18.5043ZM241.268 22.1942L239.042 17.7101L236.819 22.1942H241.268Z" fill="white"/>
</svg>
