<svg width="48" height="48" viewBox="0 0 48 48" fill="none" xmlns="http://www.w3.org/2000/svg">
<path d="M0 24C0 4.236 4.236 0 24 0C43.764 0 48 4.236 48 24C48 43.764 43.764 48 24 48C4.236 48 0 43.764 0 24Z" fill="#151515"/>
<path fill-rule="evenodd" clip-rule="evenodd" d="M25.2678 34.9522L25.9002 33.8837C26.3907 33.0549 26.6361 32.6405 27.03 32.4114C27.424 32.1822 27.92 32.1737 28.9121 32.1567C30.3767 32.1314 31.2953 32.0416 32.0656 31.7226C33.495 31.1305 34.6305 29.995 35.2226 28.5656C35.6666 27.4936 35.6666 26.1346 35.6666 23.4166V22.2499C35.6666 18.4309 35.6666 16.5214 34.807 15.1187C34.326 14.3338 33.6662 13.6738 32.8812 13.1929C31.4784 12.3333 29.5689 12.3333 25.75 12.3333H22.25C18.431 12.3333 16.5215 12.3333 15.1187 13.1929C14.3338 13.6738 13.6739 14.3338 13.1929 15.1187C12.3333 16.5214 12.3333 18.4309 12.3333 22.2499V23.4166C12.3333 26.1346 12.3333 27.4936 12.7773 28.5656C13.3694 29.995 14.505 31.1305 15.9343 31.7226C16.7047 32.0416 17.6232 32.1314 19.0878 32.1567C20.0799 32.1737 20.5759 32.1822 20.9699 32.4114C21.3639 32.6406 21.6092 33.0549 22.0997 33.8837L22.7322 34.9522C23.2959 35.9046 24.7041 35.9046 25.2678 34.9522ZM18.75 21.3338C18.75 23.3784 21.2738 25.5521 22.8218 26.6928C23.3515 27.0833 23.6165 27.2786 24 27.2786C24.3835 27.2786 24.6484 27.0834 25.1782 26.6928C26.7261 25.5521 29.25 23.3786 29.25 21.3338C29.25 18.2104 26.3624 17.0443 24 19.4571C21.6376 17.0443 18.75 18.2104 18.75 21.3338Z" fill="white"/>
</svg>
