<svg width="48" height="48" viewBox="0 0 48 48" fill="none" xmlns="http://www.w3.org/2000/svg">
<path d="M0 24C0 4.236 4.236 0 24 0C43.764 0 48 4.236 48 24C48 43.764 43.764 48 24 48C4.236 48 0 43.764 0 24Z" fill="#151515"/>
<path d="M19.3335 14.0835C19.3335 13.117 20.117 12.3335 21.0835 12.3335H26.9168C27.8833 12.3335 28.6668 13.117 28.6668 14.0835V15.2502C28.6668 16.2167 27.8833 17.0002 26.9168 17.0002H21.0835C20.117 17.0002 19.3335 16.2167 19.3335 15.2502V14.0835Z" fill="white"/>
<path fill-rule="evenodd" clip-rule="evenodd" d="M17.5833 14.7095C16.1158 14.7918 15.1893 15.0257 14.5251 15.6898C13.5 16.715 13.5 18.3649 13.5 21.6647V28.6648C13.5 31.9646 13.5 33.6145 14.5251 34.6396C15.5503 35.6648 17.2002 35.6648 20.5 35.6648H27.5C30.7998 35.6648 32.4497 35.6648 33.4748 34.6396C34.5 33.6145 34.5 31.9646 34.5 28.6648V21.6647C34.5 18.3649 34.5 16.715 33.4748 15.6898C32.8107 15.0257 31.8842 14.7918 30.4167 14.7095V15.2501C30.4167 17.1831 28.8497 18.7501 26.9167 18.7501H21.0833C19.1503 18.7501 17.5833 17.1831 17.5833 15.2501V14.7095ZM17.2917 22.2501C17.2917 21.7668 17.6834 21.3751 18.1667 21.3751H29.8333C30.3166 21.3751 30.7083 21.7668 30.7083 22.2501C30.7083 22.7333 30.3166 23.1251 29.8333 23.1251H18.1667C17.6834 23.1251 17.2917 22.7333 17.2917 22.2501ZM18.4583 26.3334C18.4583 25.8502 18.8501 25.4584 19.3333 25.4584H28.6667C29.1499 25.4584 29.5417 25.8502 29.5417 26.3334C29.5417 26.8166 29.1499 27.2084 28.6667 27.2084H19.3333C18.8501 27.2084 18.4583 26.8166 18.4583 26.3334ZM19.625 30.4167C19.625 29.9335 20.0168 29.5417 20.5 29.5417H27.5C27.9832 29.5417 28.375 29.9335 28.375 30.4167C28.375 30.9 27.9832 31.2917 27.5 31.2917H20.5C20.0168 31.2917 19.625 30.9 19.625 30.4167Z" fill="white"/>
</svg>
