<svg width="48" height="48" viewBox="0 0 48 48" fill="none" xmlns="http://www.w3.org/2000/svg">
<path d="M0 24C0 4.236 4.236 0 24 0C43.764 0 48 4.236 48 24C48 43.764 43.764 48 24 48C4.236 48 0 43.764 0 24Z" fill="#151515"/>
<path d="M33.6483 28.976L34.4714 24.2162C34.6769 23.0274 33.7627 21.9401 32.5576 21.9401H26.513C25.9139 21.9401 25.4577 21.4023 25.5547 20.8105L26.3278 16.0918C26.4533 15.3252 26.4175 14.5408 26.2225 13.7889C26.0609 13.1661 25.5803 12.6659 24.9483 12.4629L24.7792 12.4086C24.3972 12.2859 23.9804 12.3144 23.6202 12.488C23.2239 12.679 22.9339 13.0274 22.8264 13.4417L22.2714 15.5812C22.0948 16.2619 21.8377 16.919 21.506 17.5399C21.0214 18.447 20.2722 19.173 19.4934 19.8441L17.8149 21.2906C17.3416 21.6984 17.093 22.3092 17.1469 22.932L18.0944 33.8901C18.1813 34.8952 19.0217 35.6668 20.0294 35.6668H25.4528C29.5143 35.6668 32.9805 32.837 33.6483 28.976Z" fill="white"/>
<path fill-rule="evenodd" clip-rule="evenodd" d="M13.4623 21.066C13.9304 21.0458 14.3314 21.398 14.3717 21.8649L15.5053 34.9741C15.5781 35.8162 14.9148 36.542 14.0678 36.542C13.27 36.542 12.625 35.8947 12.625 35.0985V21.9402C12.625 21.4716 12.9941 21.0862 13.4623 21.066Z" fill="white"/>
</svg>
