<svg width="48" height="48" viewBox="0 0 48 48" fill="none" xmlns="http://www.w3.org/2000/svg">
<path d="M0 24C0 4.236 4.236 0 24 0C43.764 0 48 4.236 48 24C48 43.764 43.764 48 24 48C4.236 48 0 43.764 0 24Z" fill="#151515"/>
<path d="M21.1585 20.1856L21.7587 22.358C22.3245 24.4061 22.6074 25.4302 23.4393 25.8961C24.271 26.3618 25.3269 26.0874 27.4386 25.5386L29.6785 24.9566C31.7903 24.4078 32.8461 24.1334 33.3264 23.3265C33.8066 22.5197 33.5237 21.4957 32.9579 19.4475L32.3577 17.2751C31.7919 15.2269 31.509 14.2028 30.6771 13.7371C29.8453 13.2713 28.7894 13.5457 26.6777 14.0945L24.4378 14.6766C22.326 15.2254 21.2702 15.4998 20.7899 16.3066C20.3097 17.1133 20.5926 18.1374 21.1585 20.1856Z" fill="white"/>
<path d="M12.6571 16.1215C12.7863 15.6559 13.2685 15.3831 13.7342 15.5123L15.7218 16.0638C16.7915 16.3605 17.6381 17.1852 17.9334 18.2541L20.4429 27.3378L20.6276 27.9755C21.3662 28.2512 22.0007 28.7678 22.4033 29.4539L22.765 29.3422L33.1134 26.653C33.5811 26.5314 34.0589 26.812 34.1805 27.2797C34.302 27.7474 34.0213 28.225 33.5536 28.3466L23.2434 31.0261L22.8599 31.1445C22.8521 32.6272 21.8291 33.9815 20.2811 34.3838C18.4255 34.8659 16.5183 33.798 16.0211 31.9983C15.5239 30.1986 16.625 28.3487 18.4806 27.8665C18.5726 27.8426 18.6646 27.8225 18.7567 27.8061L16.2466 18.7201C16.1202 18.2629 15.7505 17.8878 15.2539 17.7501L13.2663 17.1986C12.8006 17.0694 12.5279 16.5872 12.6571 16.1215Z" fill="white"/>
</svg>
