<svg width="40" height="40" viewBox="0 0 40 40" fill="none" xmlns="http://www.w3.org/2000/svg">
<rect width="40" height="40" rx="10" fill="#F5F5F7"/>
<path d="M30.56 20.25C30.56 19.47 30.49 18.72 30.36 18H20V22.26H25.92C25.66 23.63 24.88 24.79 23.71 25.57V28.34H27.28C29.36 26.42 30.56 23.6 30.56 20.25Z" fill="#4285F4"/>
<path d="M20.0002 31C22.9702 31 25.4602 30.02 27.2802 28.34L23.7102 25.57C22.7302 26.23 21.4802 26.63 20.0002 26.63C17.1402 26.63 14.7102 24.7 13.8402 22.1H10.1802V24.94C11.9902 28.53 15.7002 31 20.0002 31Z" fill="#34A853"/>
<path d="M13.84 22.0899C13.62 21.4299 13.49 20.7299 13.49 19.9999C13.49 19.2699 13.62 18.5699 13.84 17.9099V15.0699H10.18C9.43 16.5499 9 18.2199 9 19.9999C9 21.7799 9.43 23.4499 10.18 24.9299L13.03 22.7099L13.84 22.0899Z" fill="#FBBC05"/>
<path d="M20.0002 13.38C21.6202 13.38 23.0602 13.94 24.2102 15.02L27.3602 11.87C25.4502 10.09 22.9702 9 20.0002 9C15.7002 9 11.9902 11.47 10.1802 15.07L13.8402 17.91C14.7102 15.31 17.1402 13.38 20.0002 13.38Z" fill="#EA4335"/>
</svg>
