<svg width="40" height="40" viewBox="0 0 40 40" fill="none" xmlns="http://www.w3.org/2000/svg">
<g id="2&#208;&#147;&#208;&#152;&#208;&#161;">
<g clip-path="url(#clip0_203_2524)">
<g id="Group">
<path id="Vector" fill-rule="evenodd" clip-rule="evenodd" d="M-0.000182273 0H39.9449C39.952 3.60368 39.9449 7.2056 39.9467 10.8093C39.9378 11.3033 39.9644 11.7992 39.9343 12.2933C39.635 12.272 39.3411 12.2083 39.0453 12.1658C35.7197 11.6433 32.394 11.128 29.0683 10.6056C28.8682 10.5684 28.6168 10.5985 28.4787 10.4161C27.6853 9.46166 26.722 8.64707 25.6471 8.02904C24.0196 7.07632 22.1372 6.58403 20.2566 6.54507C19.9024 6.50434 19.55 6.56455 19.1959 6.56101C18.2945 6.6283 17.3949 6.77174 16.5325 7.04622C15.9233 7.21976 15.3442 7.48185 14.7776 7.7581C14.5367 7.87852 14.303 8.01487 14.071 8.15477C13.8744 8.28581 13.6318 8.19019 13.4193 8.16008C9.12856 7.48539 4.83601 6.81955 0.543469 6.14663C0.362842 6.11475 0.180445 6.09173 -0.00195312 6.06694V0H-0.000182273Z" fill="#FEB918"/>
<path id="Vector_2" fill-rule="evenodd" clip-rule="evenodd" d="M39.9449 0H39.998V40H-0.000182273V39.9823C0.183986 39.977 0.366384 39.9345 0.550553 39.961C0.697533 39.9858 0.844514 39.9628 0.991495 39.9522C1.61661 39.961 2.24172 39.9451 2.86683 39.954C3.0386 39.9805 3.21037 39.961 3.38214 39.9504C3.73809 39.9628 4.09226 39.9433 4.4482 39.9486C4.63237 39.9416 4.81653 39.9805 4.99893 39.9557C5.14591 39.9398 5.29289 39.9575 5.43987 39.9628C5.95342 39.9309 6.47051 39.9628 6.98406 39.9486C7.47458 39.9522 7.96511 39.9416 8.45386 39.961C8.8098 39.938 9.16575 39.9416 9.52169 39.961C9.68106 39.9575 9.84044 39.938 9.99982 39.9557C10.1964 39.9823 10.3912 39.9309 10.5877 39.9557C10.7595 39.9805 10.9295 39.9451 11.1013 39.9469C11.3102 39.9469 11.5192 39.9416 11.7264 39.954C11.9354 39.977 12.1425 39.9292 12.3515 39.9557C12.4861 39.977 12.6207 39.9557 12.7553 39.9486C13.6619 39.9664 14.5686 39.9256 15.4753 39.9593C15.941 39.938 16.4068 39.9522 16.8725 39.9469C17.3754 39.9557 17.8783 39.9274 18.3795 39.9646C18.5017 39.9593 18.6239 39.9433 18.7478 39.9486C19.017 39.9646 19.2879 39.9327 19.5571 39.9646C20.0459 39.9256 20.5382 39.9664 21.0269 39.9486C21.1739 39.9486 21.3209 39.9787 21.4679 39.9557C21.6644 39.9274 21.8592 39.9858 22.0558 39.9557C22.2523 39.9327 22.4471 39.9734 22.6437 39.9522C22.8403 39.9345 23.0368 39.9752 23.2316 39.9522C23.4282 39.9309 23.6247 39.9787 23.8195 39.9557C23.9789 39.938 24.1383 39.9628 24.2977 39.9628C24.689 39.9327 25.0822 39.9486 25.4735 39.9593C25.7055 39.9345 25.9393 39.9681 26.173 39.9522C26.3944 39.9345 26.6139 39.9823 26.8353 39.9504C27.2638 39.9593 27.6924 39.9416 28.1227 39.9504C28.2449 39.954 28.3671 39.9734 28.4893 39.9575C28.723 39.9274 28.955 39.9911 29.1888 39.954C29.8263 39.9486 30.4638 39.9522 31.1013 39.954C31.2607 39.9734 31.42 39.9646 31.5794 39.9522C32.1178 39.9664 32.6561 39.9486 33.1962 39.9575C33.6495 39.9292 34.1029 39.9717 34.558 39.9504C34.7298 39.9593 34.9015 39.9752 35.0733 39.9522C35.5142 39.9522 35.9552 39.9451 36.3961 39.9522C36.6281 39.9858 36.8619 39.9362 37.0956 39.9486C37.5242 39.9575 37.9545 39.9345 38.3813 39.9664C38.9001 39.9309 39.4225 39.954 39.9431 39.9469C39.9538 38.1619 39.9449 36.3786 39.9467 34.5936C39.9449 33.1061 39.952 31.6186 39.9431 30.131C38.1829 30.3931 36.4245 30.6782 34.6642 30.9509C23.3025 32.7253 11.9407 34.4997 0.580657 36.2759C0.387634 36.3078 0.192841 36.3379 -0.00195312 36.3538V34.7866C5.88613 33.864 11.7742 32.9432 17.6641 32.0276C17.6676 31.1528 17.5808 30.2798 17.4994 29.4103C17.425 28.6825 17.2532 27.9617 16.9646 27.2871C16.7255 26.7452 16.405 26.2352 15.9853 25.8137C15.5249 25.3391 14.9423 24.9938 14.3207 24.7742C13.515 24.4891 12.6526 24.4023 11.8008 24.4183C11.5245 24.4059 11.243 24.4431 10.9702 24.3953C10.9118 24.3386 10.8835 24.2571 10.8481 24.1863C10.6196 23.6745 10.3646 23.1751 10.1663 22.651C10.083 22.4579 9.99982 22.2614 9.97325 22.0506C9.95909 22.0418 9.93075 22.0241 9.91659 22.0152C9.42429 20.5968 9.102 19.1128 9.05418 17.6094C8.98335 16.2759 9.16752 14.9283 9.612 13.6692C10.0671 12.3676 10.7808 11.1528 11.7069 10.131C11.8805 9.93625 12.0682 9.75385 12.2417 9.55906C8.16167 8.91624 4.08163 8.2805 -0.000182273 7.64477V6.06694C0.182215 6.0935 0.364613 6.11652 0.54524 6.14663C4.83778 6.81778 9.13033 7.48539 13.4211 8.16009C13.6336 8.19019 13.8762 8.28582 14.0728 8.15477C14.303 8.0131 14.5367 7.87852 14.7793 7.7581C15.3478 7.48185 15.9251 7.21976 16.5343 7.04622C17.3967 6.77174 18.2963 6.6283 19.1976 6.56101C19.5518 6.56455 19.9042 6.50434 20.2584 6.54507C22.139 6.58403 24.0214 7.07632 25.6488 8.02904C26.7255 8.64707 27.6871 9.46166 28.4804 10.4162C28.6186 10.5985 28.8682 10.5684 29.0701 10.6056C32.3958 11.1263 35.7214 11.6416 39.0471 12.1658C39.3428 12.2065 39.6368 12.272 39.9361 12.2933C39.9662 11.7992 39.9396 11.3033 39.9485 10.8093C39.9467 7.2056 39.952 3.60368 39.9467 0L39.9449 0ZM15.4062 9.19426C14.071 9.89375 12.9146 10.9315 12.0788 12.187C11.1721 13.547 10.6426 15.1638 10.6037 16.8001C10.5559 18.856 11.0499 20.9031 11.9106 22.7625C11.9336 22.8086 11.9602 22.8688 12.0239 22.8528C13.3839 22.8617 14.7758 23.1238 15.9552 23.8268C16.6405 24.2341 17.2355 24.7866 17.6995 25.4347C18.553 26.6194 18.9586 28.0698 19.0807 29.5112C19.148 30.2603 19.2242 31.0112 19.2206 31.7638C19.7236 31.7372 20.2159 31.615 20.7152 31.553C20.7347 30.8394 20.7985 30.1257 20.8675 29.4156C20.9897 28.0591 21.3793 26.7027 22.1461 25.5658C22.5977 24.8999 23.1838 24.3262 23.8674 23.8994C25.0361 23.1627 26.4333 22.8812 27.7986 22.8564C27.8606 22.8511 27.9279 22.8635 27.9864 22.8369C28.0908 22.6634 28.1581 22.4686 28.2396 22.2826C28.9302 20.6464 29.3393 18.8773 29.334 17.0958C29.357 15.4294 28.8629 13.7666 27.9722 12.3605C27.2231 11.1688 26.1836 10.1611 24.9741 9.44041C23.692 8.67363 22.2258 8.23269 20.7383 8.12821C18.9107 7.9954 17.0354 8.33363 15.4098 9.19426H15.4062ZM29.7289 12.2897C30.5824 13.9295 30.9915 15.7995 30.8817 17.6465C30.8321 18.957 30.5842 20.2568 30.1858 21.5035C29.8741 22.4987 29.4402 23.4514 28.9833 24.3864C28.8665 24.4448 28.7283 24.413 28.6044 24.42C27.9332 24.42 27.255 24.4006 26.5927 24.5245C25.7639 24.6627 24.9476 24.9708 24.2906 25.5056C23.4158 26.2104 22.8828 27.2605 22.6207 28.3372C22.4418 29.0703 22.3922 29.8247 22.3338 30.5738C22.2931 30.8146 22.3002 31.0607 22.2878 31.3051C22.5091 31.2732 22.7322 31.2414 22.9518 31.1936C23.4034 31.1387 23.8496 31.0519 24.3012 30.9899C27.9332 30.4197 31.5652 29.8548 35.1973 29.2863C36.7822 29.0349 38.3689 28.7994 39.9502 28.539C39.9502 23.655 39.9538 18.7693 39.9502 13.8852C36.5431 13.3575 33.1378 12.8227 29.7324 12.2897H29.7289Z" fill="#FFFFFE"/>
<path id="Vector_3" fill-rule="evenodd" clip-rule="evenodd" d="M-0.000182273 7.64648C4.07986 8.28222 8.16167 8.91796 12.2417 9.56078C12.0682 9.75557 11.8805 9.9362 11.7069 10.1328C10.7808 11.1563 10.0671 12.3693 9.612 13.6709C9.16575 14.93 8.98158 16.2776 9.05418 17.6111C9.102 19.1145 9.42429 20.6003 9.91659 22.0169C9.93075 22.0258 9.95909 22.0435 9.97325 22.0524C9.99982 22.2631 10.083 22.4579 10.1663 22.6527C10.3664 23.1769 10.6196 23.6762 10.8481 24.188C10.8835 24.2606 10.9118 24.3403 10.9702 24.397C11.243 24.4448 11.5245 24.4076 11.8008 24.42C12.6508 24.4041 13.515 24.4891 14.3207 24.7759C14.9423 24.9955 15.5249 25.3408 15.9853 25.8154C16.4032 26.2369 16.7255 26.7469 16.9646 27.2888C17.2532 27.9635 17.425 28.6824 17.4994 29.412C17.5826 30.2815 17.6694 31.1545 17.6641 32.0293C11.7742 32.9449 5.88613 33.8657 -0.00195312 34.7883V7.64648H-0.000182273ZM9.92721 22.0807C9.89711 22.1338 9.90596 22.1586 9.95732 22.1551C9.98034 22.1073 9.96971 22.0825 9.92721 22.0807ZM29.7271 12.2879C33.1325 12.8209 36.5396 13.3539 39.9449 13.8834C39.9502 18.7674 39.9467 23.6532 39.9449 28.5372C38.3618 28.7975 36.7751 29.0331 35.192 29.2845C31.5599 29.853 27.9279 30.4179 24.2959 30.9881C23.8461 31.0501 23.3981 31.1368 22.9465 31.1917C22.7606 31.2006 22.5746 31.236 22.3869 31.2236C22.332 31.1723 22.332 31.0943 22.3267 31.027C22.3214 30.8747 22.3267 30.7225 22.3285 30.5719C22.3852 29.8229 22.4365 29.0685 22.6154 28.3353C22.8775 27.2587 23.4105 26.2086 24.2853 25.5038C24.9405 24.969 25.7586 24.6608 26.5874 24.5227C27.2515 24.3987 27.9279 24.4165 28.5991 24.4182C28.7248 24.4111 28.8612 24.4412 28.978 24.3846C29.4349 23.4496 29.8705 22.4986 30.1804 21.5016C30.5789 20.2532 30.8268 18.9534 30.8764 17.6447C30.9862 15.7977 30.5771 13.9277 29.7236 12.2879H29.7271Z" fill="#18AB1C"/>
<path id="Vector_4" fill-rule="evenodd" clip-rule="evenodd" d="M15.4064 9.19425C17.0321 8.33539 18.9074 7.99538 20.7349 8.1282C22.2224 8.23268 23.6905 8.67362 24.9708 9.4404C26.1785 10.1629 27.2198 11.1687 27.9689 12.3605C28.8596 13.7648 29.3554 15.4276 29.3306 17.0958C29.336 18.8773 28.9269 20.6446 28.2363 22.2826C28.1548 22.4686 28.0875 22.6616 27.983 22.8369C27.9246 22.8635 27.8573 22.8511 27.7953 22.8564C26.43 22.8794 25.0328 23.1627 23.864 23.8994C23.1822 24.3262 22.5961 24.8999 22.1428 25.5658C21.376 26.7044 20.9846 28.0591 20.8642 29.4156C20.7969 30.1275 20.7332 30.8394 20.7119 31.553C20.2125 31.6132 19.7202 31.7354 19.2173 31.7638C19.2209 31.0111 19.1447 30.2603 19.0774 29.5112C18.957 28.0698 18.5497 26.6194 17.6961 25.4347C17.2322 24.7866 16.6354 24.2341 15.9519 23.8268C14.7725 23.1238 13.3806 22.8635 12.0206 22.8528C11.9568 22.8688 11.9303 22.8103 11.9072 22.7625C11.0466 20.9031 10.5525 18.8542 10.6003 16.8001C10.6411 15.1638 11.1688 13.5488 12.0755 12.187C12.9113 10.9315 14.0677 9.89373 15.4029 9.19425H15.4064Z" fill="#0174FA"/>
<path id="Vector_5" fill-rule="evenodd" clip-rule="evenodd" d="M9.92709 22.0825C9.97136 22.0825 9.98199 22.1073 9.95719 22.1569C9.90584 22.1604 9.89521 22.1374 9.92709 22.0825ZM34.6659 30.9527C36.4261 30.68 38.1828 30.3949 39.9448 30.1328C39.9537 31.6203 39.9448 33.1078 39.9483 34.5954C39.9466 36.3804 39.9554 38.1654 39.9448 39.9486C39.4242 39.954 38.9018 39.9309 38.3829 39.9681C37.9544 39.9362 37.5258 39.9593 37.0973 39.9504C36.8635 39.938 36.6315 39.9894 36.3978 39.954C35.9568 39.9451 35.5159 39.954 35.075 39.954C34.9032 39.9752 34.7314 39.9593 34.5596 39.9522C34.1063 39.9734 33.653 39.9309 33.1979 39.9593C32.6577 39.9504 32.1194 39.9664 31.5811 39.954C31.4217 39.9664 31.2623 39.977 31.1029 39.9557C30.4654 39.9557 29.8279 39.9522 29.1904 39.9557C28.9584 39.9929 28.7247 39.9309 28.4909 39.9593C28.3687 39.9734 28.2466 39.954 28.1244 39.9522C27.6958 39.9433 27.2655 39.9628 26.837 39.9522C26.6156 39.9858 26.396 39.9362 26.1747 39.954C25.9409 39.9681 25.7089 39.9345 25.4752 39.961C25.0838 39.9504 24.6907 39.9345 24.2993 39.9646C24.1399 39.9646 23.9806 39.938 23.8212 39.9575C23.6246 39.9805 23.4298 39.9345 23.2333 39.954C23.0367 39.9787 22.8419 39.9362 22.6453 39.954C22.4488 39.9734 22.2522 39.9327 22.0574 39.9575C21.8609 39.9876 21.6661 39.9292 21.4695 39.9575C21.3225 39.9805 21.1755 39.9504 21.0286 39.9504C20.538 39.9699 20.0475 39.9292 19.5588 39.9664C19.2896 39.9345 19.0186 39.9664 18.7495 39.9504C18.6255 39.9433 18.5051 39.9593 18.3811 39.9664C17.88 39.9309 17.3753 39.9593 16.8741 39.9486C16.4084 39.954 15.9427 39.9398 15.4769 39.961C14.5703 39.9256 13.6636 39.9664 12.7569 39.9504C12.6223 39.9557 12.4877 39.977 12.3532 39.9575C12.146 39.9309 11.937 39.9788 11.728 39.9557C11.5209 39.9433 11.3119 39.9486 11.1029 39.9486C10.9312 39.9486 10.7594 39.9823 10.5894 39.9575C10.3928 39.9327 10.198 39.9841 10.0015 39.9575C9.84209 39.9398 9.68271 39.9575 9.52333 39.9628C9.16739 39.9416 8.81145 39.938 8.45551 39.9628C7.96676 39.9416 7.47623 39.954 6.9857 39.9504C6.47039 39.9646 5.95507 39.9327 5.44152 39.9646C5.29454 39.9593 5.14756 39.9416 5.00058 39.9575C4.81641 39.9805 4.63401 39.9433 4.44984 39.9504C4.0939 39.9451 3.73973 39.9646 3.38379 39.9522C3.21202 39.961 3.04025 39.9823 2.86847 39.9557C2.24336 39.9469 1.61825 39.9628 0.993142 39.954C0.846161 39.9646 0.69918 39.9876 0.5522 39.9628C0.368031 39.9362 0.183863 39.977 0.00146484 39.9841V36.3574C0.196259 36.3414 0.391052 36.3113 0.584075 36.2794C11.9459 34.5033 23.3059 32.7271 34.6677 30.9545L34.6659 30.9527ZM22.3319 30.5755C22.2912 30.8164 22.2983 31.0625 22.2859 31.3069C22.5072 31.275 22.7303 31.2431 22.9499 31.1953C22.764 31.2042 22.5781 31.2396 22.3903 31.2272C22.3354 31.1758 22.3354 31.0979 22.3301 31.0306C22.3248 30.8783 22.3301 30.726 22.3319 30.5755Z" fill="#81D814"/>
</g>
</g>
</g>
<defs>
<clipPath id="clip0_203_2524">
<rect width="40" height="40" rx="10" fill="white"/>
</clipPath>
</defs>
</svg>
