<svg width="96" height="20" viewBox="0 0 96 20" fill="none" xmlns="http://www.w3.org/2000/svg">
<g id="Vector">
<path d="M4.37057 12.9429C4.37057 13.3613 4.59933 13.6709 5.05685 13.8717C5.51438 14.0726 6.11638 14.173 6.86287 14.173C7.89832 14.173 8.74113 13.9638 9.3913 13.5454C10.0655 13.127 10.4027 12.5914 10.4027 11.9387H11.089C11.089 13.4115 10.5592 14.5997 9.49966 15.5035C8.44013 16.4072 7.04348 16.8591 5.3097 16.8591C3.76856 16.8591 2.49231 16.5495 1.48094 15.9303C0.493645 15.2943 0 14.4826 0 13.4952C0 12.5914 0.385284 11.8801 1.15585 11.3613C1.92642 10.8258 3.13043 10.3906 4.76789 10.0559L10.4027 8.97642V10.9345L6.28495 11.7379C5.00869 11.9889 4.37057 12.3906 4.37057 12.9429ZM14.7732 16.3319H10.4027L11.5946 13.445L10.4027 13.0684V8.70027C10.4027 8.16472 10.1378 7.73795 9.60802 7.41996C9.07826 7.10197 8.37993 6.94298 7.51304 6.94298C6.62207 6.94298 5.88762 7.14381 5.3097 7.54548C4.73177 7.93041 4.39465 8.43249 4.29833 9.05173L0 8.65006C0.264883 7.36138 1.07157 6.30701 2.42007 5.48694C3.76856 4.66687 5.4903 4.25684 7.58528 4.25684C9.70434 4.25684 11.4261 4.6585 12.7505 5.46184C14.099 6.26517 14.7732 7.2526 14.7732 8.42413V16.3319Z" fill="white"/>
<path d="M32.1715 5.26531H45.0426V8.28856H40.6683V16.4484H36.5459V8.28856H32.1715V5.26531Z" fill="white"/>
<path d="M56.2002 5.26531H60.5846L55.0511 16.6637C54.4867 17.8312 53.7509 18.6792 52.8438 19.2075C51.9367 19.7358 50.9388 20 49.8503 20C49.0103 20 48.2577 19.8989 47.5925 19.6967C46.934 19.501 46.2923 19.1847 45.6674 18.7477V15.9788C46.3057 16.3701 46.9004 16.6506 47.4514 16.8202C48.0024 16.9898 48.6072 17.0746 49.2657 17.0746C49.8637 17.0746 50.3677 16.9507 50.7775 16.7028C51.1874 16.4549 51.5234 16.031 51.7855 15.4309L51.7955 15.4015H49.9914L45.0929 5.26531H49.6386L52.8841 12.8968L56.2002 5.26531Z" fill="white"/>
<path d="M70.4994 12.8283L73.4526 5.26531H79.6413V16.4484H75.7809V8.35705L72.3641 16.4484H68.6045L65.1977 8.41575V16.4484H61.3374V5.26531H67.526L70.4994 12.8283Z" fill="white"/>
<path d="M85.5579 12.7403L90.7084 5.26531H96V16.4484H91.9381V8.75819L86.6364 16.4484H81.5061V5.26531H85.5579V12.7403Z" fill="white"/>
<path d="M22.7218 2.0372C24.2937 2.05756 27.3458 1.80283 27.6594 0C27.6932 0.94561 27.641 1.93287 27.5544 2.87164C27.4813 3.42814 27.3003 3.89033 27.0114 4.25822C26.7007 4.62583 26.2275 4.89843 25.5919 5.07601C24.9566 5.2393 24.0604 5.31346 22.9035 5.29847L20.7424 5.27049L20.7872 2.01214L22.7218 2.0372Z" fill="white"/>
<path d="M20.7106 12.7402L25.8611 5.2652H31.1527V16.4483H27.0908V8.75809L21.7891 16.4483H16.6588V5.2652H20.7106V12.7402Z" fill="white"/>
</g>
</svg>
