<svg width="100" height="100" viewBox="0 0 100 100" fill="none" xmlns="http://www.w3.org/2000/svg">
<path d="M50 18.75C62.5167 18.75 75.9333 21.4755 86.6083 28.7213C93.5458 33.4598 100 40.6477 100 50.0089C100 60.9466 91.2625 68.9005 82.8917 73.5544C72.9292 79.0678 61.1583 81.25 50 81.25C37.4875 81.25 24.0958 78.5556 13.4167 71.2831C6.48333 66.5402 0 59.3567 0 50.0134C0 39.0267 8.71667 31.1039 17.1083 26.4411C27.1 20.9367 38.8458 18.75 50 18.75ZM49.8958 22.0723C38.2583 22.0723 25.7208 24.4015 15.625 30.9035C9.275 34.9651 3 41.3558 3 49.8441C3 59.8155 11.5 66.794 19.1 70.8022C28.5083 75.7099 39.5042 77.616 49.8958 77.616C61.5542 77.616 74.1 75.2868 84.1958 68.7847C90.5167 64.6965 96.8167 58.3369 96.8167 49.8441C96.8167 39.855 88.3375 32.863 80.7167 28.8906C71.3083 23.9739 60.3083 22.0723 49.8958 22.0723ZM5.97917 42.9413L25.1333 39.4497L30.9 26.076L36.6417 39.4453L55.7917 42.9368L36.6417 46.4639L30.9 59.8689L25.1333 46.4639L5.97917 42.9413ZM48.0875 53.1352L56.5375 51.5498L59.0583 45.4975L61.5833 51.5498L70.0333 53.1352L61.5833 54.694L59.0583 60.7507L56.5375 54.694L48.0875 53.1352ZM65.5708 37.0092L74.0208 35.4505L76.5417 29.3715L79.0667 35.4461L87.5167 37.0048L79.0667 38.5947L76.5417 44.6514L74.0167 38.5947L65.5708 37.0092ZM56.5417 65.6317L64.9583 64.073L67.4875 57.994L70.0375 64.073L78.4833 65.6317L70.0375 67.2216L67.4875 73.2783L64.9625 67.2216L56.5417 65.6317ZM30.5833 67.8183L39.0333 66.2596L41.5833 60.1762L44.1042 66.2596L52.5542 67.8183L44.1042 69.4082L41.5833 75.4605L39.0333 69.4082L30.5833 67.8183ZM73.0667 52.8858L81.4917 51.296L84.0125 45.2437L86.5625 51.296L95.0125 52.8858L86.5625 54.4446L84.0125 60.4879L81.4875 54.4446L73.0667 52.8858Z" fill="white"/>
</svg>
