<svg width="100" height="100" viewBox="0 0 100 100" fill="none" xmlns="http://www.w3.org/2000/svg">
<path d="M72.9335 16.2598C70.6613 26.4847 69.7257 31.2296 67.8544 38.5809C66.05 45.6649 64.6466 52.281 62.2407 55.4889C59.8349 58.7635 56.5602 59.4318 54.3548 59.6992C53.2187 59.8328 52.3499 59.8996 49.8772 59.8996C47.4045 59.8996 46.5357 59.8328 45.3996 59.6992C43.1942 59.4318 39.9196 58.7635 37.5137 55.4889C35.1078 52.281 33.7044 45.6649 31.9668 38.5809C30.0956 31.1628 29.16 26.4847 26.8877 16.2598C26.8877 16.2598 24.6155 16.3266 23.6131 16.3934C22.2097 16.4603 21.1404 16.5939 20.0043 16.7276C20.0043 16.7276 21.3409 37.779 21.9423 46.7342C22.5438 56.0903 23.6799 71.929 24.6824 83.8916C24.6824 83.8916 26.6204 84.2257 29.8283 84.3594C33.1698 84.5599 34.7068 84.5599 34.7068 84.5599C36.1103 79.2803 37.781 71.9958 39.7191 68.8548C41.323 66.3153 43.7289 66.048 45.1323 65.8475C47.2708 65.5802 49.1421 65.5133 49.944 65.5133C50.8128 65.5133 52.6172 65.5133 54.7558 65.8475C56.1592 66.048 58.5651 66.3153 60.169 68.8548C62.1071 71.9958 63.8446 79.2803 65.1812 84.5599C65.1812 84.5599 66.6515 84.5599 69.993 84.3594C73.2008 84.1589 75.1389 83.8916 75.1389 83.8916C76.1413 71.929 77.2774 56.1572 77.8789 46.7342C78.4804 37.8458 79.817 16.7276 79.817 16.7276C78.6809 16.5939 77.5448 16.4603 76.2082 16.3934C75.2057 16.3266 72.9335 16.2598 72.9335 16.2598Z" fill="white"/>
<path d="M99.4654 28.6888C98.1288 15.3229 89.1736 12.516 81.3545 11.1794C77.4115 10.5111 70.3944 9.97647 65.9168 9.77598C61.9738 9.50866 52.7513 9.375 49.9445 9.375C47.1376 9.375 37.9151 9.50866 33.9721 9.77598C29.4945 9.97647 22.4774 10.5111 18.5344 11.1794C10.7153 12.516 1.76015 15.3229 0.423555 28.6888C0.0225775 32.3645 -0.044252 37.1094 0.0225772 42.1884C0.156235 50.6758 0.891367 56.3564 1.29234 60.3662C1.55967 63.1062 2.69577 71.2594 4.16602 75.4697C6.17092 81.2839 7.97533 82.9546 10.1139 84.6922C13.99 87.8332 20.4057 88.8357 21.7423 89.103C28.9599 90.3727 43.5288 90.6401 50.0113 90.6401C56.4269 90.6401 71.0627 90.4396 78.2803 89.103C79.6169 88.8357 86.0326 87.9 89.9087 84.6922C92.0472 82.9546 93.8517 81.2839 95.8565 75.4697C97.3268 71.2594 98.4629 63.0394 98.7302 60.3662C99.1312 56.4232 99.8663 50.6758 100 42.1884C99.9332 37.0425 99.7995 32.2976 99.4654 28.6888ZM94.52 51.1436C93.718 61.8364 92.7824 68.2521 91.4458 72.8633C90.2428 76.9399 88.7726 79.6131 86.634 81.5512C83.0252 84.8259 78.0798 85.4942 75.1393 85.962C68.8573 86.8976 58.2313 87.2318 49.9445 87.2318C41.5907 87.2318 31.0316 86.8976 24.7496 85.962C21.8091 85.4942 16.8637 84.8259 13.2549 81.5512C11.1163 79.6131 9.64606 76.8731 8.44313 72.8633C7.10653 68.2521 6.10408 61.8364 5.36896 51.1436C4.90115 44.728 4.96798 34.3025 5.70311 28.6888C6.70556 20.2683 10.849 16.058 19.7374 14.5209C23.8808 13.7858 29.4945 13.2511 34.7741 12.9838C39.0512 12.7165 46.0015 12.5828 49.9445 12.5828C53.8206 12.516 60.8377 12.7165 65.048 12.9838C70.3276 13.2511 75.9413 13.7858 80.0847 14.5209C88.9731 16.1248 93.1165 20.3351 94.1858 28.6888C94.9209 34.2357 94.9878 44.6612 94.52 51.1436Z" fill="white"/>
</svg>
