<svg width="100" height="100" viewBox="0 0 100 100" fill="none" xmlns="http://www.w3.org/2000/svg">
<path d="M49.9958 53.7063C49.8458 53.7063 49.5583 53.5116 49.0708 52.6062C47.0305 48.7489 44.2292 45.36 40.8417 42.6509C38.1832 40.5338 35.2321 38.8259 32.0833 37.5823C31.6061 37.3855 31.1269 37.1937 30.6458 37.0069C26.4292 35.3146 22.0583 33.5672 18 31.181C17.5501 30.9224 17.1056 30.6544 16.6667 30.3771C17.475 28.9386 18.4167 27.5636 19.4583 26.307C20.9701 24.4723 22.7274 22.8616 24.6792 21.5219C26.7747 20.0992 29.0402 18.9533 31.4208 18.1118C36.4958 16.2756 42.575 15.3744 49.9958 15.3659C57.425 15.3744 63.5 16.2756 68.575 18.116C70.9574 18.9546 73.2244 20.0992 75.3208 21.5219C77.2715 22.8614 79.0287 24.4705 80.5417 26.3028C81.5833 27.5636 82.5208 28.9386 83.3333 30.3771C82.9042 30.6479 82.45 30.9229 82 31.1895C77.9333 33.5757 73.5708 35.323 69.3458 37.0112L67.9083 37.5866C64.7626 38.8312 61.8144 40.539 59.1583 42.6552C55.7693 45.3644 52.9678 48.755 50.9292 52.6147C50.4417 53.5159 50.15 53.7063 49.9958 53.7063ZM49.9958 83.6313C43.5625 83.6229 38.3375 83.0856 34.0375 81.994C29.8167 80.9278 26.3083 79.2862 23.3042 76.9677C21.0013 75.172 19.0365 72.9691 17.5042 70.4648C16.0686 68.1283 14.9344 65.6144 14.1292 62.9846C12.8734 58.8976 12.2178 54.645 12.1833 50.3639C12.1833 47.5122 12.3792 44.8087 12.7458 42.3209C17.3542 44.8426 21.7167 46.1076 25.5792 47.2288L26.475 47.4826C31.85 49.0523 36.1167 51.1085 39.5375 53.7782C41.5167 55.3352 43.2458 57.1333 44.6625 59.126C46.2 61.2753 47.425 63.7292 48.3167 66.4243C48.7167 67.647 49.15 68.4044 49.9958 68.4044C50.8583 68.4044 51.2792 67.6428 51.6833 66.4243C53.2737 61.4009 56.3367 56.9904 60.4625 53.7824C63.8792 51.1085 68.15 49.0523 73.525 47.4826L74.425 47.2288C78.2833 46.1076 82.6458 44.8426 87.25 42.3209C87.625 44.8129 87.8167 47.5122 87.8167 50.3596C87.8167 52.2974 87.625 57.3998 85.8792 62.9846C85.0745 65.6138 83.9417 68.1277 82.5083 70.4648C80.9712 72.9707 79.0007 75.1737 76.6917 76.9677C73.6792 79.2862 70.1708 80.9278 65.9667 81.994C61.6542 83.0856 56.4333 83.6229 49.9958 83.6313ZM90.3792 22.0465C82.425 13.3732 69.5875 9.39615 49.9958 9.375C30.4125 9.39615 17.575 13.369 9.62083 22.0423C3.70833 28.4775 0 37.3835 0 49.4669C0 56.1475 1.625 73.1599 14.85 81.9432C22.7667 87.198 32.9917 90.5996 49.9958 90.625C67.0083 90.5996 77.2292 87.198 85.15 81.9432C98.3708 73.1599 100 56.1433 100 49.4669C100 37.4173 96.2625 28.4479 90.375 22.0381L90.3792 22.0465Z" fill="white"/>
</svg>
