<svg width="100" height="100" viewBox="0 0 100 100" fill="none" xmlns="http://www.w3.org/2000/svg">
<path d="M71.2989 60.5228L50 33.0429L28.7011 60.5228C21.5084 59.8525 9.14805 55.3619 9.14805 47.3861C9.14805 37.3324 27.3045 27.9491 50.0698 27.9491C74.0224 27.9491 90.9916 37.3324 90.9916 47.3861C90.9916 55.429 78.5614 59.9196 71.4385 60.4558M50 25C20.5307 25 0 36.059 0 50.3351C0 57.0375 4.46927 64.5442 13.9665 69.1019C22.8352 73.3244 35.2654 74.7989 37.0112 75L50 38.6059L62.9888 75C70.9334 74.1458 78.7006 72.1578 86.0335 69.1019C95.5307 64.5442 100 57.0375 100 50.3351C99.9302 35.992 79.4693 25 50 25Z" fill="white"/>
</svg>
