<svg width="100" height="100" viewBox="0 0 100 100" fill="none" xmlns="http://www.w3.org/2000/svg">
<path d="M50 60C50.0687 60 50.1886 59.9744 50.2745 59.9317C55.892 57.1269 58.5164 54.5628 61.8186 49.2369C63.0539 47.1956 63.7481 46.1582 66.7419 45.7206C71.4334 45.0514 92.618 43.568 96.7947 42.993C98.5879 42.7362 99.0674 42.4613 99.9084 41.5783C100.046 41.4408 100.046 41.3209 99.7885 41.3465C99.2567 41.3896 78.1233 42.2987 65.4386 42.7618C62.3244 42.9247 61.3989 42.8561 58.7994 41.9982C54.9487 40.8062 51.4665 40 50 40C48.5335 40 45.0512 40.8062 41.1999 41.9897C38.6012 42.8475 37.6664 42.9163 34.562 42.7532C21.8853 42.2902 0.74327 41.3896 0.211452 41.338C-0.0458899 41.3124 -0.0458899 41.4323 0.0916051 41.5698C0.923347 42.4527 1.41202 42.7277 3.2052 42.9845C7.38192 43.5595 28.5665 45.0428 33.258 45.7122C36.2511 46.1496 36.9546 47.1956 38.1813 49.2284C41.483 54.5542 44.0988 57.1183 49.7255 59.9228C49.8114 59.9744 49.9312 60 50 60ZM43.2159 57.6416C43.4733 57.6848 43.4733 57.5734 43.3358 57.453C40.0335 54.8371 38.9273 52.9163 36.3886 48.9795C35.625 47.7791 34.6904 47.2211 32.6489 46.9644C31.5341 46.8268 7.63925 44.6054 2.94724 44.1855C2.69042 44.1594 2.69042 44.2538 2.82739 44.3912C3.68531 45.249 4.637 46.0553 5.35746 46.5865C7.81938 48.4648 9.65464 48.9279 12.6478 49.0392C15.1778 49.1341 30.6251 49.8715 32.4347 50.0085C33.7381 50.1034 34.133 50.3091 34.4761 50.729C34.6387 50.9175 34.6648 51.0721 34.433 51.0721C32.8978 51.0721 23.4029 50.9777 15.5728 50.7976C15.5041 50.7976 15.4785 50.8402 15.5466 50.8665C21.1477 52.7191 25.6245 53.8764 30.1791 53.8508C32.4779 53.8253 34.7506 53.8083 35.6597 53.8083C36.637 53.8083 37.0318 53.9026 37.4006 54.3656C37.5374 54.5542 37.521 54.6656 37.1949 54.6912C35.8222 54.8031 33.8756 54.9485 31.5773 55.086C31.3711 55.1116 31.3711 55.1548 31.5512 55.1974C36.7829 56.4581 39.5449 57.041 43.2159 57.6416ZM50 58.5421C49.9568 58.5421 49.8801 58.5421 49.7682 58.4733C45.1971 55.7462 40.5226 51.5267 39.5704 46.6212C39.2448 44.7685 39.9392 44.4253 41.1056 44.0055C43.1983 43.2418 48.0017 41.7584 50 41.7584C51.9987 41.7584 56.8016 43.2418 58.8936 44.0055C60.0516 44.4253 60.7556 44.7685 60.4289 46.6212C59.4778 51.5267 54.8119 55.7377 50.2317 58.4733C50.1199 58.5421 50.0432 58.5421 50 58.5421ZM56.784 57.6416C60.4551 57.041 63.2169 56.4581 68.4402 55.2144C68.6289 55.1712 68.6289 55.1201 68.4142 55.1031C66.1159 54.9656 64.1601 54.8287 62.7965 54.7088C62.4703 54.6827 62.4449 54.5713 62.5909 54.3827C62.9597 53.9196 63.3539 53.8253 64.3323 53.8253C65.2409 53.8253 67.5135 53.8508 69.8124 53.8679C74.367 53.8935 78.8442 52.7356 84.4442 50.8834C84.513 50.8579 84.4874 50.8147 84.4186 50.8147C76.5879 51.004 67.0937 51.0891 65.5585 51.0891C65.3272 51.0891 65.3527 50.9261 65.5158 50.7459C65.8669 50.326 66.2613 50.1198 67.5567 50.0255C69.3664 49.8886 84.813 49.1426 87.3436 49.0568C90.3368 48.945 92.1725 48.4824 94.634 46.6036C95.3538 46.0718 96.3062 45.2577 97.1641 44.4083C97.3009 44.2708 97.3009 44.1765 97.0436 44.2026C92.3521 44.623 68.4573 46.8439 67.3419 46.9809C65.3011 47.2387 64.366 47.787 63.6027 48.9966C61.0726 52.9333 59.9573 54.8542 56.6556 57.47C56.5266 57.5734 56.5266 57.6848 56.784 57.6416Z" fill="white"/>
<path d="M43.2155 47.3759L43.4729 47.4873C43.5502 47.5214 43.5757 47.556 43.5757 47.6417V48.2332C43.4644 48.2935 43.3184 48.3451 43.1558 48.3361C42.6497 48.3105 42.2803 47.9077 42.2803 47.3158C42.2803 46.7067 42.615 46.2697 43.1814 46.2697C43.3184 46.2697 43.636 46.3039 43.9616 46.5697L44.082 46.1407C43.6956 45.9778 43.4644 45.9351 43.1729 45.9265C42.3582 45.9089 41.6717 46.364 41.6717 47.3327C41.6717 48.1992 42.2803 48.6883 43.0786 48.6883C43.67 48.6883 44.0218 48.4907 44.1075 48.4218V47.2299H43.2757L43.2155 47.3759ZM49.0394 47.7787L47.6241 45.9863H47.0667L46.9979 46.1407L47.1183 46.201C47.2042 46.2436 47.2212 46.2868 47.2212 46.372V48.619H47.641V46.9128L48.9962 48.619H49.4593V45.9863H49.0394V47.7787ZM52.007 46.3293L51.9127 45.9947H50.0342L49.974 46.1493L50.0939 46.2096C50.1712 46.2436 50.1882 46.2953 50.1882 46.3896V48.6367H52.007V48.2935H50.7718V47.4355H51.8353V47.1101H50.7718V46.3379H52.007V46.3293ZM54.7512 46.1493L54.8718 46.2096C54.957 46.2521 54.9741 46.2953 54.9741 46.3896V48.6367H55.5576V46.0032H54.8201L54.7512 46.1493ZM53.662 47.0924C53.336 46.9214 52.9934 46.8271 52.9934 46.5266C52.9934 46.3811 53.1303 46.2612 53.4132 46.2612C53.6961 46.2612 53.9621 46.364 54.2025 46.4668L54.2798 46.0721C54.0564 45.9947 53.7735 45.9351 53.4649 45.9351C52.7877 45.9351 52.4361 46.235 52.4361 46.6556C52.4361 47.0582 52.7103 47.281 53.1133 47.4702C53.4649 47.6333 53.765 47.7447 53.765 48.002C53.765 48.1992 53.611 48.3275 53.3111 48.3275C53.028 48.3275 52.7269 48.2247 52.4957 48.1219L52.4361 48.5764C52.5473 48.6106 52.9843 48.6883 53.3111 48.6883C53.8593 48.6883 54.3485 48.4218 54.3485 47.9418C54.3485 47.4787 54.0053 47.2731 53.662 47.0924ZM46.5951 46.3293L46.5008 45.9947H44.6224L44.5621 46.1493L44.6825 46.2096C44.7592 46.2436 44.777 46.2953 44.777 46.3896V48.6367H46.5951V48.2935H45.3598V47.4355H46.4235V47.1101H45.3598V46.3379H46.5951V46.3293ZM57.4444 47.0924C57.119 46.9214 56.7752 46.8271 56.7752 46.5266C56.7752 46.3811 56.9126 46.2612 57.1957 46.2612C57.4791 46.2612 57.7444 46.364 57.9849 46.4668L58.0621 46.0721C57.8388 45.9947 57.5558 45.9351 57.2473 45.9351C56.5694 45.9351 56.1922 46.235 56.1922 46.6556C56.1922 47.0582 56.4843 47.281 56.8957 47.4702C57.2473 47.6333 57.5478 47.7447 57.5478 48.002C57.5478 48.1992 57.3928 48.3275 57.0928 48.3275C56.8098 48.3275 56.5093 48.2247 56.278 48.1219L56.2182 48.5764C56.3297 48.6106 56.7672 48.6883 57.0928 48.6883C57.6422 48.6883 58.1309 48.4218 58.1309 47.9418C58.1309 47.4787 57.7871 47.2731 57.4444 47.0924Z" fill="white"/>
</svg>
