<svg width="100" height="100" viewBox="0 0 100 100" fill="none" xmlns="http://www.w3.org/2000/svg">
<path d="M86.0209 71.6043C89.9434 65.0814 92.0108 57.6115 92 50C92 26.8037 73.1949 8 49.9996 8C26.8036 8 8.00004 26.8045 8.00004 50C7.98926 57.6117 10.0572 65.0818 13.9806 71.6043L13.8278 71.7268L14.0103 71.656C21.3615 83.8455 34.7275 92 49.9996 92C65.2725 92 78.637 83.8455 85.9874 71.656L86.17 71.7268L86.0209 71.6043ZM86.84 50C86.8472 56.432 85.161 62.7525 81.9509 68.3261L55.9688 47.3995L50.64 13.1782C70.6887 13.5205 86.84 29.869 86.84 50ZM13.1638 50C13.1638 29.8698 29.3136 13.5213 49.3622 13.1782L44.0335 47.3995L18.0514 68.3261C14.8423 62.7521 13.1566 56.4318 13.1638 50ZM50.0011 86.8378C36.9295 86.8378 25.4558 80.0227 18.9177 69.7583L50.0011 57.7331L81.0846 69.7591C74.5457 80.0227 63.0743 86.8378 50.0011 86.8378Z" fill="white"/>
</svg>
